{
	"asset":{
		"version":"2.0",
		"generator":"Maxon Cinema 4D 2023.2.0 (#200000219)"
	},
	"scenes":[{
		"nodes":[0]
	}],
	"nodes":[{
		"children":[1,
		2,
		3,
		4],
		"name":"2021",
		"translation":[-1.3134336402097517e-16,
		1.1037929058074952,
		0.15082988142967225],
		"rotation":[0.0,
		-0.7071067690849304,
		0.0,
		-0.7071067690849304],
		"scale":[1.0,
		1.0,
		1.0]
	},
	{
		"mesh":0,
		"name":"car",
		"translation":[0.0,
		0.0,
		-3.9443045848797768e-32],
		"rotation":[0.0,
		-0.7071067690849304,
		0.0,
		0.7071067690849304],
		"scale":[1.0,
		1.0,
		1.0]
	},
	{
		"mesh":1,
		"name":"chrome",
		"translation":[0.07541494071483612,
		-0.29395613074302676,
		6.105385028795925e-17],
		"rotation":[0.0,
		-0.7071067690849304,
		0.0,
		0.7071067690849304],
		"scale":[1.0,
		1.0,
		1.0]
	},
	{
		"mesh":2,
		"name":"numberplate"
	},
	{
		"mesh":3,
		"name":"light"
	}],
	"meshes":[{
		"name":"car",
		"primitives":[{
			"attributes":{
				"POSITION":1,
				"NORMAL":2
			},
			"indices":0,
			"material":0
		}]
	},
	{
		"name":"chrome",
		"primitives":[{
			"attributes":{
				"POSITION":4,
				"NORMAL":5
			},
			"indices":3,
			"material":1
		}]
	},
	{
		"name":"numberplate",
		"primitives":[{
			"attributes":{
				"POSITION":7,
				"NORMAL":8
			},
			"indices":6,
			"material":2
		}]
	},
	{
		"name":"light",
		"primitives":[{
			"attributes":{
				"POSITION":10,
				"NORMAL":11
			},
			"indices":9,
			"material":3
		}]
	}],
	"accessors":[{
		"max":[18396],
		"bufferView":0,
		"type":"SCALAR",
		"componentType":5123,
		"count":88200,
		"byteOffset":0,
		"min":[0]
	},
	{
		"max":[1.132912039756775,
		0.05823620408773422,
		2.838529348373413],
		"bufferView":1,
		"type":"VEC3",
		"componentType":5126,
		"count":18397,
		"byteOffset":0,
		"min":[-1.1350719928741456,
		-0.7490872144699097,
		-2.9241464138031008]
	},
	{
		"max":[0.9999994039535523,
		1.0,
		1.0],
		"bufferView":1,
		"type":"VEC3",
		"componentType":5126,
		"count":18397,
		"byteOffset":12,
		"min":[-0.9999683499336243,
		-1.0,
		-0.9999998807907105]
	},
	{
		"max":[25156],
		"bufferView":2,
		"type":"SCALAR",
		"componentType":5123,
		"count":112101,
		"byteOffset":0,
		"min":[0]
	},
	{
		"max":[1.0504212379455567,
		0.06953103095293045,
		2.9263763427734377],
		"bufferView":3,
		"type":"VEC3",
		"componentType":5126,
		"count":25157,
		"byteOffset":0,
		"min":[-1.0541496276855469,
		-0.4115593731403351,
		-2.8387389183044435]
	},
	{
		"max":[0.9999854564666748,
		1.0,
		1.0],
		"bufferView":3,
		"type":"VEC3",
		"componentType":5126,
		"count":25157,
		"byteOffset":12,
		"min":[-0.9999831914901733,
		-1.0,
		-0.9999833106994629]
	},
	{
		"max":[230],
		"bufferView":4,
		"type":"SCALAR",
		"componentType":5123,
		"count":618,
		"byteOffset":0,
		"min":[0]
	},
	{
		"max":[-2.8473942279815676,
		-0.22303763031959535,
		0.3040386140346527],
		"bufferView":5,
		"type":"VEC3",
		"componentType":5126,
		"count":231,
		"byteOffset":0,
		"min":[-2.865078926086426,
		-0.413127064704895,
		-0.3050028085708618]
	},
	{
		"max":[0.0807202085852623,
		0.9997931718826294,
		0.9999234080314636],
		"bufferView":5,
		"type":"VEC3",
		"componentType":5126,
		"count":231,
		"byteOffset":12,
		"min":[-0.9999111294746399,
		-0.9997977018356323,
		-0.9999567866325378]
	},
	{
		"max":[331],
		"bufferView":6,
		"type":"SCALAR",
		"componentType":5123,
		"count":768,
		"byteOffset":0,
		"min":[0]
	},
	{
		"max":[-2.4774084091186525,
		-0.3081871271133423,
		0.9370564818382263],
		"bufferView":7,
		"type":"VEC3",
		"componentType":5126,
		"count":332,
		"byteOffset":0,
		"min":[-2.5140161514282228,
		-0.34753096103668215,
		-0.9396719932556152]
	},
	{
		"max":[0.9999988079071045,
		0.9319078922271729,
		0.9355807900428772],
		"bufferView":7,
		"type":"VEC3",
		"componentType":5126,
		"count":332,
		"byteOffset":12,
		"min":[-0.9999988079071045,
		-0.9320743680000305,
		-0.9350517392158508]
	}],
	"bufferViews":[{
		"buffer":0,
		"byteOffset":0,
		"target":34963,
		"byteLength":176400
	},
	{
		"buffer":0,
		"byteOffset":176400,
		"target":34962,
		"byteLength":441528,
		"byteStride":24
	},
	{
		"buffer":1,
		"byteOffset":0,
		"target":34963,
		"byteLength":224202
	},
	{
		"buffer":1,
		"byteOffset":224204,
		"target":34962,
		"byteLength":603768,
		"byteStride":24
	},
	{
		"buffer":2,
		"byteOffset":0,
		"target":34963,
		"byteLength":1236
	},
	{
		"buffer":2,
		"byteOffset":1236,
		"target":34962,
		"byteLength":5544,
		"byteStride":24
	},
	{
		"buffer":3,
		"byteOffset":0,
		"target":34963,
		"byteLength":1536
	},
	{
		"buffer":3,
		"byteOffset":1536,
		"target":34962,
		"byteLength":7968,
		"byteStride":24
	}],
	"buffers":[{
		"uri":"data:application/octet-stream;base64,",
		"byteLength":617928
	},
	{
		"uri":"data:application/octet-stream;base64,",
		"byteLength":827972
	},
	{
		"uri":"data:application/octet-stream;base64,",
		"byteLength":6780
	},
	{
		"uri":"data:application/octet-stream;base64,",
		"byteLength":9504
	}],
	"materials":[{
		"pbrMetallicRoughness":{
			"baseColorFactor":[0.0,
			0.0,
			0.0,
			1.0],
			"metallicFactor":1.0,
			"roughnessFactor":0.1
		},
		"emissiveFactor":[0.0,
		0.0,
		0.0],
		"alphaMode":"OPAQUE",
		"doubleSided":true,
		"name":"car"
	},
	{
		"pbrMetallicRoughness":{
			"baseColorFactor":[0.8,
			0.8,
			0.8,
			1.0],
			"metallicFactor":1.0,
			"roughnessFactor":0.1
		},
		"emissiveFactor":[0.0,
		0.0,
		0.0],
		"alphaMode":"OPAQUE",
		"doubleSided":true,
		"name":"chrome"
	},
	{
		"pbrMetallicRoughness":{
			"baseColorFactor":[1.0,
			1.0,
			1.0,
			1.0],
			"metallicFactor":0.0,
			"roughnessFactor":0.5
		},
		"emissiveFactor":[0.0,
		0.0,
		0.0],
		"alphaMode":"OPAQUE",
		"doubleSided":true,
		"name":"Default"
	},
	{
		"pbrMetallicRoughness":{
			"baseColorFactor":[1.0,
			1.0,
			1.0,
			1.0],
			"metallicFactor":0.0,
			"roughnessFactor":0.5
		},
		"emissiveFactor":[1.0,
		1.0,
		1.0],
		"alphaMode":"OPAQUE",
		"doubleSided":true,
		"name":"light"
	}]
}