{
	"asset":{
		"version":"2.0",
		"generator":"Maxon Cinema 4D 2023.2.0 (#200000219)"
	},
	"scenes":[{
		"nodes":[0,
		1,
		2,
		3,
		4]
	}],
	"nodes":[{
		"name":"numberplate",
		"mesh":0,
		"translation":[-1.3134336402097517e-16,
		1.1037929058074952,
		0.15082988142967225],
		"rotation":[0.0,
		-0.7071067690849304,
		0.0,
		-0.7071067690849304],
		"scale":[1.0,
		1.0,
		1.0]
	},
	{
		"name":"black",
		"mesh":1,
		"translation":[-1.3134336402097517e-16,
		1.1037929058074952,
		0.15082988142967225],
		"rotation":[0.0,
		-0.7071067690849304,
		0.0,
		-0.7071067690849304],
		"scale":[1.0,
		1.0,
		1.0]
	},
	{
		"name":"chrome",
		"mesh":2,
		"translation":[-1.3134336402097517e-16,
		1.1037929058074952,
		0.15082988142967225],
		"rotation":[0.0,
		0.0,
		0.0,
		-1.0],
		"scale":[1.0,
		1.0,
		1.0]
	},
	{
		"name":"car",
		"mesh":3,
		"translation":[-1.3134336402097517e-16,
		1.1037929058074952,
		0.15082988142967225],
		"rotation":[0.0,
		0.0,
		0.0,
		-1.0],
		"scale":[1.0,
		1.0,
		1.0]
	},
	{
		"name":"window",
		"mesh":4,
		"translation":[0.0042855762876570229,
		-0.04697175323963165,
		-0.22037523984909059],
		"rotation":[0.0,
		0.0,
		0.0,
		-1.0],
		"scale":[1.0,
		1.0,
		1.0]
	}],
	"meshes":[{
		"name":"numberplate",
		"primitives":[{
			"attributes":{
				"POSITION":1,
				"NORMAL":2
			},
			"indices":0,
			"material":0
		}]
	},
	{
		"name":"black",
		"primitives":[{
			"attributes":{
				"POSITION":4,
				"NORMAL":5
			},
			"indices":3,
			"material":1
		}]
	},
	{
		"name":"chrome",
		"primitives":[{
			"attributes":{
				"POSITION":7,
				"NORMAL":8
			},
			"indices":6,
			"material":2
		}]
	},
	{
		"name":"car",
		"primitives":[{
			"attributes":{
				"POSITION":10,
				"NORMAL":11
			},
			"indices":9,
			"material":3
		}]
	},
	{
		"name":"window",
		"primitives":[{
			"attributes":{
				"POSITION":13,
				"NORMAL":14
			},
			"indices":12,
			"material":4
		}]
	}],
	"accessors":[{
		"bufferView":0,
		"type":"SCALAR",
		"componentType":5123,
		"count":798,
		"byteOffset":0,
		"min":[0],
		"max":[269]
	},
	{
		"bufferView":1,
		"type":"VEC3",
		"componentType":5126,
		"count":270,
		"byteOffset":0,
		"min":[-2.8676977157592775,
		-0.4380055367946625,
		-0.30106401443481448],
		"max":[-2.850858211517334,
		-0.22530245780944825,
		0.30106401443481448]
	},
	{
		"bufferView":1,
		"type":"VEC3",
		"componentType":5126,
		"count":270,
		"byteOffset":12,
		"min":[-0.9999943971633911,
		-0.9998597502708435,
		-0.999995231628418],
		"max":[0.017500415444374086,
		0.9997866153717041,
		0.999995231628418]
	},
	{
		"bufferView":2,
		"type":"SCALAR",
		"componentType":5123,
		"count":25788,
		"byteOffset":0,
		"min":[0],
		"max":[6120]
	},
	{
		"bufferView":3,
		"type":"VEC3",
		"componentType":5126,
		"count":6121,
		"byteOffset":0,
		"min":[-2.8605761528015138,
		-0.614063560962677,
		-0.9918285608291626],
		"max":[-2.4591798782348635,
		-0.22600597143173219,
		0.9918285608291626]
	},
	{
		"bufferView":3,
		"type":"VEC3",
		"componentType":5126,
		"count":6121,
		"byteOffset":12,
		"min":[-1.0,
		-0.9999986886978149,
		-0.9999983310699463],
		"max":[0.9995534420013428,
		0.9999996423721314,
		0.9999983310699463]
	},
	{
		"bufferView":4,
		"type":"SCALAR",
		"componentType":5123,
		"count":23406,
		"byteOffset":0,
		"min":[0],
		"max":[5550]
	},
	{
		"bufferView":5,
		"type":"VEC3",
		"componentType":5126,
		"count":5551,
		"byteOffset":0,
		"min":[-0.9887918829917908,
		-0.6384280323982239,
		-2.9157652854919435],
		"max":[0.9887918829917908,
		-0.2757902443408966,
		2.8299007415771486]
	},
	{
		"bufferView":5,
		"type":"VEC3",
		"componentType":5126,
		"count":5551,
		"byteOffset":12,
		"min":[-0.9999825954437256,
		-0.9999926090240479,
		-0.9999841451644898],
		"max":[0.9999825954437256,
		0.9999690055847168,
		0.9998752474784851]
	},
	{
		"bufferView":6,
		"type":"SCALAR",
		"componentType":5123,
		"count":85620,
		"byteOffset":0,
		"min":[0],
		"max":[17363]
	},
	{
		"bufferView":7,
		"type":"VEC3",
		"componentType":5126,
		"count":17364,
		"byteOffset":0,
		"min":[-1.1393215656280518,
		-0.7790582776069641,
		-2.9449548721313478],
		"max":[1.1393224000930787,
		0.04220123961567879,
		2.841550350189209]
	},
	{
		"bufferView":7,
		"type":"VEC3",
		"componentType":5126,
		"count":17364,
		"byteOffset":12,
		"min":[-0.9999978542327881,
		-0.9999932050704956,
		-0.999912679195404],
		"max":[0.9999978542327881,
		0.9999990463256836,
		0.9999998807907105]
	},
	{
		"bufferView":8,
		"type":"SCALAR",
		"componentType":5123,
		"count":1872,
		"byteOffset":0,
		"min":[0],
		"max":[409]
	},
	{
		"bufferView":9,
		"type":"VEC3",
		"componentType":5126,
		"count":410,
		"byteOffset":0,
		"min":[-0.9710700511932373,
		0.7714353203773499,
		2.918910264968872],
		"max":[0.9624980092048645,
		0.8445171117782593,
		2.9698598384857179]
	},
	{
		"bufferView":9,
		"type":"VEC3",
		"componentType":5126,
		"count":410,
		"byteOffset":12,
		"min":[-0.9557608366012573,
		-0.8268396854400635,
		0.2931283116340637],
		"max":[0.9557492733001709,
		0.8589213490486145,
		0.9769960045814514]
	}],
	"bufferViews":[{
		"buffer":0,
		"byteOffset":0,
		"byteLength":1596,
		"target":34963
	},
	{
		"buffer":0,
		"byteOffset":1596,
		"byteLength":6480,
		"target":34962,
		"byteStride":24
	},
	{
		"buffer":1,
		"byteOffset":0,
		"byteLength":51576,
		"target":34963
	},
	{
		"buffer":1,
		"byteOffset":51576,
		"byteLength":146904,
		"target":34962,
		"byteStride":24
	},
	{
		"buffer":2,
		"byteOffset":0,
		"byteLength":46812,
		"target":34963
	},
	{
		"buffer":2,
		"byteOffset":46812,
		"byteLength":133224,
		"target":34962,
		"byteStride":24
	},
	{
		"buffer":3,
		"byteOffset":0,
		"byteLength":171240,
		"target":34963
	},
	{
		"buffer":3,
		"byteOffset":171240,
		"byteLength":416736,
		"target":34962,
		"byteStride":24
	},
	{
		"buffer":4,
		"byteOffset":0,
		"byteLength":3744,
		"target":34963
	},
	{
		"buffer":4,
		"byteOffset":3744,
		"byteLength":9840,
		"target":34962,
		"byteStride":24
	}],
	"buffers":[{
		"uri":"data:application/octet-stream;base64,",
		"byteLength":8076
	},
	{
		"uri":"data:application/octet-stream;base64,",
		"byteLength":198480
	},
	{
		"uri":"data:application/octet-stream;base64,",
		"byteLength":180036
	},
	{
		"uri":"data:application/octet-stream;base64,",
		"byteLength":587976
	},
	{
		"uri":"data:application/octet-stream;base64,",
		"byteLength":13584
	}],
	"materials":[{
		"pbrMetallicRoughness":{
			"baseColorFactor":[1.0,
			1.0,
			1.0,
			1.0],
			"metallicFactor":0.0,
			"roughnessFactor":0.5
		},
		"emissiveFactor":[0.0,
		0.0,
		0.0],
		"alphaMode":"OPAQUE",
		"doubleSided":true,
		"name":"Default"
	},
	{
		"pbrMetallicRoughness":{
			"baseColorFactor":[0.0,
			0.0,
			0.0,
			1.0],
			"metallicFactor":0.0,
			"roughnessFactor":0.41000000000000005
		},
		"emissiveFactor":[0.0,
		0.0,
		0.0],
		"alphaMode":"OPAQUE",
		"doubleSided":true,
		"name":"black"
	},
	{
		"pbrMetallicRoughness":{
			"baseColorFactor":[0.8,
			0.8,
			0.8,
			1.0],
			"metallicFactor":0.35000000000000006,
			"roughnessFactor":0.05
		},
		"emissiveFactor":[0.0,
		0.0,
		0.0],
		"alphaMode":"OPAQUE",
		"doubleSided":true,
		"name":"chrome"
	},
	{
		"pbrMetallicRoughness":{
			"baseColorFactor":[0.0,
			0.0,
			0.0,
			1.0],
			"metallicFactor":1.0,
			"roughnessFactor":0.1
		},
		"emissiveFactor":[0.0,
		0.0,
		0.0],
		"alphaMode":"OPAQUE",
		"doubleSided":true,
		"name":"car"
	},
	{
		"pbrMetallicRoughness":{
			"baseColorFactor":[0.8,
			0.8,
			0.8,
			0.14],
			"metallicFactor":1.0,
			"roughnessFactor":0.1
		},
		"emissiveFactor":[0.0,
		0.0,
		0.0],
		"alphaMode":"BLEND",
		"doubleSided":true,
		"name":"Mat"
	}]
}