{
	"asset":{
		"version":"2.0",
		"generator":"Maxon Cinema 4D 2023.2.0 (#200000219)"
	},
	"scenes":[{
		"nodes":[0]
	}],
	"nodes":[{
		"name":"2019",
		"translation":[-1.3134336402097517e-16,
		0.0,
		0.0],
		"rotation":[0.0,
		-0.7071067690849304,
		0.0,
		-0.7071067690849304],
		"scale":[1.0,
		1.0,
		1.0],
		"children":[1,
		2]
	},
	{
		"name":"Null",
		"translation":[-0.15082988142967225,
		1.1037929058074952,
		9.235666753779117e-18],
		"rotation":[0.0,
		0.0,
		0.0,
		-1.0],
		"scale":[1.0,
		1.0,
		1.0],
		"children":[3,
		4]
	},
	{
		"name":"Symmetry",
		"translation":[-0.15082988142967225,
		1.1037929058074952,
		9.235666753779117e-18],
		"rotation":[0.0,
		0.0,
		0.0,
		-1.0],
		"scale":[1.0,
		1.0,
		1.0],
		"children":[5]
	},
	{
		"name":"LC200_Tyres_1.1",
		"children":[6]
	},
	{
		"name":"LC200_CarPaint_Black_Metallic_1.1",
		"children":[7]
	},
	{
		"name":"Null",
		"children":[8,
		9,
		10,
		11]
	},
	{
		"name":"LC200_Tyres_1.1",
		"mesh":0
	},
	{
		"name":"LC200_CarPaint_Black_Metallic_1.1",
		"mesh":1
	},
	{
		"name":"LC200_BlackPlastic_1",
		"children":[12]
	},
	{
		"name":"LC200_BlackPlastic_1.1",
		"mesh":2
	},
	{
		"name":"LC200_CarPaint_Black_Metallic_1.1",
		"mesh":3
	},
	{
		"name":"LC200_chrome_1_1.1",
		"children":[13]
	},
	{
		"name":"LC200_BlackPlastic_1",
		"mesh":4
	},
	{
		"name":"LC200_chrome_1_1.1",
		"mesh":5
	}],
	"meshes":[{
		"name":"LC200_Tyres_1.1",
		"primitives":[{
			"attributes":{
				"POSITION":1,
				"NORMAL":2,
				"TEXCOORD_0":3
			},
			"indices":0,
			"material":0
		}]
	},
	{
		"name":"LC200_CarPaint_Black_Metallic_1.1",
		"primitives":[{
			"attributes":{
				"POSITION":5,
				"NORMAL":6,
				"TEXCOORD_0":7
			},
			"indices":4,
			"material":1
		}]
	},
	{
		"name":"LC200_BlackPlastic_1.1",
		"primitives":[{
			"attributes":{
				"POSITION":9,
				"NORMAL":10,
				"TEXCOORD_0":11
			},
			"indices":8,
			"material":1
		}]
	},
	{
		"name":"LC200_CarPaint_Black_Metallic_1.1",
		"primitives":[{
			"attributes":{
				"POSITION":13,
				"NORMAL":14,
				"TEXCOORD_0":15
			},
			"indices":12,
			"material":1
		}]
	},
	{
		"name":"LC200_BlackPlastic_1",
		"primitives":[{
			"attributes":{
				"POSITION":17,
				"NORMAL":18,
				"TEXCOORD_0":19
			},
			"indices":16,
			"material":2
		}]
	},
	{
		"name":"LC200_chrome_1_1.1",
		"primitives":[{
			"attributes":{
				"POSITION":21,
				"NORMAL":22,
				"TEXCOORD_0":23
			},
			"indices":20,
			"material":0
		}]
	}],
	"accessors":[{
		"bufferView":0,
		"type":"SCALAR",
		"componentType":5123,
		"count":12936,
		"byteOffset":0,
		"min":[0],
		"max":[4706]
	},
	{
		"bufferView":1,
		"type":"VEC3",
		"componentType":5126,
		"count":4707,
		"byteOffset":0,
		"min":[2.792083501815796,
		-0.43419545888900759,
		-0.881046712398529],
		"max":[2.9157652854919435,
		-0.3698199391365051,
		0.8810478448867798]
	},
	{
		"bufferView":1,
		"type":"VEC3",
		"componentType":5126,
		"count":4707,
		"byteOffset":12,
		"min":[-0.9990120530128479,
		-0.17940929532051087,
		-0.9999063611030579],
		"max":[0.9999841451644898,
		0.9999690055847168,
		0.9999063611030579]
	},
	{
		"bufferView":1,
		"type":"VEC2",
		"componentType":5126,
		"count":4707,
		"byteOffset":24,
		"min":[-0.2093999981880188,
		-0.2353000044822693],
		"max":[1.1994999647140504,
		1.235299825668335]
	},
	{
		"bufferView":2,
		"type":"SCALAR",
		"componentType":5123,
		"count":38904,
		"byteOffset":0,
		"min":[0],
		"max":[8733]
	},
	{
		"bufferView":3,
		"type":"VEC3",
		"componentType":5126,
		"count":8734,
		"byteOffset":0,
		"min":[1.925236701965332,
		-0.7317081689834595,
		-1.1393215656280518],
		"max":[2.9449548721313478,
		0.04220123961567879,
		1.1393224000930787]
	},
	{
		"bufferView":3,
		"type":"VEC3",
		"componentType":5126,
		"count":8734,
		"byteOffset":12,
		"min":[-0.9981536865234375,
		-0.9997966289520264,
		-0.9999391436576843],
		"max":[0.999912679195404,
		0.9999990463256836,
		0.9999391436576843]
	},
	{
		"bufferView":3,
		"type":"VEC2",
		"componentType":5126,
		"count":8734,
		"byteOffset":24,
		"min":[-241.21629333496095,
		-246.14068603515626],
		"max":[242.21629333496095,
		78.42410278320313]
	},
	{
		"bufferView":4,
		"type":"SCALAR",
		"componentType":5123,
		"count":25332,
		"byteOffset":0,
		"min":[0],
		"max":[8110]
	},
	{
		"bufferView":5,
		"type":"VEC3",
		"componentType":5126,
		"count":8111,
		"byteOffset":0,
		"min":[-2.8605761528015138,
		-0.614063560962677,
		-0.9918285608291626],
		"max":[-2.4591798782348635,
		-0.22600597143173219,
		0.9918285608291626]
	},
	{
		"bufferView":5,
		"type":"VEC3",
		"componentType":5126,
		"count":8111,
		"byteOffset":12,
		"min":[-1.0,
		-0.9999961853027344,
		-0.9999983310699463],
		"max":[0.9995534420013428,
		0.9999996423721314,
		0.9999983310699463]
	},
	{
		"bufferView":5,
		"type":"VEC2",
		"componentType":5126,
		"count":8111,
		"byteOffset":24,
		"min":[-1.268399953842163,
		-2.3613996505737306],
		"max":[5.7596001625061039,
		2.164400100708008]
	},
	{
		"bufferView":6,
		"type":"SCALAR",
		"componentType":5123,
		"count":46716,
		"byteOffset":0,
		"min":[0],
		"max":[9951]
	},
	{
		"bufferView":7,
		"type":"VEC3",
		"componentType":5126,
		"count":9952,
		"byteOffset":0,
		"min":[-2.841550350189209,
		-0.7790582776069641,
		-1.1268950700759888],
		"max":[-2.1914217472076418,
		-0.01606201007962227,
		1.1268950700759888]
	},
	{
		"bufferView":7,
		"type":"VEC3",
		"componentType":5126,
		"count":9952,
		"byteOffset":12,
		"min":[-0.9999998807907105,
		-0.9999932050704956,
		-0.9999978542327881],
		"max":[0.9980102777481079,
		0.999894917011261,
		0.9999978542327881]
	},
	{
		"bufferView":7,
		"type":"VEC2",
		"componentType":5126,
		"count":9952,
		"byteOffset":24,
		"min":[-230.56910705566407,
		19.55030059814453],
		"max":[240.3719940185547,
		247.09390258789063]
	},
	{
		"bufferView":8,
		"type":"SCALAR",
		"componentType":5123,
		"count":798,
		"byteOffset":0,
		"min":[0],
		"max":[269]
	},
	{
		"bufferView":9,
		"type":"VEC3",
		"componentType":5126,
		"count":270,
		"byteOffset":0,
		"min":[-2.8676977157592775,
		-0.4380055367946625,
		-0.30106401443481448],
		"max":[-2.850858211517334,
		-0.22530245780944825,
		0.30106401443481448]
	},
	{
		"bufferView":9,
		"type":"VEC3",
		"componentType":5126,
		"count":270,
		"byteOffset":12,
		"min":[-0.9999943971633911,
		-0.9998597502708435,
		-0.999995231628418],
		"max":[0.017500415444374086,
		0.9997866153717041,
		0.999995231628418]
	},
	{
		"bufferView":9,
		"type":"VEC2",
		"componentType":5126,
		"count":270,
		"byteOffset":24,
		"min":[0.4923233091831207,
		-0.003800000064074993],
		"max":[0.9983000159263611,
		0.9950089454650879]
	},
	{
		"bufferView":10,
		"type":"SCALAR",
		"componentType":5123,
		"count":10470,
		"byteOffset":0,
		"min":[0],
		"max":[2690]
	},
	{
		"bufferView":11,
		"type":"VEC3",
		"componentType":5126,
		"count":2691,
		"byteOffset":0,
		"min":[-2.8299007415771486,
		-0.6384280323982239,
		-0.9887918829917908],
		"max":[-2.4398133754730226,
		-0.2757902443408966,
		0.9887918829917908]
	},
	{
		"bufferView":11,
		"type":"VEC3",
		"componentType":5126,
		"count":2691,
		"byteOffset":12,
		"min":[-0.9998752474784851,
		-0.9999926090240479,
		-0.9999827146530151],
		"max":[0.2150675505399704,
		0.9998874068260193,
		0.9999827146530151]
	},
	{
		"bufferView":11,
		"type":"VEC2",
		"componentType":5126,
		"count":2691,
		"byteOffset":24,
		"min":[-236.4344024658203,
		14.374099731445313],
		"max":[227.78770446777345,
		238.7593994140625]
	}],
	"bufferViews":[{
		"buffer":0,
		"byteOffset":0,
		"byteLength":25872,
		"target":34963
	},
	{
		"buffer":0,
		"byteOffset":25872,
		"byteLength":150624,
		"target":34962,
		"byteStride":32
	},
	{
		"buffer":1,
		"byteOffset":0,
		"byteLength":77808,
		"target":34963
	},
	{
		"buffer":1,
		"byteOffset":77808,
		"byteLength":279488,
		"target":34962,
		"byteStride":32
	},
	{
		"buffer":2,
		"byteOffset":0,
		"byteLength":50664,
		"target":34963
	},
	{
		"buffer":2,
		"byteOffset":50664,
		"byteLength":259552,
		"target":34962,
		"byteStride":32
	},
	{
		"buffer":3,
		"byteOffset":0,
		"byteLength":93432,
		"target":34963
	},
	{
		"buffer":3,
		"byteOffset":93432,
		"byteLength":318464,
		"target":34962,
		"byteStride":32
	},
	{
		"buffer":4,
		"byteOffset":0,
		"byteLength":1596,
		"target":34963
	},
	{
		"buffer":4,
		"byteOffset":1596,
		"byteLength":8640,
		"target":34962,
		"byteStride":32
	},
	{
		"buffer":5,
		"byteOffset":0,
		"byteLength":20940,
		"target":34963
	},
	{
		"buffer":5,
		"byteOffset":20940,
		"byteLength":86112,
		"target":34962,
		"byteStride":32
	}],
	"buffers":[{
		"uri":"data:application/octet-stream;base64,",
		"byteLength":176496
	},
	{
		"uri":"data:application/octet-stream;base64,",
		"byteLength":357296
	},
	{
		"uri":"data:application/octet-stream;base64,",
		"byteLength":310216
	},
	{
		"uri":"data:application/octet-stream;base64,",
		"byteLength":411896
	},
	{
		"uri":"data:application/octet-stream;base64,",
		"byteLength":10236
	},
	{
		"uri":"data:application/octet-stream;base64,",
		"byteLength":107052
	}],
	"materials":[{
		"pbrMetallicRoughness":{
			"baseColorFactor":[0.8,
			0.8,
			0.8,
			1.0],
			"metallicFactor":1.0,
			"roughnessFactor":0.1
		},
		"emissiveFactor":[0.0,
		0.0,
		0.0],
		"alphaMode":"OPAQUE",
		"doubleSided":false,
		"name":"Mat.1"
	},
	{
		"pbrMetallicRoughness":{
			"baseColorFactor":[0.15,
			0.15,
			0.15,
			1.0],
			"metallicFactor":0.0,
			"roughnessFactor":0.47000000000000005
		},
		"emissiveFactor":[0.0,
		0.0,
		0.0],
		"alphaMode":"OPAQUE",
		"doubleSided":false,
		"name":"Mat"
	},
	{
		"pbrMetallicRoughness":{
			"baseColorFactor":[1.0,
			1.0,
			1.0,
			1.0],
			"metallicFactor":1.0,
			"roughnessFactor":1.0
		},
		"emissiveFactor":[0.0,
		0.0,
		0.0],
		"alphaMode":"OPAQUE",
		"doubleSided":false,
		"name":""
	}]
}