{
	"asset":{
		"version":"2.0",
		"generator":"Maxon Cinema 4D 2023.2.0 (#200000219)"
	},
	"scenes":[{
		"nodes":[0]
	}],
	"nodes":[{
		"name":"2021",
		"translation":[-1.3134336402097517e-16,
		0.0,
		0.0],
		"rotation":[0.0,
		-0.7071067690849304,
		0.0,
		-0.7071067690849304],
		"scale":[1.0,
		1.0,
		1.0],
		"children":[1,
		2]
	},
	{
		"name":"Null.1",
		"translation":[-0.1319761425256729,
		1.0303038358688355,
		2.449912932576893e-17],
		"rotation":[0.0,
		0.0,
		0.0,
		-1.0],
		"scale":[1.0,
		1.0,
		1.0],
		"children":[3,
		4,
		5,
		6,
		7,
		8,
		9,
		10]
	},
	{
		"name":"Null",
		"translation":[-0.15082988142967225,
		1.1037929058074952,
		9.235666753779117e-18],
		"rotation":[0.0,
		0.0,
		0.0,
		-1.0],
		"scale":[1.0,
		1.0,
		1.0],
		"children":[11,
		12]
	},
	{
		"name":"LC200_BlackPlastic_1.1",
		"translation":[-0.01885373517870903,
		0.07348903268575669,
		-1.5263462571989814e-17],
		"rotation":[0.0,
		0.0,
		0.0,
		-1.0],
		"scale":[1.0,
		1.0,
		1.0],
		"children":[13]
	},
	{
		"name":"LC200_chrome_1_1.1",
		"translation":[-0.01885373517870903,
		0.07348903268575669,
		-1.5263462571989814e-17],
		"rotation":[0.0,
		0.0,
		0.0,
		-1.0],
		"scale":[1.0,
		1.0,
		1.0],
		"children":[14]
	},
	{
		"name":"LC200_CarPaint_Black_Metallic_1.1",
		"translation":[-0.01885373517870903,
		0.07348903268575669,
		-1.5263462571989814e-17],
		"rotation":[0.0,
		0.0,
		0.0,
		-1.0],
		"scale":[1.0,
		1.0,
		1.0],
		"children":[15]
	},
	{
		"name":"LC200_chrome_2_1.1",
		"translation":[-0.01885373517870903,
		0.07348903268575669,
		-1.5263462571989814e-17],
		"rotation":[0.0,
		0.0,
		0.0,
		-1.0],
		"scale":[1.0,
		1.0,
		1.0],
		"children":[16]
	},
	{
		"name":"LC200_CarGlass_WindowTinted_1.1",
		"translation":[-0.01885373517870903,
		0.07348903268575669,
		-1.5263462571989814e-17],
		"rotation":[0.0,
		0.0,
		0.0,
		-1.0],
		"scale":[1.0,
		1.0,
		1.0],
		"children":[17]
	},
	{
		"name":"LC200_BlackPlastic_1.1",
		"translation":[-0.01885373517870903,
		0.07348903268575669,
		-1.5263462571989814e-17],
		"rotation":[0.0,
		0.0,
		0.0,
		-1.0],
		"scale":[1.0,
		1.0,
		1.0],
		"children":[18]
	},
	{
		"name":"Subdivision Surface",
		"translation":[0.1319761425256729,
		-0.5144231915473938,
		1.0684423965828991e-16],
		"rotation":[0.0,
		-0.7071067690849304,
		0.0,
		0.7071067690849304],
		"scale":[1.0,
		1.0,
		1.0],
		"children":[19]
	},
	{
		"name":"LC200_CarPaint_Black_Metallic_1.1",
		"translation":[-0.01885373517870903,
		0.07348903268575669,
		-1.5263462571989814e-17],
		"rotation":[0.0,
		0.0,
		0.0,
		-1.0],
		"scale":[1.0,
		1.0,
		1.0],
		"children":[20]
	},
	{
		"name":"LC200_BlackPlastic_1.2",
		"children":[21]
	},
	{
		"name":"LC200_CarPaint_Black_Metallic_1.2",
		"children":[22]
	},
	{
		"name":"LC200_BlackPlastic_1.1",
		"mesh":0
	},
	{
		"name":"LC200_chrome_1_1.1",
		"mesh":1
	},
	{
		"name":"LC200_CarPaint_Black_Metallic_1.1",
		"mesh":2
	},
	{
		"name":"LC200_chrome_2_1.1",
		"mesh":3
	},
	{
		"name":"LC200_CarGlass_WindowTinted_1.1",
		"mesh":4
	},
	{
		"name":"LC200_BlackPlastic_1.1",
		"mesh":5
	},
	{
		"name":"Subdivision Surface",
		"mesh":6
	},
	{
		"name":"LC200_CarPaint_Black_Metallic_1.1",
		"mesh":7
	},
	{
		"name":"LC200_BlackPlastic_1.2",
		"mesh":8
	},
	{
		"name":"LC200_CarPaint_Black_Metallic_1.2",
		"mesh":9
	}],
	"meshes":[{
		"name":"LC200_BlackPlastic_1.1",
		"primitives":[{
			"attributes":{
				"POSITION":1,
				"NORMAL":2,
				"TEXCOORD_0":3
			},
			"indices":0,
			"material":0
		}]
	},
	{
		"name":"LC200_chrome_1_1.1",
		"primitives":[{
			"attributes":{
				"POSITION":5,
				"NORMAL":6,
				"TEXCOORD_0":7
			},
			"indices":4,
			"material":0
		}]
	},
	{
		"name":"LC200_CarPaint_Black_Metallic_1.1",
		"primitives":[{
			"attributes":{
				"POSITION":9,
				"NORMAL":10,
				"TEXCOORD_0":11
			},
			"indices":8,
			"material":1
		}]
	},
	{
		"name":"LC200_chrome_2_1.1",
		"primitives":[{
			"attributes":{
				"POSITION":13,
				"NORMAL":14,
				"TEXCOORD_0":15
			},
			"indices":12,
			"material":2
		}]
	},
	{
		"name":"LC200_CarGlass_WindowTinted_1.1",
		"primitives":[{
			"attributes":{
				"POSITION":17,
				"NORMAL":18,
				"TEXCOORD_0":19
			},
			"indices":16,
			"material":3
		}]
	},
	{
		"name":"LC200_BlackPlastic_1.1",
		"primitives":[{
			"attributes":{
				"POSITION":21,
				"TEXCOORD_0":22
			},
			"indices":20,
			"material":1
		}]
	},
	{
		"name":"Subdivision Surface",
		"primitives":[{
			"attributes":{
				"POSITION":24,
				"NORMAL":25
			},
			"indices":23,
			"material":0
		}]
	},
	{
		"name":"LC200_CarPaint_Black_Metallic_1.1",
		"primitives":[{
			"attributes":{
				"POSITION":27,
				"NORMAL":28,
				"TEXCOORD_0":29
			},
			"indices":26,
			"material":1
		}]
	},
	{
		"name":"LC200_BlackPlastic_1.2",
		"primitives":[{
			"attributes":{
				"POSITION":31,
				"NORMAL":32,
				"TEXCOORD_0":33
			},
			"indices":30,
			"material":0
		}]
	},
	{
		"name":"LC200_CarPaint_Black_Metallic_1.2",
		"primitives":[{
			"attributes":{
				"POSITION":35,
				"NORMAL":36,
				"TEXCOORD_0":37
			},
			"indices":34,
			"material":1
		}]
	}],
	"accessors":[{
		"bufferView":0,
		"type":"SCALAR",
		"componentType":5123,
		"count":22290,
		"byteOffset":0,
		"min":[0],
		"max":[6959]
	},
	{
		"bufferView":1,
		"type":"VEC3",
		"componentType":5126,
		"count":6960,
		"byteOffset":0,
		"min":[-2.865078926086426,
		-0.43230435252189639,
		-0.9931302070617676],
		"max":[-2.455460548400879,
		-0.22303763031959535,
		0.9930042028427124]
	},
	{
		"bufferView":1,
		"type":"VEC3",
		"componentType":5126,
		"count":6960,
		"byteOffset":12,
		"min":[-1.0,
		-1.0,
		-0.9999827146530151],
		"max":[0.9772443771362305,
		1.0,
		0.9999234080314636]
	},
	{
		"bufferView":1,
		"type":"VEC2",
		"componentType":5126,
		"count":6960,
		"byteOffset":24,
		"min":[-1.268399953842163,
		-2.3613996505737306],
		"max":[2.8548998832702638,
		2.164400100708008]
	},
	{
		"bufferView":2,
		"type":"SCALAR",
		"componentType":5123,
		"count":7356,
		"byteOffset":0,
		"min":[0],
		"max":[1955]
	},
	{
		"bufferView":3,
		"type":"VEC3",
		"componentType":5126,
		"count":1956,
		"byteOffset":0,
		"min":[-2.7043092250823976,
		-0.3943561017513275,
		-0.981584906578064],
		"max":[-2.4369282722473146,
		-0.2641889154911041,
		0.9792671203613281]
	},
	{
		"bufferView":3,
		"type":"VEC3",
		"componentType":5126,
		"count":1956,
		"byteOffset":12,
		"min":[-0.9950278997421265,
		-0.9999411702156067,
		-0.9999831914901733],
		"max":[0.06884538382291794,
		0.9998617768287659,
		0.9999854564666748]
	},
	{
		"bufferView":3,
		"type":"VEC2",
		"componentType":5126,
		"count":1956,
		"byteOffset":24,
		"min":[-230.58700561523438,
		14.374099731445313],
		"max":[231.58700561523438,
		231.58489990234376]
	},
	{
		"bufferView":4,
		"type":"SCALAR",
		"componentType":5123,
		"count":25734,
		"byteOffset":0,
		"min":[0],
		"max":[5514]
	},
	{
		"bufferView":5,
		"type":"VEC3",
		"componentType":5126,
		"count":5515,
		"byteOffset":0,
		"min":[-2.838529348373413,
		-0.393678218126297,
		-1.1321426630020142],
		"max":[-2.1892433166503908,
		-0.0157074723392725,
		1.1182959079742432]
	},
	{
		"bufferView":5,
		"type":"VEC3",
		"componentType":5126,
		"count":5515,
		"byteOffset":12,
		"min":[-0.9998911023139954,
		-1.0,
		-0.9999589323997498],
		"max":[0.9968534708023071,
		0.999916136264801,
		0.9999681115150452]
	},
	{
		"bufferView":5,
		"type":"VEC2",
		"componentType":5126,
		"count":5515,
		"byteOffset":24,
		"min":[-239.3719024658203,
		19.55030059814453],
		"max":[240.3719940185547,
		247.09390258789063]
	},
	{
		"bufferView":6,
		"type":"SCALAR",
		"componentType":5123,
		"count":9072,
		"byteOffset":0,
		"min":[0],
		"max":[4563]
	},
	{
		"bufferView":7,
		"type":"VEC3",
		"componentType":5126,
		"count":4564,
		"byteOffset":0,
		"min":[-2.5902609825134279,
		-0.3646456003189087,
		-0.965415894985199],
		"max":[-2.4492785930633547,
		-0.29220911860466006,
		0.9630838632583618]
	},
	{
		"bufferView":7,
		"type":"VEC3",
		"componentType":5126,
		"count":4564,
		"byteOffset":12,
		"min":[-0.9998953938484192,
		-0.9996026754379273,
		-0.9999445080757141],
		"max":[0.5274460315704346,
		0.9993013739585877,
		0.999966561794281]
	},
	{
		"bufferView":7,
		"type":"VEC2",
		"componentType":5126,
		"count":4564,
		"byteOffset":24,
		"min":[0.0,
		0.0],
		"max":[1.0,
		0.5095999240875244]
	},
	{
		"bufferView":8,
		"type":"SCALAR",
		"componentType":5123,
		"count":768,
		"byteOffset":0,
		"min":[0],
		"max":[335]
	},
	{
		"bufferView":9,
		"type":"VEC3",
		"componentType":5126,
		"count":336,
		"byteOffset":0,
		"min":[-2.5140161514282228,
		-0.34753096103668215,
		-0.9396719932556152],
		"max":[-2.4774084091186525,
		-0.3081871271133423,
		0.9370564818382263]
	},
	{
		"bufferView":9,
		"type":"VEC3",
		"componentType":5126,
		"count":336,
		"byteOffset":12,
		"min":[-0.9999988079071045,
		-0.9320743680000305,
		-0.9350517392158508],
		"max":[0.9999988079071045,
		0.9319078922271729,
		0.9355807900428772]
	},
	{
		"bufferView":9,
		"type":"VEC2",
		"componentType":5126,
		"count":336,
		"byteOffset":24,
		"min":[0.34380000829696658,
		0.0],
		"max":[0.6563000082969666,
		0.6187999248504639]
	},
	{
		"bufferView":10,
		"type":"SCALAR",
		"componentType":5123,
		"count":3552,
		"byteOffset":0,
		"min":[0],
		"max":[1269]
	},
	{
		"bufferView":11,
		"type":"VEC3",
		"componentType":5126,
		"count":1270,
		"byteOffset":0,
		"min":[-2.823179006576538,
		-0.6206540465354919,
		-0.9543064832687378],
		"max":[-2.606518507003784,
		-0.40537458658218386,
		0.9536761045455933]
	},
	{
		"bufferView":11,
		"type":"VEC2",
		"componentType":5126,
		"count":1270,
		"byteOffset":12,
		"min":[-0.8974000215530396,
		-1.2066998481750489],
		"max":[5.7596001625061039,
		1.2410998344421387]
	},
	{
		"bufferView":12,
		"type":"SCALAR",
		"componentType":5123,
		"count":62976,
		"byteOffset":0,
		"min":[0],
		"max":[10673]
	},
	{
		"bufferView":13,
		"type":"VEC3",
		"componentType":5126,
		"count":10674,
		"byteOffset":0,
		"min":[-0.9922981858253479,
		-0.09454528987407685,
		2.6808114051818849],
		"max":[0.9906809329986572,
		0.18673181533813477,
		2.932945489883423]
	},
	{
		"bufferView":13,
		"type":"VEC3",
		"componentType":5126,
		"count":10674,
		"byteOffset":12,
		"min":[-0.999889075756073,
		-0.9999986886978149,
		-0.15716059505939485],
		"max":[0.9998869299888611,
		0.991473913192749,
		0.998869001865387]
	},
	{
		"bufferView":14,
		"type":"SCALAR",
		"componentType":5123,
		"count":20004,
		"byteOffset":0,
		"min":[0],
		"max":[4481]
	},
	{
		"bufferView":15,
		"type":"VEC3",
		"componentType":5126,
		"count":4482,
		"byteOffset":0,
		"min":[-2.832102060317993,
		-0.7490872144699097,
		-1.1210249662399293],
		"max":[-2.3029375076293947,
		-0.3780153691768646,
		1.1122918128967286]
	},
	{
		"bufferView":15,
		"type":"VEC3",
		"componentType":5126,
		"count":4482,
		"byteOffset":12,
		"min":[-0.9999954700469971,
		-0.9998744130134583,
		-0.9994952082633972],
		"max":[0.9974995851516724,
		0.9623692035675049,
		0.999847948551178]
	},
	{
		"bufferView":15,
		"type":"VEC2",
		"componentType":5126,
		"count":4482,
		"byteOffset":24,
		"min":[-225.1284942626953,
		0.0],
		"max":[220.39300537109376,
		242.1907958984375]
	},
	{
		"bufferView":16,
		"type":"SCALAR",
		"componentType":5123,
		"count":11025,
		"byteOffset":0,
		"min":[0],
		"max":[2625]
	},
	{
		"bufferView":17,
		"type":"VEC3",
		"componentType":5126,
		"count":2626,
		"byteOffset":0,
		"min":[2.4209866523742677,
		-0.7055155038833618,
		-1.0541496276855469],
		"max":[2.914153814315796,
		-0.49690431356430056,
		1.0504212379455567]
	},
	{
		"bufferView":17,
		"type":"VEC3",
		"componentType":5126,
		"count":2626,
		"byteOffset":12,
		"min":[-0.9971104264259338,
		-0.9803255200386047,
		-0.9999884366989136],
		"max":[0.9971522688865662,
		0.8433400392532349,
		-0.07409731298685074]
	},
	{
		"bufferView":17,
		"type":"VEC2",
		"componentType":5126,
		"count":2626,
		"byteOffset":24,
		"min":[0.0,
		-227.07650756835938],
		"max":[80.12069702148438,
		1.0]
	},
	{
		"bufferView":18,
		"type":"SCALAR",
		"componentType":5123,
		"count":38910,
		"byteOffset":0,
		"min":[0],
		"max":[8000]
	},
	{
		"bufferView":19,
		"type":"VEC3",
		"componentType":5126,
		"count":8001,
		"byteOffset":0,
		"min":[1.906510353088379,
		-0.7278337478637695,
		-1.1350719928741456],
		"max":[2.9241464138031008,
		0.05823620408773422,
		1.132912039756775]
	},
	{
		"bufferView":19,
		"type":"VEC3",
		"componentType":5126,
		"count":8001,
		"byteOffset":12,
		"min":[-0.9999699592590332,
		-0.999936044216156,
		-0.99998939037323],
		"max":[0.9998054504394531,
		1.0,
		0.9974067807197571]
	},
	{
		"bufferView":19,
		"type":"VEC2",
		"componentType":5126,
		"count":8001,
		"byteOffset":24,
		"min":[-241.21629333496095,
		-246.14068603515626],
		"max":[242.21629333496095,
		78.42410278320313]
	}],
	"bufferViews":[{
		"buffer":0,
		"byteOffset":0,
		"byteLength":44580,
		"target":34963
	},
	{
		"buffer":0,
		"byteOffset":44580,
		"byteLength":222720,
		"target":34962,
		"byteStride":32
	},
	{
		"buffer":1,
		"byteOffset":0,
		"byteLength":14712,
		"target":34963
	},
	{
		"buffer":1,
		"byteOffset":14712,
		"byteLength":62592,
		"target":34962,
		"byteStride":32
	},
	{
		"buffer":2,
		"byteOffset":0,
		"byteLength":51468,
		"target":34963
	},
	{
		"buffer":2,
		"byteOffset":51468,
		"byteLength":176480,
		"target":34962,
		"byteStride":32
	},
	{
		"buffer":3,
		"byteOffset":0,
		"byteLength":18144,
		"target":34963
	},
	{
		"buffer":3,
		"byteOffset":18144,
		"byteLength":146048,
		"target":34962,
		"byteStride":32
	},
	{
		"buffer":4,
		"byteOffset":0,
		"byteLength":1536,
		"target":34963
	},
	{
		"buffer":4,
		"byteOffset":1536,
		"byteLength":10752,
		"target":34962,
		"byteStride":32
	},
	{
		"buffer":5,
		"byteOffset":0,
		"byteLength":7104,
		"target":34963
	},
	{
		"buffer":5,
		"byteOffset":7104,
		"byteLength":25400,
		"target":34962,
		"byteStride":20
	},
	{
		"buffer":6,
		"byteOffset":0,
		"byteLength":125952,
		"target":34963
	},
	{
		"buffer":6,
		"byteOffset":125952,
		"byteLength":256176,
		"target":34962,
		"byteStride":24
	},
	{
		"buffer":7,
		"byteOffset":0,
		"byteLength":40008,
		"target":34963
	},
	{
		"buffer":7,
		"byteOffset":40008,
		"byteLength":143424,
		"target":34962,
		"byteStride":32
	},
	{
		"buffer":8,
		"byteOffset":0,
		"byteLength":22050,
		"target":34963
	},
	{
		"buffer":8,
		"byteOffset":22052,
		"byteLength":84032,
		"target":34962,
		"byteStride":32
	},
	{
		"buffer":9,
		"byteOffset":0,
		"byteLength":77820,
		"target":34963
	},
	{
		"buffer":9,
		"byteOffset":77820,
		"byteLength":256032,
		"target":34962,
		"byteStride":32
	}],
	"buffers":[{
		"uri":"data:application/octet-stream;base64,",
		"byteLength":267300
	},
	{
		"uri":"data:application/octet-stream;base64,",
		"byteLength":77304
	},
	{
		"uri":"data:application/octet-stream;base64,",
		"byteLength":227948
	},
	{
		"uri":"data:application/octet-stream;base64,",
		"byteLength":164192
	},
	{
		"uri":"data:application/octet-stream;base64,",
		"byteLength":12288
	},
	{
		"uri":"data:application/octet-stream;base64,",
		"byteLength":32504
	},
	{
		"uri":"data:application/octet-stream;base64,",
		"byteLength":382128
	},
	{
		"uri":"data:application/octet-stream;base64,",
		"byteLength":183432
	},
	{
		"uri":"data:application/octet-stream;base64,",
		"byteLength":106084
	},
	{
		"uri":"data:application/octet-stream;base64,",
		"byteLength":333852
	}],
	"materials":[{
		"pbrMetallicRoughness":{
			"baseColorFactor":[0.8,
			0.8,
			0.8,
			1.0],
			"metallicFactor":1.0,
			"roughnessFactor":0.1
		},
		"emissiveFactor":[0.0,
		0.0,
		0.0],
		"alphaMode":"OPAQUE",
		"doubleSided":false,
		"name":"Mat.1"
	},
	{
		"pbrMetallicRoughness":{
			"baseColorFactor":[0.15,
			0.15,
			0.15,
			1.0],
			"metallicFactor":0.0,
			"roughnessFactor":0.47000000000000005
		},
		"emissiveFactor":[0.0,
		0.0,
		0.0],
		"alphaMode":"OPAQUE",
		"doubleSided":false,
		"name":"Mat"
	},
	{
		"pbrMetallicRoughness":{
			"baseColorFactor":[1.0,
			1.0,
			1.0,
			1.0],
			"metallicFactor":1.0,
			"roughnessFactor":1.0
		},
		"emissiveFactor":[0.0,
		0.0,
		0.0],
		"alphaMode":"OPAQUE",
		"doubleSided":false,
		"name":""
	},
	{
		"pbrMetallicRoughness":{
			"baseColorFactor":[1.0,
			1.0,
			1.0,
			1.0],
			"metallicFactor":1.0,
			"roughnessFactor":1.0
		},
		"emissiveFactor":[0.0,
		0.0,
		0.0],
		"alphaMode":"OPAQUE",
		"doubleSided":false,
		"name":""
	}]
}