{
	"asset":{
		"version":"2.0",
		"generator":"Maxon Cinema 4D 2023.2.0 (#200000219)"
	},
	"scenes":[{
		"nodes":[0]
	}],
	"nodes":[{
		"name":"сток.1",
		"children":[1]
	},
	{
		"name":"Null",
		"translation":[0.00428599352017045,
		-0.04697175323963165,
		-0.22037523984909059],
		"rotation":[0.0,
		0.0,
		0.0,
		-1.0],
		"scale":[1.0,
		1.0,
		1.0],
		"children":[2,
		3]
	},
	{
		"name":"Null",
		"children":[4]
	},
	{
		"name":"Null",
		"children":[5,
		6,
		7,
		8,
		9]
	},
	{
		"name":"¶ÔÏó015.1",
		"mesh":0
	},
	{
		"name":"¶ÔÏó042.1",
		"mesh":1
	},
	{
		"name":"polySurface627.1",
		"mesh":2
	},
	{
		"name":"¶ÔÏó004.1",
		"mesh":3
	},
	{
		"name":"ChamferBox002",
		"mesh":4
	},
	{
		"name":"¶ÔÏó043.1",
		"mesh":5
	}],
	"meshes":[{
		"name":"¶ÔÏó015.1",
		"primitives":[{
			"attributes":{
				"POSITION":1,
				"NORMAL":2
			},
			"indices":0,
			"material":0
		}]
	},
	{
		"name":"¶ÔÏó042.1",
		"primitives":[{
			"attributes":{
				"POSITION":4,
				"NORMAL":5
			},
			"indices":3,
			"material":0
		}]
	},
	{
		"name":"polySurface627.1",
		"primitives":[{
			"attributes":{
				"POSITION":7,
				"NORMAL":8
			},
			"indices":6,
			"material":1
		}]
	},
	{
		"name":"¶ÔÏó004.1",
		"primitives":[{
			"attributes":{
				"POSITION":10,
				"NORMAL":11
			},
			"indices":9,
			"material":2
		}]
	},
	{
		"name":"ChamferBox002",
		"primitives":[{
			"attributes":{
				"POSITION":13,
				"NORMAL":14
			},
			"indices":12,
			"material":3
		}]
	},
	{
		"name":"¶ÔÏó043.1",
		"primitives":[{
			"attributes":{
				"POSITION":16,
				"NORMAL":17
			},
			"indices":15,
			"material":2
		}]
	}],
	"accessors":[{
		"bufferView":0,
		"type":"SCALAR",
		"componentType":5123,
		"count":24972,
		"byteOffset":0,
		"min":[0],
		"max":[5277]
	},
	{
		"bufferView":1,
		"type":"VEC3",
		"componentType":5126,
		"count":5278,
		"byteOffset":0,
		"min":[-1.1344224214553834,
		0.4428578317165375,
		-2.6197850704193117],
		"max":[1.1258503198623658,
		1.1834338903427125,
		-1.5578384399414063]
	},
	{
		"bufferView":1,
		"type":"VEC3",
		"componentType":5126,
		"count":5278,
		"byteOffset":12,
		"min":[-0.9999792575836182,
		-1.0,
		-0.9992861151695252],
		"max":[0.9999792575836182,
		1.0,
		0.9930024743080139]
	},
	{
		"bufferView":2,
		"type":"SCALAR",
		"componentType":5123,
		"count":23352,
		"byteOffset":0,
		"min":[0],
		"max":[4682]
	},
	{
		"bufferView":3,
		"type":"VEC3",
		"componentType":5126,
		"count":4683,
		"byteOffset":0,
		"min":[-1.1286214590072632,
		0.4296467900276184,
		2.5652201175689699],
		"max":[1.1200493574142457,
		1.1349736452102662,
		3.2643725872039797]
	},
	{
		"bufferView":3,
		"type":"VEC3",
		"componentType":5126,
		"count":4683,
		"byteOffset":12,
		"min":[-0.9999969005584717,
		-1.0,
		-0.999432384967804],
		"max":[0.9999969005584717,
		1.0,
		0.999799370765686]
	},
	{
		"bufferView":4,
		"type":"SCALAR",
		"componentType":5123,
		"count":1872,
		"byteOffset":0,
		"min":[0],
		"max":[409]
	},
	{
		"bufferView":5,
		"type":"VEC3",
		"componentType":5126,
		"count":410,
		"byteOffset":0,
		"min":[-0.9569154977798462,
		0.7958651781082153,
		2.938950300216675],
		"max":[0.9483435153961182,
		0.8689469695091248,
		2.974484920501709]
	},
	{
		"bufferView":5,
		"type":"VEC3",
		"componentType":5126,
		"count":410,
		"byteOffset":12,
		"min":[-0.9041221737861633,
		-0.8248122930526733,
		0.4267009496688843],
		"max":[0.9040980339050293,
		0.8575292229652405,
		0.9970405697822571]
	},
	{
		"bufferView":6,
		"type":"SCALAR",
		"componentType":5123,
		"count":15552,
		"byteOffset":0,
		"min":[0],
		"max":[3416]
	},
	{
		"bufferView":7,
		"type":"VEC3",
		"componentType":5126,
		"count":3417,
		"byteOffset":0,
		"min":[-1.0037034749984742,
		0.7540515065193176,
		2.8951995372772219],
		"max":[0.9951313734054565,
		0.9012995958328247,
		3.0999419689178469]
	},
	{
		"bufferView":7,
		"type":"VEC3",
		"componentType":5126,
		"count":3417,
		"byteOffset":12,
		"min":[-0.9999730587005615,
		-1.0,
		-0.03487592563033104],
		"max":[0.9999730587005615,
		1.0,
		0.959276020526886]
	},
	{
		"bufferView":8,
		"type":"SCALAR",
		"componentType":5123,
		"count":2592,
		"byteOffset":0,
		"min":[0],
		"max":[495]
	},
	{
		"bufferView":9,
		"type":"VEC3",
		"componentType":5126,
		"count":496,
		"byteOffset":0,
		"min":[-0.2895980179309845,
		0.738574206829071,
		3.257249116897583],
		"max":[0.27382439374923708,
		0.9188693165779114,
		3.261756181716919]
	},
	{
		"bufferView":9,
		"type":"VEC3",
		"componentType":5126,
		"count":496,
		"byteOffset":12,
		"min":[-1.0,
		-1.0,
		-1.0],
		"max":[1.0,
		1.0,
		1.0]
	},
	{
		"bufferView":10,
		"type":"SCALAR",
		"componentType":5123,
		"count":46584,
		"byteOffset":0,
		"min":[0],
		"max":[11112]
	},
	{
		"bufferView":11,
		"type":"VEC3",
		"componentType":5126,
		"count":11113,
		"byteOffset":0,
		"min":[-1.0027302503585816,
		0.6697355508804321,
		2.8686087131500246],
		"max":[0.9941582679748535,
		0.8782218098640442,
		3.2200231552124025]
	},
	{
		"bufferView":11,
		"type":"VEC3",
		"componentType":5126,
		"count":11113,
		"byteOffset":12,
		"min":[-0.9999992847442627,
		-1.0,
		-0.9035393595695496],
		"max":[0.9999992847442627,
		1.0,
		0.9997045397758484]
	}],
	"bufferViews":[{
		"buffer":0,
		"byteOffset":0,
		"byteLength":49944,
		"target":34963
	},
	{
		"buffer":0,
		"byteOffset":49944,
		"byteLength":126672,
		"target":34962,
		"byteStride":24
	},
	{
		"buffer":1,
		"byteOffset":0,
		"byteLength":46704,
		"target":34963
	},
	{
		"buffer":1,
		"byteOffset":46704,
		"byteLength":112392,
		"target":34962,
		"byteStride":24
	},
	{
		"buffer":2,
		"byteOffset":0,
		"byteLength":3744,
		"target":34963
	},
	{
		"buffer":2,
		"byteOffset":3744,
		"byteLength":9840,
		"target":34962,
		"byteStride":24
	},
	{
		"buffer":3,
		"byteOffset":0,
		"byteLength":31104,
		"target":34963
	},
	{
		"buffer":3,
		"byteOffset":31104,
		"byteLength":82008,
		"target":34962,
		"byteStride":24
	},
	{
		"buffer":4,
		"byteOffset":0,
		"byteLength":5184,
		"target":34963
	},
	{
		"buffer":4,
		"byteOffset":5184,
		"byteLength":11904,
		"target":34962,
		"byteStride":24
	},
	{
		"buffer":5,
		"byteOffset":0,
		"byteLength":93168,
		"target":34963
	},
	{
		"buffer":5,
		"byteOffset":93168,
		"byteLength":266712,
		"target":34962,
		"byteStride":24
	}],
	"buffers":[{
		"uri":"data:application/octet-stream;base64,",
		"byteLength":176616
	},
	{
		"uri":"data:application/octet-stream;base64,",
		"byteLength":159096
	},
	{
		"uri":"data:application/octet-stream;base64,",
		"byteLength":13584
	},
	{
		"uri":"data:application/octet-stream;base64,",
		"byteLength":113112
	},
	{
		"uri":"data:application/octet-stream;base64,",
		"byteLength":17088
	},
	{
		"uri":"data:application/octet-stream;base64,",
		"byteLength":359880
	}],
	"materials":[{
		"pbrMetallicRoughness":{
			"baseColorFactor":[0.15,
			0.15,
			0.15,
			1.0],
			"metallicFactor":0.0,
			"roughnessFactor":0.47000000000000005
		},
		"emissiveFactor":[0.0,
		0.0,
		0.0],
		"alphaMode":"OPAQUE",
		"doubleSided":false,
		"name":"Mat"
	},
	{
		"pbrMetallicRoughness":{
			"baseColorFactor":[0.8,
			0.8,
			0.8,
			0.29000000000000006],
			"metallicFactor":0.0,
			"roughnessFactor":0.5
		},
		"emissiveFactor":[0.0,
		0.0,
		0.0],
		"alphaMode":"BLEND",
		"doubleSided":false,
		"name":"Mat"
	},
	{
		"pbrMetallicRoughness":{
			"baseColorFactor":[0.8,
			0.8,
			0.8,
			1.0],
			"metallicFactor":1.0,
			"roughnessFactor":0.1
		},
		"emissiveFactor":[0.0,
		0.0,
		0.0],
		"alphaMode":"OPAQUE",
		"doubleSided":false,
		"name":"Mat.1"
	},
	{
		"pbrMetallicRoughness":{
			"baseColorFactor":[1.0,
			1.0,
			1.0,
			1.0],
			"metallicFactor":0.0,
			"roughnessFactor":0.5
		},
		"emissiveFactor":[0.0,
		0.0,
		0.0],
		"alphaMode":"OPAQUE",
		"doubleSided":false,
		"name":"Default"
	}]
}