{
	"asset":{
		"version":"2.0",
		"generator":"Maxon Cinema 4D 2023.2.0 (#200000219)"
	},
	"scenes":[{
		"nodes":[0,
		1,
		2,
		3]
	}],
	"nodes":[{
		"name":"light",
		"mesh":0,
		"translation":[-1.3134336402097517e-16,
		1.1037929058074952,
		0.15082988142967225],
		"scale":[1.0,
		1.0,
		1.0],
		"rotation":[0.0,
		-0.7071067690849304,
		0.0,
		-0.7071067690849304]
	},
	{
		"name":"numberplate",
		"mesh":1,
		"translation":[-1.3134336402097517e-16,
		1.1037929058074952,
		0.15082988142967225],
		"scale":[1.0,
		1.0,
		1.0],
		"rotation":[0.0,
		-0.7071067690849304,
		0.0,
		-0.7071067690849304]
	},
	{
		"name":"chrome",
		"mesh":2,
		"translation":[-6.567168201048758e-17,
		0.809836745262146,
		0.07541494071483612],
		"scale":[1.0,
		1.0,
		1.0],
		"rotation":[0.0,
		0.0,
		0.0,
		-1.0]
	},
	{
		"name":"car",
		"mesh":3,
		"translation":[-9.850752963317628e-17,
		0.9568148255348206,
		0.11312241107225418],
		"scale":[1.0,
		1.0,
		1.0],
		"rotation":[0.0,
		0.0,
		0.0,
		-1.0]
	}],
	"meshes":[{
		"name":"light",
		"primitives":[{
			"attributes":{
				"POSITION":1,
				"NORMAL":2
			},
			"indices":0,
			"material":0
		}]
	},
	{
		"name":"numberplate",
		"primitives":[{
			"attributes":{
				"POSITION":4,
				"NORMAL":5
			},
			"indices":3,
			"material":1
		}]
	},
	{
		"name":"chrome",
		"primitives":[{
			"attributes":{
				"POSITION":7,
				"NORMAL":8
			},
			"indices":6,
			"material":2
		}]
	},
	{
		"name":"car",
		"primitives":[{
			"attributes":{
				"POSITION":10,
				"NORMAL":11
			},
			"indices":9,
			"material":3
		}]
	}],
	"accessors":[{
		"bufferView":0,
		"type":"SCALAR",
		"componentType":5123,
		"count":768,
		"byteOffset":0,
		"min":[0],
		"max":[331]
	},
	{
		"bufferView":1,
		"type":"VEC3",
		"componentType":5126,
		"count":332,
		"byteOffset":0,
		"min":[-2.5140161514282228,
		-0.34753096103668215,
		-0.9396719932556152],
		"max":[-2.4774084091186525,
		-0.3081871271133423,
		0.9370564818382263]
	},
	{
		"bufferView":1,
		"type":"VEC3",
		"componentType":5126,
		"count":332,
		"byteOffset":12,
		"min":[-0.9999988079071045,
		-0.9320743680000305,
		-0.9350517392158508],
		"max":[0.9999988079071045,
		0.9319078922271729,
		0.9355807900428772]
	},
	{
		"bufferView":2,
		"type":"SCALAR",
		"componentType":5123,
		"count":618,
		"byteOffset":0,
		"min":[0],
		"max":[230]
	},
	{
		"bufferView":3,
		"type":"VEC3",
		"componentType":5126,
		"count":231,
		"byteOffset":0,
		"min":[-2.865078926086426,
		-0.413127064704895,
		-0.3050028085708618],
		"max":[-2.8473942279815676,
		-0.22303763031959535,
		0.3040386140346527]
	},
	{
		"bufferView":3,
		"type":"VEC3",
		"componentType":5126,
		"count":231,
		"byteOffset":12,
		"min":[-0.9999111294746399,
		-0.9997977018356323,
		-0.9999567866325378],
		"max":[0.0807202085852623,
		0.9997931718826294,
		0.9999234080314636]
	},
	{
		"bufferView":4,
		"type":"SCALAR",
		"componentType":5123,
		"count":94317,
		"byteOffset":0,
		"min":[0],
		"max":[21090]
	},
	{
		"bufferView":5,
		"type":"VEC3",
		"componentType":5126,
		"count":21091,
		"byteOffset":0,
		"min":[-1.0541496276855469,
		-0.4115593731403351,
		-2.8387389183044435],
		"max":[1.0504212379455567,
		0.06953103095293045,
		2.9263763427734377]
	},
	{
		"bufferView":5,
		"type":"VEC3",
		"componentType":5126,
		"count":21091,
		"byteOffset":12,
		"min":[-0.9999831914901733,
		-1.0,
		-0.9999057650566101],
		"max":[0.9999854564666748,
		1.0,
		1.0]
	},
	{
		"bufferView":6,
		"type":"SCALAR",
		"componentType":5123,
		"count":105981,
		"byteOffset":0,
		"min":[0],
		"max":[22465]
	},
	{
		"bufferView":7,
		"type":"VEC3",
		"componentType":5126,
		"count":22466,
		"byteOffset":0,
		"min":[-1.1350719928741456,
		-0.6021091341972351,
		-2.886439085006714],
		"max":[1.132912039756775,
		0.205214262008667,
		2.8762366771698]
	},
	{
		"bufferView":7,
		"type":"VEC3",
		"componentType":5126,
		"count":22466,
		"byteOffset":12,
		"min":[-0.9999827146530151,
		-1.0,
		-0.9999998807907105],
		"max":[0.9999994039535523,
		1.0,
		1.0]
	}],
	"bufferViews":[{
		"buffer":0,
		"byteOffset":0,
		"byteLength":1536,
		"target":34963
	},
	{
		"buffer":0,
		"byteOffset":1536,
		"byteLength":7968,
		"target":34962,
		"byteStride":24
	},
	{
		"buffer":1,
		"byteOffset":0,
		"byteLength":1236,
		"target":34963
	},
	{
		"buffer":1,
		"byteOffset":1236,
		"byteLength":5544,
		"target":34962,
		"byteStride":24
	},
	{
		"buffer":2,
		"byteOffset":0,
		"byteLength":188634,
		"target":34963
	},
	{
		"buffer":2,
		"byteOffset":188636,
		"byteLength":506184,
		"target":34962,
		"byteStride":24
	},
	{
		"buffer":3,
		"byteOffset":0,
		"byteLength":211962,
		"target":34963
	},
	{
		"buffer":3,
		"byteOffset":211964,
		"byteLength":539184,
		"target":34962,
		"byteStride":24
	}],
	"buffers":[{
		"uri":"data:application/octet-stream;base64,",
		"byteLength":9504
	},
	{
		"uri":"data:application/octet-stream;base64,",
		"byteLength":6780
	},
	{
		"uri":"data:application/octet-stream;base64,",
		"byteLength":694820
	},
	{
		"uri":"data:application/octet-stream;base64,",
		"byteLength":751148
	}],
	"materials":[{
		"pbrMetallicRoughness":{
			"baseColorFactor":[1.0,
			1.0,
			1.0,
			1.0],
			"metallicFactor":0.0,
			"roughnessFactor":0.5
		},
		"name":"light",
		"emissiveFactor":[1.0,
		1.0,
		1.0],
		"alphaMode":"OPAQUE",
		"doubleSided":true
	},
	{
		"pbrMetallicRoughness":{
			"baseColorFactor":[1.0,
			1.0,
			1.0,
			1.0],
			"metallicFactor":0.0,
			"roughnessFactor":0.5
		},
		"name":"Default",
		"emissiveFactor":[0.0,
		0.0,
		0.0],
		"alphaMode":"OPAQUE",
		"doubleSided":true
	},
	{
		"pbrMetallicRoughness":{
			"baseColorFactor":[0.8,
			0.8,
			0.8,
			1.0],
			"metallicFactor":0.35000000000000006,
			"roughnessFactor":0.05
		},
		"name":"chrome",
		"emissiveFactor":[0.0,
		0.0,
		0.0],
		"alphaMode":"OPAQUE",
		"doubleSided":true
	},
	{
		"pbrMetallicRoughness":{
			"baseColorFactor":[0.0,
			0.0,
			0.0,
			1.0],
			"metallicFactor":1.0,
			"roughnessFactor":0.1
		},
		"name":"car",
		"emissiveFactor":[0.0,
		0.0,
		0.0],
		"alphaMode":"OPAQUE",
		"doubleSided":true
	}]
}