{
	"asset":{
		"version":"2.0",
		"generator":"Maxon Cinema 4D 2023.2.0 (#200000219)"
	},
	"scenes":[{
		"nodes":[0]
	}],
	"nodes":[{
		"name":"ТРД",
		"translation":[-1.3481410799212927e-16,
		1.1087795495986939,
		0.20751126110553742],
		"rotation":[0.0,
		0.0,
		0.0,
		-1.0],
		"scale":[1.0,
		1.0,
		1.0],
		"children":[1,
		2]
	},
	{
		"name":"black",
		"mesh":0
	},
	{
		"name":"chrome",
		"mesh":1
	}],
	"meshes":[{
		"name":"black",
		"primitives":[{
			"attributes":{
				"POSITION":1,
				"NORMAL":2
			},
			"indices":0,
			"material":0
		}]
	},
	{
		"name":"chrome",
		"primitives":[{
			"attributes":{
				"POSITION":4,
				"NORMAL":5
			},
			"indices":3,
			"material":1
		}]
	}],
	"accessors":[{
		"bufferView":0,
		"type":"SCALAR",
		"componentType":5123,
		"count":5478,
		"byteOffset":0,
		"min":[0],
		"max":[3111]
	},
	{
		"bufferView":1,
		"type":"VEC3",
		"componentType":5126,
		"count":3112,
		"byteOffset":0,
		"min":[-0.5686277151107788,
		-0.20978811383247376,
		2.507002592086792],
		"max":[0.563429594039917,
		0.15034866333007813,
		2.803579807281494]
	},
	{
		"bufferView":1,
		"type":"VEC3",
		"componentType":5126,
		"count":3112,
		"byteOffset":12,
		"min":[-0.9999955892562866,
		-0.9997594356536865,
		-0.9999951124191284],
		"max":[0.9999948740005493,
		0.9999996423721314,
		0.9999936819076538]
	},
	{
		"bufferView":2,
		"type":"SCALAR",
		"componentType":5123,
		"count":32460,
		"byteOffset":0,
		"min":[0],
		"max":[7571]
	},
	{
		"bufferView":3,
		"type":"VEC3",
		"componentType":5126,
		"count":7572,
		"byteOffset":0,
		"min":[-1.0074161291122437,
		-0.21351072192192079,
		2.3694303035736086],
		"max":[1.006249189376831,
		0.1831245869398117,
		2.7971248626708986]
	},
	{
		"bufferView":3,
		"type":"VEC3",
		"componentType":5126,
		"count":7572,
		"byteOffset":12,
		"min":[-0.999995231628418,
		-0.9999974966049194,
		-0.43806907534599306],
		"max":[0.9999885559082031,
		0.9999908208847046,
		0.9997583627700806]
	}],
	"bufferViews":[{
		"buffer":0,
		"byteOffset":0,
		"byteLength":10956,
		"target":34963
	},
	{
		"buffer":0,
		"byteOffset":10956,
		"byteLength":74688,
		"target":34962,
		"byteStride":24
	},
	{
		"buffer":1,
		"byteOffset":0,
		"byteLength":64920,
		"target":34963
	},
	{
		"buffer":1,
		"byteOffset":64920,
		"byteLength":181728,
		"target":34962,
		"byteStride":24
	}],
	"buffers":[{
		"uri":"data:application/octet-stream;base64,",
		"byteLength":85644
	},
	{
		"uri":"data:application/octet-stream;base64,",
		"byteLength":246648
	}],
	"materials":[{
		"pbrMetallicRoughness":{
			"baseColorFactor":[0.0,
			0.0,
			0.0,
			1.0],
			"metallicFactor":1.0,
			"roughnessFactor":0.1
		},
		"emissiveFactor":[0.0,
		0.0,
		0.0],
		"alphaMode":"OPAQUE",
		"doubleSided":true,
		"name":"car"
	},
	{
		"pbrMetallicRoughness":{
			"baseColorFactor":[0.8,
			0.8,
			0.8,
			1.0],
			"metallicFactor":0.35000000000000006,
			"roughnessFactor":0.05
		},
		"emissiveFactor":[0.0,
		0.0,
		0.0],
		"alphaMode":"OPAQUE",
		"doubleSided":true,
		"name":"chrome"
	}]
}