{
	"asset":{
		"version":"2.0",
		"generator":"Maxon Cinema 4D 2023.2.0 (#200000219)"
	},
	"scenes":[{
		"nodes":[0,
		1]
	}],
	"nodes":[{
		"mesh":0,
		"name":"ТРД",
		"translation":[-1.3481410799212927e-16,
		1.1087795495986939,
		0.20751126110553742],
		"rotation":[0.0,
		0.0,
		0.0,
		-1.0],
		"scale":[1.0,
		1.0,
		1.0]
	},
	{
		"mesh":1,
		"name":"LCVXR.Body_fullsize_body",
		"translation":[-8.461782215273493e-18,
		0.05141545832157135,
		0.33419299125671389],
		"rotation":[0.0,
		0.0,
		0.0,
		-1.0],
		"scale":[1.0,
		1.0,
		1.0]
	}],
	"meshes":[{
		"name":"ТРД",
		"primitives":[{
			"attributes":{
				"POSITION":1,
				"NORMAL":2
			},
			"indices":0,
			"material":0
		}]
	},
	{
		"name":"LCVXR.Body_fullsize_body",
		"primitives":[{
			"attributes":{
				"POSITION":4,
				"NORMAL":5
			},
			"indices":3,
			"material":1
		}]
	}],
	"accessors":[{
		"max":[9268],
		"bufferView":0,
		"type":"SCALAR",
		"componentType":5123,
		"count":37926,
		"byteOffset":0,
		"min":[0]
	},
	{
		"max":[1.006249189376831,
		0.1831245869398117,
		2.803579807281494],
		"bufferView":1,
		"type":"VEC3",
		"componentType":5126,
		"count":9269,
		"byteOffset":0,
		"min":[-1.0074161291122437,
		-0.21351072192192079,
		2.3694303035736086]
	},
	{
		"max":[0.9999948740005493,
		0.9999908208847046,
		0.9999936819076538],
		"bufferView":1,
		"type":"VEC3",
		"componentType":5126,
		"count":9269,
		"byteOffset":12,
		"min":[-0.9999955892562866,
		-0.9999974966049194,
		-0.9999951124191284]
	},
	{
		"max":[3],
		"bufferView":2,
		"type":"SCALAR",
		"componentType":5123,
		"count":6,
		"byteOffset":0,
		"min":[0]
	},
	{
		"max":[0.564043402671814,
		1.1886380910873414,
		2.446810245513916],
		"bufferView":3,
		"type":"VEC3",
		"componentType":5126,
		"count":4,
		"byteOffset":0,
		"min":[-0.57955402135849,
		0.8408259749412537,
		2.4467194080352785]
	},
	{
		"max":[0.0,
		0.00025000781170092523,
		1.0],
		"bufferView":3,
		"type":"VEC3",
		"componentType":5126,
		"count":4,
		"byteOffset":12,
		"min":[0.0,
		0.0002500000118743628,
		1.0]
	}],
	"bufferViews":[{
		"buffer":0,
		"byteOffset":0,
		"target":34963,
		"byteLength":75852
	},
	{
		"buffer":0,
		"byteOffset":75852,
		"target":34962,
		"byteLength":222456,
		"byteStride":24
	},
	{
		"buffer":1,
		"byteOffset":0,
		"target":34963,
		"byteLength":12
	},
	{
		"buffer":1,
		"byteOffset":12,
		"target":34962,
		"byteLength":96,
		"byteStride":24
	}],
	"buffers":[{
		"uri":"data:application/octet-stream;base64,",
		"byteLength":298308
	},
	{
		"uri":"data:application/octet-stream;base64,",
		"byteLength":108
	}],
	"materials":[{
		"pbrMetallicRoughness":{
			"baseColorFactor":[0.8,
			0.8,
			0.8,
			1.0],
			"metallicFactor":1.0,
			"roughnessFactor":0.1
		},
		"emissiveFactor":[0.0,
		0.0,
		0.0],
		"alphaMode":"OPAQUE",
		"doubleSided":true,
		"name":"chrome"
	},
	{
		"pbrMetallicRoughness":{
			"baseColorFactor":[0.0,
			0.0,
			0.0,
			1.0],
			"metallicFactor":0.0,
			"roughnessFactor":0.41000000000000005
		},
		"emissiveFactor":[0.0,
		0.0,
		0.0],
		"alphaMode":"OPAQUE",
		"doubleSided":true,
		"name":"black"
	}]
}