{
	"asset":{
		"version":"2.0",
		"generator":"Maxon Cinema 4D 2023.2.0 (#200000219)"
	},
	"scenes":[{
		"nodes":[0]
	}],
	"accessors":[{
		"bufferView":0,
		"type":"SCALAR",
		"componentType":5123,
		"count":1932,
		"byteOffset":0,
		"min":[0],
		"max":[827]
	},
	{
		"bufferView":1,
		"type":"VEC3",
		"componentType":5126,
		"count":828,
		"byteOffset":0,
		"min":[-0.4854143261909485,
		0.6421312093734741,
		2.9059855937957765],
		"max":[0.48545050621032717,
		0.7621526122093201,
		2.9627413749694826]
	},
	{
		"bufferView":1,
		"type":"VEC3",
		"componentType":5126,
		"count":828,
		"byteOffset":12,
		"min":[-0.9992502331733704,
		-0.44491830468177798,
		-0.999997615814209],
		"max":[0.9992453455924988,
		0.9993551969528198,
		0.9999978542327881]
	},
	{
		"bufferView":2,
		"type":"SCALAR",
		"componentType":5123,
		"count":3864,
		"byteOffset":0,
		"min":[0],
		"max":[1567]
	},
	{
		"bufferView":3,
		"type":"VEC3",
		"componentType":5126,
		"count":1568,
		"byteOffset":0,
		"min":[-0.49241092801094057,
		0.38315701484680178,
		2.911763906478882],
		"max":[0.49251747131347659,
		0.554654061794281,
		2.968761682510376]
	},
	{
		"bufferView":3,
		"type":"VEC3",
		"componentType":5126,
		"count":1568,
		"byteOffset":12,
		"min":[-0.9999939203262329,
		-0.9947051405906677,
		-0.9999380707740784],
		"max":[0.9999940395355225,
		0.9999996423721314,
		0.9999423623085022]
	},
	{
		"bufferView":4,
		"type":"SCALAR",
		"componentType":5123,
		"count":21396,
		"byteOffset":0,
		"min":[0],
		"max":[11571]
	},
	{
		"bufferView":5,
		"type":"VEC3",
		"componentType":5126,
		"count":11572,
		"byteOffset":0,
		"min":[-0.03878816217184067,
		0.014202281832695008,
		-0.667026162147522],
		"max":[0.0403209812939167,
		0.3274245262145996,
		0.32598820328712466]
	},
	{
		"bufferView":5,
		"type":"VEC3",
		"componentType":5126,
		"count":11572,
		"byteOffset":12,
		"min":[-1.0,
		-1.0,
		-1.0],
		"max":[1.0,
		1.0,
		0.9999997615814209]
	},
	{
		"bufferView":5,
		"type":"VEC2",
		"componentType":5126,
		"count":11572,
		"byteOffset":24,
		"min":[-0.20015335083007813,
		-0.3003283739089966],
		"max":[1.3003458976745606,
		1.300328254699707]
	},
	{
		"bufferView":6,
		"type":"SCALAR",
		"componentType":5123,
		"count":288,
		"byteOffset":0,
		"min":[0],
		"max":[131]
	},
	{
		"bufferView":7,
		"type":"VEC3",
		"componentType":5126,
		"count":132,
		"byteOffset":0,
		"min":[-2.819463014602661,
		-0.018877504393458368,
		-0.4763975739479065],
		"max":[-2.7216358184814455,
		0.048977840691804889,
		0.47654011845588686]
	},
	{
		"bufferView":7,
		"type":"VEC3",
		"componentType":5126,
		"count":132,
		"byteOffset":12,
		"min":[-0.9990625381469727,
		-0.30491337180137637,
		-0.9941127300262451],
		"max":[-0.04359486326575279,
		0.31038421392440798,
		0.9941481351852417]
	},
	{
		"bufferView":7,
		"type":"VEC2",
		"componentType":5126,
		"count":132,
		"byteOffset":24,
		"min":[-0.039659060537815097,
		-0.12233194708824158],
		"max":[1.0344158411026,
		1.3337554931640626]
	},
	{
		"bufferView":8,
		"type":"SCALAR",
		"componentType":5123,
		"count":5028,
		"byteOffset":0,
		"min":[0],
		"max":[2253]
	},
	{
		"bufferView":9,
		"type":"VEC3",
		"componentType":5126,
		"count":2254,
		"byteOffset":0,
		"min":[-2.8898916244506838,
		-0.08310787379741669,
		-0.5541284680366516],
		"max":[-2.7647671699523927,
		0.11318902671337128,
		0.5542129874229431]
	},
	{
		"bufferView":9,
		"type":"VEC3",
		"componentType":5126,
		"count":2254,
		"byteOffset":12,
		"min":[-0.998630702495575,
		-0.9999765157699585,
		-0.9986664056777954],
		"max":[0.0550314225256443,
		0.9999569058418274,
		0.9986779689788818]
	},
	{
		"bufferView":9,
		"type":"VEC2",
		"componentType":5126,
		"count":2254,
		"byteOffset":24,
		"min":[-137.6446990966797,
		-88.70500183105469],
		"max":[137.69000244140626,
		90.91839599609375]
	},
	{
		"bufferView":10,
		"type":"SCALAR",
		"componentType":5123,
		"count":6618,
		"byteOffset":0,
		"min":[0],
		"max":[2346]
	},
	{
		"bufferView":11,
		"type":"VEC3",
		"componentType":5126,
		"count":2347,
		"byteOffset":0,
		"min":[-2.8648805618286135,
		-0.21856969594955445,
		-0.6705054044723511],
		"max":[-2.6471781730651857,
		0.16005440056324006,
		0.6706629395484924]
	},
	{
		"bufferView":11,
		"type":"VEC3",
		"componentType":5126,
		"count":2347,
		"byteOffset":12,
		"min":[-0.9999854564666748,
		-0.9999980926513672,
		-1.0],
		"max":[0.9999342560768127,
		0.9999971389770508,
		1.0]
	},
	{
		"bufferView":11,
		"type":"VEC2",
		"componentType":5126,
		"count":2347,
		"byteOffset":24,
		"min":[-0.37470000982284548,
		-0.007000000216066837],
		"max":[1.358199954032898,
		1.2869999408721924]
	},
	{
		"bufferView":12,
		"type":"SCALAR",
		"componentType":5123,
		"count":14424,
		"byteOffset":0,
		"min":[0],
		"max":[8428]
	},
	{
		"bufferView":13,
		"type":"VEC3",
		"componentType":5126,
		"count":8429,
		"byteOffset":0,
		"min":[-2.838078498840332,
		-0.18316300213336945,
		-0.5476512312889099],
		"max":[-2.775296926498413,
		0.12387806177139282,
		0.5477902293205261]
	},
	{
		"bufferView":13,
		"type":"VEC3",
		"componentType":5126,
		"count":8429,
		"byteOffset":12,
		"min":[-0.9930406212806702,
		-0.9999969005584717,
		-0.9972119927406311],
		"max":[0.9843382835388184,
		0.9999980926513672,
		0.997184693813324]
	},
	{
		"bufferView":13,
		"type":"VEC2",
		"componentType":5126,
		"count":8429,
		"byteOffset":24,
		"min":[-0.9488257765769959,
		-0.07595133781433106],
		"max":[2.8729681968688967,
		1.9686636924743653]
	},
	{
		"bufferView":14,
		"type":"SCALAR",
		"componentType":5123,
		"count":528,
		"byteOffset":0,
		"min":[0],
		"max":[137]
	},
	{
		"bufferView":15,
		"type":"VEC3",
		"componentType":5126,
		"count":138,
		"byteOffset":0,
		"min":[-2.880889415740967,
		-0.06280969083309174,
		-0.1060509905219078],
		"max":[-2.845921039581299,
		0.08480376750230789,
		0.10605956614017487]
	},
	{
		"bufferView":15,
		"type":"VEC3",
		"componentType":5126,
		"count":138,
		"byteOffset":12,
		"min":[-0.9998506903648377,
		-0.9986903667449951,
		-0.9957979917526245],
		"max":[0.9998545050621033,
		0.9070576429367065,
		0.9967944025993347]
	},
	{
		"bufferView":15,
		"type":"VEC2",
		"componentType":5126,
		"count":138,
		"byteOffset":24,
		"min":[1.0,
		0.958299994468689],
		"max":[1.0,
		0.9598000049591065]
	},
	{
		"bufferView":16,
		"type":"SCALAR",
		"componentType":5123,
		"count":31110,
		"byteOffset":0,
		"min":[0],
		"max":[7873]
	},
	{
		"bufferView":17,
		"type":"VEC3",
		"componentType":5126,
		"count":7874,
		"byteOffset":0,
		"min":[-2.886662721633911,
		-0.21449854969978333,
		-1.0239486694335938],
		"max":[-2.445496082305908,
		0.18480490148067475,
		1.0240157842636109]
	},
	{
		"bufferView":17,
		"type":"VEC3",
		"componentType":5126,
		"count":7874,
		"byteOffset":12,
		"min":[-0.9999737739562988,
		-0.9999933242797852,
		-0.9999564290046692],
		"max":[0.3938212990760803,
		0.9999927282333374,
		0.9999470114707947]
	},
	{
		"bufferView":17,
		"type":"VEC2",
		"componentType":5126,
		"count":7874,
		"byteOffset":24,
		"min":[-242.82040405273438,
		-23.94289779663086],
		"max":[243.82040405273438,
		243.84539794921876]
	}],
	"nodes":[{
		"name":"2021",
		"translation":[-1.8987181866392023e-16,
		0.0,
		7.105427198782324e-17],
		"rotation":[0.0,
		-0.7071067690849304,
		0.0,
		-0.7071067690849304],
		"scale":[1.0,
		1.0,
		1.0],
		"children":[1,
		2,
		3,
		4,
		5,
		6,
		7,
		8,
		9]
	},
	{
		"name":"Polygon",
		"translation":[0.0202938299626112,
		0.5158806443214417,
		1.8099002970235865e-16],
		"rotation":[0.0,
		-0.7071067690849304,
		0.0,
		0.7071067690849304],
		"scale":[1.0,
		1.0,
		1.0],
		"children":[10]
	},
	{
		"name":"Polygon.7",
		"translation":[0.0202938299626112,
		0.5158806443214417,
		1.8099002970235865e-16],
		"rotation":[0.0,
		-0.7071067690849304,
		0.0,
		0.7071067690849304],
		"scale":[1.0,
		1.0,
		1.0],
		"children":[11]
	},
	{
		"name":"Cube.6",
		"translation":[-2.9247920513153078,
		0.9099262952804565,
		0.17057062685489655],
		"rotation":[0.0,
		0.0,
		0.0,
		-1.0],
		"scale":[1.0,
		1.0,
		1.0],
		"children":[12]
	},
	{
		"name":"LC200_BlackPlastic_1",
		"translation":[-0.11423348635435105,
		1.1099263429641724,
		6.776411808800172e-17],
		"rotation":[0.0,
		0.0,
		0.0,
		-1.0],
		"scale":[1.0,
		1.0,
		1.0],
		"children":[13]
	},
	{
		"name":"LC200_SilverPaint_1.1",
		"translation":[-0.11423348635435105,
		1.1099263429641724,
		6.776411808800172e-17],
		"rotation":[0.0,
		0.0,
		0.0,
		-1.0],
		"scale":[1.0,
		1.0,
		1.0],
		"children":[14]
	},
	{
		"name":"LC200_BlackPlastic_1.1",
		"translation":[-0.11423348635435105,
		1.1099263429641724,
		6.776411808800172e-17],
		"rotation":[0.0,
		0.0,
		0.0,
		-1.0],
		"scale":[1.0,
		1.0,
		1.0],
		"children":[15]
	},
	{
		"name":"LC200_BlackPlastic_1.3",
		"translation":[-0.11423348635435105,
		1.1099263429641724,
		6.776411808800172e-17],
		"rotation":[0.0,
		0.0,
		0.0,
		-1.0],
		"scale":[1.0,
		1.0,
		1.0],
		"children":[16]
	},
	{
		"name":"LC200_CarGlass_Clear_1.1",
		"translation":[-0.11423348635435105,
		1.1099263429641724,
		6.776411808800172e-17],
		"rotation":[0.0,
		0.0,
		0.0,
		-1.0],
		"scale":[1.0,
		1.0,
		1.0],
		"children":[17]
	},
	{
		"name":"LC200_chrome_1_1.1",
		"translation":[-0.11423348635435105,
		1.1099263429641724,
		6.776411808800172e-17],
		"rotation":[0.0,
		0.0,
		0.0,
		-1.0],
		"scale":[1.0,
		1.0,
		1.0],
		"children":[18]
	},
	{
		"name":"Polygon",
		"mesh":0
	},
	{
		"name":"Polygon.7",
		"mesh":1
	},
	{
		"name":"Cube.6",
		"mesh":2
	},
	{
		"name":"LC200_BlackPlastic_1",
		"mesh":3
	},
	{
		"name":"LC200_SilverPaint_1.1",
		"mesh":4
	},
	{
		"name":"LC200_BlackPlastic_1.1",
		"mesh":5
	},
	{
		"name":"LC200_BlackPlastic_1.3",
		"mesh":6
	},
	{
		"name":"LC200_CarGlass_Clear_1.1",
		"mesh":7
	},
	{
		"name":"LC200_chrome_1_1.1",
		"mesh":8
	}],
	"meshes":[{
		"name":"Polygon",
		"primitives":[{
			"attributes":{
				"POSITION":1,
				"NORMAL":2
			},
			"indices":0,
			"material":0
		}]
	},
	{
		"name":"Polygon.7",
		"primitives":[{
			"attributes":{
				"POSITION":4,
				"NORMAL":5
			},
			"indices":3,
			"material":0
		}]
	},
	{
		"name":"Cube.6",
		"primitives":[{
			"attributes":{
				"POSITION":7,
				"NORMAL":8,
				"TEXCOORD_0":9
			},
			"indices":6,
			"material":0
		}]
	},
	{
		"name":"LC200_BlackPlastic_1",
		"primitives":[{
			"attributes":{
				"POSITION":11,
				"NORMAL":12,
				"TEXCOORD_0":13
			},
			"indices":10,
			"material":0
		}]
	},
	{
		"name":"LC200_SilverPaint_1.1",
		"primitives":[{
			"attributes":{
				"POSITION":15,
				"NORMAL":16,
				"TEXCOORD_0":17
			},
			"indices":14,
			"material":0
		}]
	},
	{
		"name":"LC200_BlackPlastic_1.1",
		"primitives":[{
			"attributes":{
				"POSITION":19,
				"NORMAL":20,
				"TEXCOORD_0":21
			},
			"indices":18,
			"material":0
		}]
	},
	{
		"name":"LC200_BlackPlastic_1.3",
		"primitives":[{
			"attributes":{
				"POSITION":23,
				"NORMAL":24,
				"TEXCOORD_0":25
			},
			"indices":22,
			"material":0
		}]
	},
	{
		"name":"LC200_CarGlass_Clear_1.1",
		"primitives":[{
			"attributes":{
				"POSITION":27,
				"NORMAL":28,
				"TEXCOORD_0":29
			},
			"indices":26,
			"material":0
		}]
	},
	{
		"name":"LC200_chrome_1_1.1",
		"primitives":[{
			"attributes":{
				"POSITION":31,
				"NORMAL":32,
				"TEXCOORD_0":33
			},
			"indices":30,
			"material":0
		}]
	}],
	"bufferViews":[{
		"buffer":0,
		"byteOffset":0,
		"target":34963,
		"byteLength":3864
	},
	{
		"buffer":0,
		"byteOffset":3864,
		"target":34962,
		"byteLength":19872,
		"byteStride":24
	},
	{
		"buffer":1,
		"byteOffset":0,
		"target":34963,
		"byteLength":7728
	},
	{
		"buffer":1,
		"byteOffset":7728,
		"target":34962,
		"byteLength":37632,
		"byteStride":24
	},
	{
		"buffer":2,
		"byteOffset":0,
		"target":34963,
		"byteLength":42792
	},
	{
		"buffer":2,
		"byteOffset":42792,
		"target":34962,
		"byteLength":370304,
		"byteStride":32
	},
	{
		"buffer":3,
		"byteOffset":0,
		"target":34963,
		"byteLength":576
	},
	{
		"buffer":3,
		"byteOffset":576,
		"target":34962,
		"byteLength":4224,
		"byteStride":32
	},
	{
		"buffer":4,
		"byteOffset":0,
		"target":34963,
		"byteLength":10056
	},
	{
		"buffer":4,
		"byteOffset":10056,
		"target":34962,
		"byteLength":72128,
		"byteStride":32
	},
	{
		"buffer":5,
		"byteOffset":0,
		"target":34963,
		"byteLength":13236
	},
	{
		"buffer":5,
		"byteOffset":13236,
		"target":34962,
		"byteLength":75104,
		"byteStride":32
	},
	{
		"buffer":6,
		"byteOffset":0,
		"target":34963,
		"byteLength":28848
	},
	{
		"buffer":6,
		"byteOffset":28848,
		"target":34962,
		"byteLength":269728,
		"byteStride":32
	},
	{
		"buffer":7,
		"byteOffset":0,
		"target":34963,
		"byteLength":1056
	},
	{
		"buffer":7,
		"byteOffset":1056,
		"target":34962,
		"byteLength":4416,
		"byteStride":32
	},
	{
		"buffer":8,
		"byteOffset":0,
		"target":34963,
		"byteLength":62220
	},
	{
		"buffer":8,
		"byteOffset":62220,
		"target":34962,
		"byteLength":251968,
		"byteStride":32
	}],
	"buffers":[{
		"uri":"data:application/octet-stream;base64,",
		"byteLength":23736
	},
	{
		"uri":"data:application/octet-stream;base64,",
		"byteLength":45360
	},
	{
		"uri":"data:application/octet-stream;base64,",
		"byteLength":413096
	},
	{
		"uri":"data:application/octet-stream;base64,",
		"byteLength":4800
	},
	{
		"uri":"data:application/octet-stream;base64,",
		"byteLength":82184
	},
	{
		"uri":"data:application/octet-stream;base64,",
		"byteLength":88340
	},
	{
		"uri":"data:application/octet-stream;base64,",
		"byteLength":298576
	},
	{
		"uri":"data:application/octet-stream;base64,",
		"byteLength":5472
	},
	{
		"uri":"data:application/octet-stream;base64,",
		"byteLength":314188
	}],
	"materials":[{
		"pbrMetallicRoughness":{
			"baseColorFactor":[0.8,
			0.8,
			0.8,
			1.0],
			"metallicFactor":1.0,
			"roughnessFactor":0.1
		},
		"emissiveFactor":[0.0,
		0.0,
		0.0],
		"alphaMode":"OPAQUE",
		"name":"Mat.1",
		"doubleSided":false
	}]
}