{
	"asset":{
		"version":"2.0",
		"generator":"Maxon Cinema 4D 2023.2.0 (#200000219)"
	},
	"scenes":[{
		"nodes":[0]
	}],
	"accessors":[{
		"bufferView":0,
		"type":"SCALAR",
		"componentType":5123,
		"count":18,
		"byteOffset":0,
		"min":[0],
		"max":[11]
	},
	{
		"bufferView":1,
		"type":"VEC3",
		"componentType":5126,
		"count":12,
		"byteOffset":0,
		"min":[-0.5686277151107788,
		0.8606717586517334,
		2.3803207874298097],
		"max":[0.563429594039917,
		1.205634593963623,
		2.514497995376587]
	},
	{
		"bufferView":1,
		"type":"VEC3",
		"componentType":5126,
		"count":12,
		"byteOffset":12,
		"min":[0.0002500017290003598,
		0.022000165656208993,
		-0.02331305854022503],
		"max":[0.9997575283050537,
		0.9999996423721314,
		0.9934332370758057]
	},
	{
		"bufferView":1,
		"type":"VEC2",
		"componentType":5126,
		"count":12,
		"byteOffset":24,
		"min":[1.0,
		0.0],
		"max":[1.0,
		1.0]
	},
	{
		"bufferView":2,
		"type":"SCALAR",
		"componentType":5123,
		"count":144,
		"byteOffset":0,
		"min":[0],
		"max":[90]
	},
	{
		"bufferView":3,
		"type":"VEC3",
		"componentType":5126,
		"count":91,
		"byteOffset":0,
		"min":[-0.546145498752594,
		0.5156052112579346,
		2.807297706604004],
		"max":[0.5456767082214356,
		0.654851496219635,
		2.865201234817505]
	},
	{
		"bufferView":3,
		"type":"VEC3",
		"componentType":5126,
		"count":91,
		"byteOffset":12,
		"min":[-0.9208093285560608,
		-0.9143490195274353,
		-0.9485507011413574],
		"max":[0.9209948182106018,
		0.89312344789505,
		0.9396451711654663]
	},
	{
		"bufferView":4,
		"type":"SCALAR",
		"componentType":5123,
		"count":624,
		"byteOffset":0,
		"min":[0],
		"max":[393]
	},
	{
		"bufferView":5,
		"type":"VEC3",
		"componentType":5126,
		"count":394,
		"byteOffset":0,
		"min":[-0.5580454468727112,
		0.36188703775405886,
		2.7947843074798586],
		"max":[0.557893693447113,
		0.7090331315994263,
		2.87511944770813]
	},
	{
		"bufferView":5,
		"type":"VEC3",
		"componentType":5126,
		"count":394,
		"byteOffset":12,
		"min":[-0.9806423783302307,
		-0.9997594356536865,
		-0.9998729825019836],
		"max":[0.9813200235366821,
		0.9984258413314819,
		0.9999014735221863]
	},
	{
		"bufferView":6,
		"type":"SCALAR",
		"componentType":5123,
		"count":624,
		"byteOffset":0,
		"min":[0],
		"max":[393]
	},
	{
		"bufferView":7,
		"type":"VEC3",
		"componentType":5126,
		"count":394,
		"byteOffset":0,
		"min":[-0.5297369956970215,
		0.35669317841529848,
		2.8033759593963625],
		"max":[0.5296409130096436,
		0.7107185125350952,
		2.8885679244995119]
	},
	{
		"bufferView":7,
		"type":"VEC3",
		"componentType":5126,
		"count":394,
		"byteOffset":12,
		"min":[-0.9935498237609863,
		-0.996451735496521,
		-0.9999854564666748],
		"max":[0.9937298893928528,
		0.9998763203620911,
		0.9998595118522644]
	},
	{
		"bufferView":8,
		"type":"SCALAR",
		"componentType":5123,
		"count":624,
		"byteOffset":0,
		"min":[0],
		"max":[393]
	},
	{
		"bufferView":9,
		"type":"VEC3",
		"componentType":5126,
		"count":394,
		"byteOffset":0,
		"min":[-0.4848341941833496,
		0.36116310954093935,
		2.8014323711395265],
		"max":[0.4847773611545563,
		0.7123823165893555,
		2.8945868015289308]
	},
	{
		"bufferView":9,
		"type":"VEC3",
		"componentType":5126,
		"count":394,
		"byteOffset":12,
		"min":[-0.9999955892562866,
		-0.9996795058250427,
		-0.9999951124191284],
		"max":[0.9999948740005493,
		0.9987330436706543,
		0.9999786615371704]
	},
	{
		"bufferView":10,
		"type":"SCALAR",
		"componentType":5123,
		"count":624,
		"byteOffset":0,
		"min":[0],
		"max":[393]
	},
	{
		"bufferView":11,
		"type":"VEC3",
		"componentType":5126,
		"count":394,
		"byteOffset":0,
		"min":[-0.4067457616329193,
		0.35802727937698367,
		2.808483123779297],
		"max":[0.4066932797431946,
		0.7137364745140076,
		2.9010047912597658]
	},
	{
		"bufferView":11,
		"type":"VEC3",
		"componentType":5126,
		"count":394,
		"byteOffset":12,
		"min":[-0.9376936554908752,
		-0.9540988802909851,
		-0.999733030796051],
		"max":[0.9387849569320679,
		0.9984042644500732,
		0.9999936819076538]
	},
	{
		"bufferView":12,
		"type":"SCALAR",
		"componentType":5123,
		"count":336,
		"byteOffset":0,
		"min":[0],
		"max":[202]
	},
	{
		"bufferView":13,
		"type":"VEC3",
		"componentType":5126,
		"count":203,
		"byteOffset":0,
		"min":[-0.31711506843566897,
		0.36344513297080996,
		2.823617935180664],
		"max":[0.3170739412307739,
		0.7159202694892883,
		2.9099488258361818]
	},
	{
		"bufferView":13,
		"type":"VEC3",
		"componentType":5126,
		"count":203,
		"byteOffset":12,
		"min":[-0.983009934425354,
		-0.9610155820846558,
		-0.998397707939148],
		"max":[0.9826958179473877,
		0.9940425157546997,
		0.9976634979248047]
	},
	{
		"bufferView":14,
		"type":"SCALAR",
		"componentType":5123,
		"count":360,
		"byteOffset":0,
		"min":[0],
		"max":[242]
	},
	{
		"bufferView":15,
		"type":"VEC3",
		"componentType":5126,
		"count":243,
		"byteOffset":0,
		"min":[-0.09178261458873749,
		0.36327946186065676,
		2.8261282444000246],
		"max":[0.0916278064250946,
		0.7147418260574341,
		2.9033143520355226]
	},
	{
		"bufferView":15,
		"type":"VEC3",
		"componentType":5126,
		"count":243,
		"byteOffset":12,
		"min":[-0.9998311996459961,
		-0.9970545768737793,
		-0.9991339445114136],
		"max":[0.9998587965965271,
		0.9962350130081177,
		0.999146580696106]
	},
	{
		"bufferView":16,
		"type":"SCALAR",
		"componentType":5123,
		"count":216,
		"byteOffset":0,
		"min":[0],
		"max":[142]
	},
	{
		"bufferView":17,
		"type":"VEC3",
		"componentType":5126,
		"count":143,
		"byteOffset":0,
		"min":[-0.11371129751205445,
		0.35578346252441409,
		2.832799196243286],
		"max":[0.1129087284207344,
		0.4931809902191162,
		2.9009296894073488]
	},
	{
		"bufferView":17,
		"type":"VEC3",
		"componentType":5126,
		"count":143,
		"byteOffset":12,
		"min":[-0.9428712725639343,
		-0.945466935634613,
		-0.9903003573417664],
		"max":[0.9451593160629273,
		0.9377946853637695,
		0.9907853603363037]
	},
	{
		"bufferView":18,
		"type":"SCALAR",
		"componentType":5123,
		"count":792,
		"byteOffset":0,
		"min":[0],
		"max":[513]
	},
	{
		"bufferView":19,
		"type":"VEC3",
		"componentType":5126,
		"count":514,
		"byteOffset":0,
		"min":[-0.5489165186882019,
		0.36170732975006106,
		2.838716745376587],
		"max":[0.5486590266227722,
		0.562936007976532,
		2.912442922592163]
	},
	{
		"bufferView":19,
		"type":"VEC3",
		"componentType":5126,
		"count":514,
		"byteOffset":12,
		"min":[-0.9994089007377625,
		-0.9995927810668945,
		-0.9975095391273499],
		"max":[0.9994949698448181,
		0.999569296836853,
		0.989820659160614]
	},
	{
		"bufferView":20,
		"type":"SCALAR",
		"componentType":5123,
		"count":5202,
		"byteOffset":0,
		"min":[0],
		"max":[1924]
	},
	{
		"bufferView":21,
		"type":"VEC3",
		"componentType":5126,
		"count":1925,
		"byteOffset":0,
		"min":[-2.779048204421997,
		-0.21163910627365113,
		-0.6680453419685364],
		"max":[-2.5498759746551515,
		0.1578020304441452,
		0.6674004793167114]
	},
	{
		"bufferView":21,
		"type":"VEC3",
		"componentType":5126,
		"count":1925,
		"byteOffset":12,
		"min":[-0.9990642666816711,
		-0.9999974966049194,
		-0.9999675154685974],
		"max":[0.006718987133353949,
		0.9999905824661255,
		0.9999885559082031]
	},
	{
		"bufferView":21,
		"type":"VEC2",
		"componentType":5126,
		"count":1925,
		"byteOffset":24,
		"min":[-0.37470000982284548,
		-0.007000000216066837],
		"max":[1.358199954032898,
		1.2869999408721924]
	},
	{
		"bufferView":22,
		"type":"SCALAR",
		"componentType":5123,
		"count":108,
		"byteOffset":0,
		"min":[0],
		"max":[24]
	},
	{
		"bufferView":23,
		"type":"VEC3",
		"componentType":5126,
		"count":25,
		"byteOffset":0,
		"min":[-2.795687437057495,
		-0.07037874311208725,
		-0.11384111642837525],
		"max":[-2.7489006519317629,
		0.08829378336668015,
		0.11380079388618469]
	},
	{
		"bufferView":23,
		"type":"VEC3",
		"componentType":5126,
		"count":25,
		"byteOffset":12,
		"min":[-0.9953002333641052,
		0.09593933075666428,
		-0.14106467366218568],
		"max":[-0.9040176868438721,
		0.42735210061073305,
		0.1410348117351532]
	},
	{
		"bufferView":23,
		"type":"VEC2",
		"componentType":5126,
		"count":25,
		"byteOffset":24,
		"min":[0.34380000829696658,
		0.0],
		"max":[0.6563000082969666,
		0.3125]
	},
	{
		"bufferView":24,
		"type":"SCALAR",
		"componentType":5123,
		"count":27264,
		"byteOffset":0,
		"min":[0],
		"max":[6802]
	},
	{
		"bufferView":25,
		"type":"VEC3",
		"componentType":5126,
		"count":6803,
		"byteOffset":0,
		"min":[-2.7971248626708986,
		-0.21351072192192079,
		-1.0074161291122437],
		"max":[-2.3694303035736086,
		0.1831245869398117,
		1.006249189376831]
	},
	{
		"bufferView":25,
		"type":"VEC3",
		"componentType":5126,
		"count":6803,
		"byteOffset":12,
		"min":[-0.9997583627700806,
		-0.9999918937683106,
		-0.999995231628418],
		"max":[0.43806907534599306,
		0.9999908208847046,
		0.9998809695243836]
	},
	{
		"bufferView":25,
		"type":"VEC2",
		"componentType":5126,
		"count":6803,
		"byteOffset":24,
		"min":[-242.82040405273438,
		-23.94289779663086],
		"max":[243.82040405273438,
		243.84539794921876]
	},
	{
		"bufferView":26,
		"type":"SCALAR",
		"componentType":5123,
		"count":1008,
		"byteOffset":0,
		"min":[0],
		"max":[603]
	},
	{
		"bufferView":27,
		"type":"VEC3",
		"componentType":5126,
		"count":604,
		"byteOffset":0,
		"min":[-2.803579807281494,
		-0.0854019746184349,
		-0.13063885271549226],
		"max":[-2.7049505710601808,
		0.11017895489931107,
		0.13053344190120698]
	},
	{
		"bufferView":27,
		"type":"VEC3",
		"componentType":5126,
		"count":604,
		"byteOffset":12,
		"min":[-0.9981171488761902,
		-0.9994388222694397,
		-0.9985958933830261],
		"max":[0.049375489354133609,
		0.9996130466461182,
		0.9984303712844849]
	},
	{
		"bufferView":27,
		"type":"VEC2",
		"componentType":5126,
		"count":604,
		"byteOffset":24,
		"min":[-137.6446990966797,
		-88.70500183105469],
		"max":[137.69000244140626,
		90.91839599609375]
	}],
	"nodes":[{
		"name":"ТРД",
		"translation":[-1.3481410799212927e-16,
		0.0,
		0.0],
		"rotation":[0.0,
		-0.7071067690849304,
		0.0,
		-0.7071067690849304],
		"scale":[1.0,
		1.0,
		1.0],
		"children":[1,
		2,
		3,
		4,
		5,
		6,
		7,
		8,
		9,
		10,
		11,
		12,
		13,
		14]
	},
	{
		"name":"LCVXR.Body_fullsize_body",
		"translation":[-0.33419299125671389,
		0.05141545832157135,
		1.4681574429155505e-16],
		"rotation":[0.0,
		-0.7071067690849304,
		0.0,
		0.7071067690849304],
		"scale":[1.0,
		1.0,
		1.0],
		"children":[15]
	},
	{
		"name":"Polygon.7",
		"translation":[-0.06241292133927345,
		0.5432079434394836,
		1.30174008567511e-16],
		"rotation":[0.0,
		-0.7071067690849304,
		0.0,
		0.7071067690849304],
		"scale":[1.0,
		1.0,
		1.0],
		"children":[16]
	},
	{
		"name":"Polygon.4",
		"translation":[-0.06241292133927345,
		0.5432079434394836,
		1.30174008567511e-16],
		"rotation":[0.0,
		-0.7071067690849304,
		0.0,
		0.7071067690849304],
		"scale":[1.0,
		1.0,
		1.0],
		"children":[17]
	},
	{
		"name":"Polygon.3",
		"translation":[-0.06241292133927345,
		0.5432079434394836,
		1.30174008567511e-16],
		"rotation":[0.0,
		-0.7071067690849304,
		0.0,
		0.7071067690849304],
		"scale":[1.0,
		1.0,
		1.0],
		"children":[18]
	},
	{
		"name":"Polygon.2",
		"translation":[-0.06241292133927345,
		0.5432079434394836,
		1.30174008567511e-16],
		"rotation":[0.0,
		-0.7071067690849304,
		0.0,
		0.7071067690849304],
		"scale":[1.0,
		1.0,
		1.0],
		"children":[19]
	},
	{
		"name":"Polygon.1",
		"translation":[-0.06241292133927345,
		0.5432079434394836,
		1.30174008567511e-16],
		"rotation":[0.0,
		-0.7071067690849304,
		0.0,
		0.7071067690849304],
		"scale":[1.0,
		1.0,
		1.0],
		"children":[20]
	},
	{
		"name":"Polygon.5",
		"translation":[-0.06241292133927345,
		0.5432079434394836,
		1.30174008567511e-16],
		"rotation":[0.0,
		-0.7071067690849304,
		0.0,
		0.7071067690849304],
		"scale":[1.0,
		1.0,
		1.0],
		"children":[21]
	},
	{
		"name":"Polygon.6",
		"translation":[-0.06241292133927345,
		0.5432079434394836,
		1.30174008567511e-16],
		"rotation":[0.0,
		-0.7071067690849304,
		0.0,
		0.7071067690849304],
		"scale":[1.0,
		1.0,
		1.0],
		"children":[22]
	},
	{
		"name":"Polygon.8",
		"translation":[-0.06241292133927345,
		0.5432079434394836,
		1.30174008567511e-16],
		"rotation":[0.0,
		-0.7071067690849304,
		0.0,
		0.7071067690849304],
		"scale":[1.0,
		1.0,
		1.0],
		"children":[23]
	},
	{
		"name":"Polygon",
		"translation":[-0.06241292133927345,
		0.5432079434394836,
		1.30174008567511e-16],
		"rotation":[0.0,
		-0.7071067690849304,
		0.0,
		0.7071067690849304],
		"scale":[1.0,
		1.0,
		1.0],
		"children":[24]
	},
	{
		"name":"LC200_BlackPlastic_1.1",
		"translation":[-0.20751126110553742,
		1.1087795495986939,
		1.2706400798765863e-17],
		"rotation":[0.0,
		0.0,
		0.0,
		-1.0],
		"scale":[1.0,
		1.0,
		1.0],
		"children":[25]
	},
	{
		"name":"LC200_BlackGlass_1.1",
		"translation":[-0.20751126110553742,
		1.1087795495986939,
		1.2706400798765863e-17],
		"rotation":[0.0,
		0.0,
		0.0,
		-1.0],
		"scale":[1.0,
		1.0,
		1.0],
		"children":[26]
	},
	{
		"name":"LC200_chrome_1_1.1",
		"translation":[-0.20751126110553742,
		1.1087795495986939,
		1.2706400798765863e-17],
		"rotation":[0.0,
		0.0,
		0.0,
		-1.0],
		"scale":[1.0,
		1.0,
		1.0],
		"children":[27]
	},
	{
		"name":"LC200_SilverPaint_1.1",
		"translation":[-0.20751126110553742,
		1.1087795495986939,
		1.2706400798765863e-17],
		"rotation":[0.0,
		0.0,
		0.0,
		-1.0],
		"scale":[1.0,
		1.0,
		1.0],
		"children":[28]
	},
	{
		"name":"LCVXR.Body_fullsize_body",
		"mesh":0
	},
	{
		"name":"Polygon.7",
		"mesh":1
	},
	{
		"name":"Polygon.4",
		"mesh":2
	},
	{
		"name":"Polygon.3",
		"mesh":3
	},
	{
		"name":"Polygon.2",
		"mesh":4
	},
	{
		"name":"Polygon.1",
		"mesh":5
	},
	{
		"name":"Polygon.5",
		"mesh":6
	},
	{
		"name":"Polygon.6",
		"mesh":7
	},
	{
		"name":"Polygon.8",
		"mesh":8
	},
	{
		"name":"Polygon",
		"mesh":9
	},
	{
		"name":"LC200_BlackPlastic_1.1",
		"mesh":10
	},
	{
		"name":"LC200_BlackGlass_1.1",
		"mesh":11
	},
	{
		"name":"LC200_chrome_1_1.1",
		"mesh":12
	},
	{
		"name":"LC200_SilverPaint_1.1",
		"mesh":13
	}],
	"meshes":[{
		"name":"LCVXR.Body_fullsize_body",
		"primitives":[{
			"attributes":{
				"POSITION":1,
				"NORMAL":2,
				"TEXCOORD_0":3
			},
			"indices":0,
			"material":0
		}]
	},
	{
		"name":"Polygon.7",
		"primitives":[{
			"attributes":{
				"POSITION":5,
				"NORMAL":6
			},
			"indices":4,
			"material":0
		}]
	},
	{
		"name":"Polygon.4",
		"primitives":[{
			"attributes":{
				"POSITION":8,
				"NORMAL":9
			},
			"indices":7,
			"material":0
		}]
	},
	{
		"name":"Polygon.3",
		"primitives":[{
			"attributes":{
				"POSITION":11,
				"NORMAL":12
			},
			"indices":10,
			"material":0
		}]
	},
	{
		"name":"Polygon.2",
		"primitives":[{
			"attributes":{
				"POSITION":14,
				"NORMAL":15
			},
			"indices":13,
			"material":0
		}]
	},
	{
		"name":"Polygon.1",
		"primitives":[{
			"attributes":{
				"POSITION":17,
				"NORMAL":18
			},
			"indices":16,
			"material":0
		}]
	},
	{
		"name":"Polygon.5",
		"primitives":[{
			"attributes":{
				"POSITION":20,
				"NORMAL":21
			},
			"indices":19,
			"material":0
		}]
	},
	{
		"name":"Polygon.6",
		"primitives":[{
			"attributes":{
				"POSITION":23,
				"NORMAL":24
			},
			"indices":22,
			"material":0
		}]
	},
	{
		"name":"Polygon.8",
		"primitives":[{
			"attributes":{
				"POSITION":26,
				"NORMAL":27
			},
			"indices":25,
			"material":0
		}]
	},
	{
		"name":"Polygon",
		"primitives":[{
			"attributes":{
				"POSITION":29,
				"NORMAL":30
			},
			"indices":28,
			"material":0
		}]
	},
	{
		"name":"LC200_BlackPlastic_1.1",
		"primitives":[{
			"attributes":{
				"POSITION":32,
				"NORMAL":33,
				"TEXCOORD_0":34
			},
			"indices":31,
			"material":0
		}]
	},
	{
		"name":"LC200_BlackGlass_1.1",
		"primitives":[{
			"attributes":{
				"POSITION":36,
				"NORMAL":37,
				"TEXCOORD_0":38
			},
			"indices":35,
			"material":0
		}]
	},
	{
		"name":"LC200_chrome_1_1.1",
		"primitives":[{
			"attributes":{
				"POSITION":40,
				"NORMAL":41,
				"TEXCOORD_0":42
			},
			"indices":39,
			"material":0
		}]
	},
	{
		"name":"LC200_SilverPaint_1.1",
		"primitives":[{
			"attributes":{
				"POSITION":44,
				"NORMAL":45,
				"TEXCOORD_0":46
			},
			"indices":43,
			"material":0
		}]
	}],
	"bufferViews":[{
		"buffer":0,
		"byteOffset":0,
		"target":34963,
		"byteLength":36
	},
	{
		"buffer":0,
		"byteOffset":36,
		"target":34962,
		"byteLength":384,
		"byteStride":32
	},
	{
		"buffer":1,
		"byteOffset":0,
		"target":34963,
		"byteLength":288
	},
	{
		"buffer":1,
		"byteOffset":288,
		"target":34962,
		"byteLength":2184,
		"byteStride":24
	},
	{
		"buffer":2,
		"byteOffset":0,
		"target":34963,
		"byteLength":1248
	},
	{
		"buffer":2,
		"byteOffset":1248,
		"target":34962,
		"byteLength":9456,
		"byteStride":24
	},
	{
		"buffer":3,
		"byteOffset":0,
		"target":34963,
		"byteLength":1248
	},
	{
		"buffer":3,
		"byteOffset":1248,
		"target":34962,
		"byteLength":9456,
		"byteStride":24
	},
	{
		"buffer":4,
		"byteOffset":0,
		"target":34963,
		"byteLength":1248
	},
	{
		"buffer":4,
		"byteOffset":1248,
		"target":34962,
		"byteLength":9456,
		"byteStride":24
	},
	{
		"buffer":5,
		"byteOffset":0,
		"target":34963,
		"byteLength":1248
	},
	{
		"buffer":5,
		"byteOffset":1248,
		"target":34962,
		"byteLength":9456,
		"byteStride":24
	},
	{
		"buffer":6,
		"byteOffset":0,
		"target":34963,
		"byteLength":672
	},
	{
		"buffer":6,
		"byteOffset":672,
		"target":34962,
		"byteLength":4872,
		"byteStride":24
	},
	{
		"buffer":7,
		"byteOffset":0,
		"target":34963,
		"byteLength":720
	},
	{
		"buffer":7,
		"byteOffset":720,
		"target":34962,
		"byteLength":5832,
		"byteStride":24
	},
	{
		"buffer":8,
		"byteOffset":0,
		"target":34963,
		"byteLength":432
	},
	{
		"buffer":8,
		"byteOffset":432,
		"target":34962,
		"byteLength":3432,
		"byteStride":24
	},
	{
		"buffer":9,
		"byteOffset":0,
		"target":34963,
		"byteLength":1584
	},
	{
		"buffer":9,
		"byteOffset":1584,
		"target":34962,
		"byteLength":12336,
		"byteStride":24
	},
	{
		"buffer":10,
		"byteOffset":0,
		"target":34963,
		"byteLength":10404
	},
	{
		"buffer":10,
		"byteOffset":10404,
		"target":34962,
		"byteLength":61600,
		"byteStride":32
	},
	{
		"buffer":11,
		"byteOffset":0,
		"target":34963,
		"byteLength":216
	},
	{
		"buffer":11,
		"byteOffset":216,
		"target":34962,
		"byteLength":800,
		"byteStride":32
	},
	{
		"buffer":12,
		"byteOffset":0,
		"target":34963,
		"byteLength":54528
	},
	{
		"buffer":12,
		"byteOffset":54528,
		"target":34962,
		"byteLength":217696,
		"byteStride":32
	},
	{
		"buffer":13,
		"byteOffset":0,
		"target":34963,
		"byteLength":2016
	},
	{
		"buffer":13,
		"byteOffset":2016,
		"target":34962,
		"byteLength":19328,
		"byteStride":32
	}],
	"buffers":[{
		"uri":"data:application/octet-stream;base64,",
		"byteLength":420
	},
	{
		"uri":"data:application/octet-stream;base64,",
		"byteLength":2472
	},
	{
		"uri":"data:application/octet-stream;base64,",
		"byteLength":10704
	},
	{
		"uri":"data:application/octet-stream;base64,",
		"byteLength":10704
	},
	{
		"uri":"data:application/octet-stream;base64,",
		"byteLength":10704
	},
	{
		"uri":"data:application/octet-stream;base64,",
		"byteLength":10704
	},
	{
		"uri":"data:application/octet-stream;base64,",
		"byteLength":5544
	},
	{
		"uri":"data:application/octet-stream;base64,",
		"byteLength":6552
	},
	{
		"uri":"data:application/octet-stream;base64,",
		"byteLength":3864
	},
	{
		"uri":"data:application/octet-stream;base64,",
		"byteLength":13920
	},
	{
		"uri":"data:application/octet-stream;base64,",
		"byteLength":72004
	},
	{
		"uri":"data:application/octet-stream;base64,",
		"byteLength":1016
	},
	{
		"uri":"data:application/octet-stream;base64,",
		"byteLength":272224
	},
	{
		"uri":"data:application/octet-stream;base64,",
		"byteLength":21344
	}],
	"materials":[{
		"pbrMetallicRoughness":{
			"baseColorFactor":[0.8,
			0.8,
			0.8,
			1.0],
			"metallicFactor":1.0,
			"roughnessFactor":0.1
		},
		"emissiveFactor":[0.0,
		0.0,
		0.0],
		"alphaMode":"OPAQUE",
		"name":"Mat.1",
		"doubleSided":false
	}]
}