{
	"asset":{
		"version":"2.0",
		"generator":"Maxon Cinema 4D 2023.2.0 (#200000219)"
	},
	"scenes":[{
		"nodes":[0]
	}],
	"accessors":[{
		"bufferView":0,
		"type":"SCALAR",
		"componentType":5123,
		"count":15750,
		"byteOffset":0,
		"min":[0],
		"max":[3080]
	},
	{
		"bufferView":1,
		"type":"VEC3",
		"componentType":5126,
		"count":3081,
		"byteOffset":0,
		"min":[-1.063564419746399,
		0.9374237656593323,
		2.056654453277588],
		"max":[1.0614491701126099,
		1.344004511833191,
		2.7346019744873049]
	},
	{
		"bufferView":1,
		"type":"VEC3",
		"componentType":5126,
		"count":3081,
		"byteOffset":12,
		"min":[-0.9999995231628418,
		-1.0,
		-1.0],
		"max":[0.9999995231628418,
		1.0,
		0.9999991655349731]
	},
	{
		"bufferView":1,
		"type":"VEC2",
		"componentType":5126,
		"count":3081,
		"byteOffset":24,
		"min":[-522.1151123046875,
		-2434.68994140625],
		"max":[30.004798889160158,
		0.3040849566459656]
	}],
	"nodes":[{
		"name":"решітка 2016",
		"translation":[0.0,
		-0.04381193965673447,
		0.2973228991031647],
		"rotation":[0.0,
		0.0,
		0.0,
		-1.0],
		"scale":[1.0,
		1.0,
		1.0],
		"children":[1]
	},
	{
		"name":"LCVXR.Body_fullsize_body",
		"mesh":0
	}],
	"meshes":[{
		"name":"LCVXR.Body_fullsize_body",
		"primitives":[{
			"attributes":{
				"POSITION":1,
				"NORMAL":2,
				"TEXCOORD_0":3
			},
			"indices":0,
			"material":0
		}]
	}],
	"bufferViews":[{
		"buffer":0,
		"byteOffset":0,
		"target":34963,
		"byteLength":31500
	},
	{
		"buffer":0,
		"byteOffset":31500,
		"target":34962,
		"byteLength":98592,
		"byteStride":32
	}],
	"buffers":[{
		"uri":"data:application/octet-stream;base64,",
		"byteLength":130092
	}],
	"materials":[{
		"pbrMetallicRoughness":{
			"baseColorFactor":[0.8,
			0.8,
			0.8,
			1.0],
			"metallicFactor":1.0,
			"roughnessFactor":0.1
		},
		"emissiveFactor":[0.0,
		0.0,
		0.0],
		"alphaMode":"OPAQUE",
		"name":"Mat.1",
		"doubleSided":false
	}]
}