{
	"asset":{
		"version":"2.0",
		"generator":"Maxon Cinema 4D 2023.2.0 (#200000219)"
	},
	"scenes":[{
		"nodes":[0,
		1,
		2]
	}],
	"nodes":[{
		"name":"chrome",
		"mesh":0,
		"translation":[-1.0769163656501374e-16,
		-0.04697175323963165,
		-0.22037523984909059],
		"rotation":[0.0,
		0.0,
		0.0,
		-1.0],
		"scale":[1.0,
		1.0,
		1.0]
	},
	{
		"name":"black",
		"mesh":1,
		"translation":[-1.0769163656501374e-16,
		-0.04697175323963165,
		-0.22037523984909059],
		"rotation":[0.0,
		0.0,
		0.0,
		-1.0],
		"scale":[1.0,
		1.0,
		1.0]
	},
	{
		"name":"dark chrome",
		"mesh":2,
		"translation":[-1.0769163656501374e-16,
		-0.04697175323963165,
		-0.22037523984909059],
		"rotation":[0.0,
		0.0,
		0.0,
		-1.0],
		"scale":[1.0,
		1.0,
		1.0]
	}],
	"meshes":[{
		"name":"chrome",
		"primitives":[{
			"attributes":{
				"POSITION":1,
				"NORMAL":2
			},
			"indices":0,
			"material":0
		}]
	},
	{
		"name":"black",
		"primitives":[{
			"attributes":{
				"POSITION":4,
				"NORMAL":5
			},
			"indices":3,
			"material":1
		}]
	},
	{
		"name":"dark chrome",
		"primitives":[{
			"attributes":{
				"POSITION":7,
				"NORMAL":8
			},
			"indices":6,
			"material":2
		}]
	}],
	"accessors":[{
		"bufferView":0,
		"type":"SCALAR",
		"componentType":5123,
		"count":29400,
		"byteOffset":0,
		"min":[0],
		"max":[6354]
	},
	{
		"bufferView":1,
		"type":"VEC3",
		"componentType":5126,
		"count":6355,
		"byteOffset":0,
		"min":[-0.5532199740409851,
		0.9910286664962769,
		3.0858263969421388],
		"max":[0.5446758270263672,
		1.285170316696167,
		3.2463510036468508]
	},
	{
		"bufferView":1,
		"type":"VEC3",
		"componentType":5126,
		"count":6355,
		"byteOffset":12,
		"min":[-0.9999963045120239,
		-1.0,
		-0.12715721130371095],
		"max":[0.9999961853027344,
		1.0,
		0.9997749328613281]
	},
	{
		"bufferView":2,
		"type":"SCALAR",
		"componentType":5123,
		"count":2856,
		"byteOffset":0,
		"min":[0],
		"max":[1097]
	},
	{
		"bufferView":3,
		"type":"VEC3",
		"componentType":5126,
		"count":1098,
		"byteOffset":0,
		"min":[-0.45111510157585146,
		0.9704872369766235,
		2.970693349838257],
		"max":[0.44254082441329958,
		1.2587251663208008,
		3.0705480575561525]
	},
	{
		"bufferView":3,
		"type":"VEC3",
		"componentType":5126,
		"count":1098,
		"byteOffset":12,
		"min":[-1.0,
		-0.99884432554245,
		-1.0],
		"max":[1.0,
		0.9988436698913574,
		1.0]
	},
	{
		"bufferView":4,
		"type":"SCALAR",
		"componentType":5123,
		"count":22104,
		"byteOffset":0,
		"min":[0],
		"max":[5054]
	},
	{
		"bufferView":5,
		"type":"VEC3",
		"componentType":5126,
		"count":5055,
		"byteOffset":0,
		"min":[-1.0270051956176758,
		0.9411266446113586,
		2.7551429271698],
		"max":[1.0184330940246583,
		1.335951566696167,
		3.238107681274414]
	},
	{
		"bufferView":5,
		"type":"VEC3",
		"componentType":5126,
		"count":5055,
		"byteOffset":12,
		"min":[-0.9999990463256836,
		-1.0,
		-0.04059481993317604],
		"max":[0.9999990463256836,
		1.0,
		0.9997398257255554]
	}],
	"bufferViews":[{
		"buffer":0,
		"byteOffset":0,
		"byteLength":58800,
		"target":34963
	},
	{
		"buffer":0,
		"byteOffset":58800,
		"byteLength":152520,
		"target":34962,
		"byteStride":24
	},
	{
		"buffer":1,
		"byteOffset":0,
		"byteLength":5712,
		"target":34963
	},
	{
		"buffer":1,
		"byteOffset":5712,
		"byteLength":26352,
		"target":34962,
		"byteStride":24
	},
	{
		"buffer":2,
		"byteOffset":0,
		"byteLength":44208,
		"target":34963
	},
	{
		"buffer":2,
		"byteOffset":44208,
		"byteLength":121320,
		"target":34962,
		"byteStride":24
	}],
	"buffers":[{
		"uri":"data:application/octet-stream;base64,",
		"byteLength":211320
	},
	{
		"uri":"data:application/octet-stream;base64,",
		"byteLength":32064
	},
	{
		"uri":"data:application/octet-stream;base64,",
		"byteLength":165528
	}],
	"materials":[{
		"pbrMetallicRoughness":{
			"baseColorFactor":[0.8,
			0.8,
			0.8,
			1.0],
			"metallicFactor":0.35000000000000006,
			"roughnessFactor":0.05
		},
		"emissiveFactor":[0.0,
		0.0,
		0.0],
		"alphaMode":"OPAQUE",
		"doubleSided":true,
		"name":"chrome"
	},
	{
		"pbrMetallicRoughness":{
			"baseColorFactor":[0.0,
			0.0,
			0.0,
			1.0],
			"metallicFactor":1.0,
			"roughnessFactor":0.1
		},
		"emissiveFactor":[0.0,
		0.0,
		0.0],
		"alphaMode":"OPAQUE",
		"doubleSided":true,
		"name":"car"
	},
	{
		"pbrMetallicRoughness":{
			"baseColorFactor":[0.8,
			0.8,
			0.8,
			1.0],
			"metallicFactor":0.11,
			"roughnessFactor":0.05
		},
		"emissiveFactor":[0.0,
		0.0,
		0.0],
		"alphaMode":"OPAQUE",
		"doubleSided":true,
		"name":"chrome"
	}]
}