{
	"asset":{
		"version":"2.0",
		"generator":"Maxon Cinema 4D 2023.2.0 (#200000219)"
	},
	"scenes":[{
		"nodes":[0,
		1]
	}],
	"nodes":[{
		"name":"chrome",
		"mesh":0
	},
	{
		"name":"dark chrome",
		"mesh":1
	}],
	"meshes":[{
		"name":"chrome",
		"primitives":[{
			"attributes":{
				"POSITION":1,
				"NORMAL":2,
				"TEXCOORD_0":3
			},
			"indices":0,
			"material":0
		}]
	},
	{
		"name":"dark chrome",
		"primitives":[{
			"attributes":{
				"POSITION":5,
				"NORMAL":6,
				"TEXCOORD_0":7
			},
			"indices":4,
			"material":1
		}]
	}],
	"accessors":[{
		"bufferView":0,
		"type":"SCALAR",
		"componentType":5123,
		"count":37422,
		"byteOffset":0,
		"min":[0],
		"max":[9727]
	},
	{
		"bufferView":1,
		"type":"VEC3",
		"componentType":5126,
		"count":9728,
		"byteOffset":0,
		"min":[-1.0239486694335938,
		0.8913565874099731,
		2.55972957611084],
		"max":[1.0240157842636109,
		1.2947312593460084,
		3.0008962154388429]
	},
	{
		"bufferView":1,
		"type":"VEC3",
		"componentType":5126,
		"count":9728,
		"byteOffset":12,
		"min":[-0.9999222159385681,
		-0.9999980926513672,
		-0.9999338984489441],
		"max":[0.9999198317527771,
		0.9999970197677612,
		0.9999723434448242]
	},
	{
		"bufferView":1,
		"type":"VEC2",
		"componentType":5126,
		"count":9728,
		"byteOffset":24,
		"min":[-242.82040405273438,
		-23.94289779663086],
		"max":[243.82040405273438,
		243.84539794921876]
	},
	{
		"bufferView":2,
		"type":"SCALAR",
		"componentType":5123,
		"count":47766,
		"byteOffset":0,
		"min":[0],
		"max":[19590]
	},
	{
		"bufferView":3,
		"type":"VEC3",
		"componentType":5126,
		"count":19591,
		"byteOffset":0,
		"min":[-0.5565390586853027,
		0.8990376591682434,
		2.835869312286377],
		"max":[0.5566251873970032,
		1.2780332565307618,
		3.0041251182556154]
	},
	{
		"bufferView":3,
		"type":"VEC3",
		"componentType":5126,
		"count":19591,
		"byteOffset":12,
		"min":[-1.0,
		-1.0,
		-1.0],
		"max":[1.0,
		1.0,
		1.0]
	},
	{
		"bufferView":3,
		"type":"VEC2",
		"componentType":5126,
		"count":19591,
		"byteOffset":24,
		"min":[0.7195417284965515,
		0.3688966631889343],
		"max":[0.7804628610610962,
		0.4053370952606201]
	}],
	"bufferViews":[{
		"buffer":0,
		"byteOffset":0,
		"byteLength":74844,
		"target":34963
	},
	{
		"buffer":0,
		"byteOffset":74844,
		"byteLength":311296,
		"target":34962,
		"byteStride":32
	},
	{
		"buffer":1,
		"byteOffset":0,
		"byteLength":95532,
		"target":34963
	},
	{
		"buffer":1,
		"byteOffset":95532,
		"byteLength":626912,
		"target":34962,
		"byteStride":32
	}],
	"buffers":[{
		"uri":"data:application/octet-stream;base64,",
		"byteLength":386140
	},
	{
		"uri":"data:application/octet-stream;base64,",
		"byteLength":722444
	}],
	"materials":[{
		"pbrMetallicRoughness":{
			"baseColorFactor":[0.8,
			0.8,
			0.8,
			1.0],
			"metallicFactor":0.35000000000000006,
			"roughnessFactor":0.05
		},
		"emissiveFactor":[0.0,
		0.0,
		0.0],
		"alphaMode":"OPAQUE",
		"doubleSided":true,
		"name":"chrome"
	},
	{
		"pbrMetallicRoughness":{
			"baseColorFactor":[0.8,
			0.8,
			0.8,
			1.0],
			"metallicFactor":0.11,
			"roughnessFactor":0.05
		},
		"emissiveFactor":[0.0,
		0.0,
		0.0],
		"alphaMode":"OPAQUE",
		"doubleSided":true,
		"name":"dark chrome"
	}]
}