{
	"asset":{
		"version":"2.0",
		"generator":"Maxon Cinema 4D 2023.2.0 (#200000219)"
	},
	"scenes":[{
		"nodes":[0]
	}],
	"nodes":[{
		"name":"2019",
		"translation":[-1.9111445570221169e-16,
		1.1179542541503907,
		1.126965880393982],
		"rotation":[0.0,
		0.0,
		0.0,
		-1.0],
		"scale":[1.0,
		1.0,
		1.0],
		"children":[1,
		2,
		3]
	},
	{
		"name":"dark chrome",
		"mesh":0
	},
	{
		"name":"black",
		"mesh":1
	},
	{
		"name":"chrome",
		"mesh":2
	}],
	"meshes":[{
		"name":"dark chrome",
		"primitives":[{
			"attributes":{
				"POSITION":1,
				"NORMAL":2
			},
			"indices":0,
			"material":0
		}]
	},
	{
		"name":"black",
		"primitives":[{
			"attributes":{
				"POSITION":4,
				"NORMAL":5
			},
			"indices":3,
			"material":1
		}]
	},
	{
		"name":"chrome",
		"primitives":[{
			"attributes":{
				"POSITION":7,
				"NORMAL":8
			},
			"indices":6,
			"material":2
		}]
	}],
	"accessors":[{
		"bufferView":0,
		"type":"SCALAR",
		"componentType":5123,
		"count":11106,
		"byteOffset":0,
		"min":[0],
		"max":[3127]
	},
	{
		"bufferView":1,
		"type":"VEC3",
		"componentType":5126,
		"count":3128,
		"byteOffset":0,
		"min":[-0.6849501132965088,
		-0.22635418176651,
		1.6075997352600098],
		"max":[0.684950053691864,
		0.15833143889904023,
		1.8880597352981568]
	},
	{
		"bufferView":1,
		"type":"VEC3",
		"componentType":5126,
		"count":3128,
		"byteOffset":12,
		"min":[-0.9999978542327881,
		-0.9999990463256836,
		-0.9973098039627075],
		"max":[0.9999977350234985,
		0.9999354481697083,
		0.9996055364608765]
	},
	{
		"bufferView":2,
		"type":"SCALAR",
		"componentType":5123,
		"count":672,
		"byteOffset":0,
		"min":[0],
		"max":[244]
	},
	{
		"bufferView":3,
		"type":"VEC3",
		"componentType":5126,
		"count":245,
		"byteOffset":0,
		"min":[-0.4785873293876648,
		-0.2216951847076416,
		1.6547760963439942],
		"max":[0.4785873293876648,
		0.15515808761119843,
		1.8488761186599732]
	},
	{
		"bufferView":3,
		"type":"VEC3",
		"componentType":5126,
		"count":245,
		"byteOffset":12,
		"min":[-0.9989778995513916,
		-0.07318901270627976,
		0.04200105741620064],
		"max":[0.998978853225708,
		0.5358248353004456,
		0.9999833106994629]
	},
	{
		"bufferView":4,
		"type":"SCALAR",
		"componentType":5123,
		"count":38550,
		"byteOffset":0,
		"min":[0],
		"max":[9322]
	},
	{
		"bufferView":5,
		"type":"VEC3",
		"componentType":5126,
		"count":9323,
		"byteOffset":0,
		"min":[-1.027215838432312,
		-0.22927741706371308,
		1.431176781654358],
		"max":[1.027215838432312,
		0.18253490328788758,
		1.889427900314331]
	},
	{
		"bufferView":5,
		"type":"VEC3",
		"componentType":5126,
		"count":9323,
		"byteOffset":12,
		"min":[-0.9999484419822693,
		-0.9999979734420776,
		-0.9580129981040955],
		"max":[0.9999433159828186,
		0.9999970197677612,
		0.9998946785926819]
	}],
	"bufferViews":[{
		"buffer":0,
		"byteOffset":0,
		"byteLength":22212,
		"target":34963
	},
	{
		"buffer":0,
		"byteOffset":22212,
		"byteLength":75072,
		"target":34962,
		"byteStride":24
	},
	{
		"buffer":1,
		"byteOffset":0,
		"byteLength":1344,
		"target":34963
	},
	{
		"buffer":1,
		"byteOffset":1344,
		"byteLength":5880,
		"target":34962,
		"byteStride":24
	},
	{
		"buffer":2,
		"byteOffset":0,
		"byteLength":77100,
		"target":34963
	},
	{
		"buffer":2,
		"byteOffset":77100,
		"byteLength":223752,
		"target":34962,
		"byteStride":24
	}],
	"buffers":[{
		"uri":"data:application/octet-stream;base64,",
		"byteLength":97284
	},
	{
		"uri":"data:application/octet-stream;base64,",
		"byteLength":7224
	},
	{
		"uri":"data:application/octet-stream;base64,",
		"byteLength":300852
	}],
	"materials":[{
		"pbrMetallicRoughness":{
			"baseColorFactor":[0.8,
			0.8,
			0.8,
			1.0],
			"metallicFactor":0.11,
			"roughnessFactor":0.05
		},
		"emissiveFactor":[0.0,
		0.0,
		0.0],
		"alphaMode":"OPAQUE",
		"doubleSided":true,
		"name":"chrome"
	},
	{
		"pbrMetallicRoughness":{
			"baseColorFactor":[0.0,
			0.0,
			0.0,
			1.0],
			"metallicFactor":1.0,
			"roughnessFactor":0.1
		},
		"emissiveFactor":[0.0,
		0.0,
		0.0],
		"alphaMode":"OPAQUE",
		"doubleSided":true,
		"name":"car"
	},
	{
		"pbrMetallicRoughness":{
			"baseColorFactor":[0.8,
			0.8,
			0.8,
			1.0],
			"metallicFactor":0.35000000000000006,
			"roughnessFactor":0.05
		},
		"emissiveFactor":[0.0,
		0.0,
		0.0],
		"alphaMode":"OPAQUE",
		"doubleSided":true,
		"name":"chrome"
	}]
}