{
	"asset":{
		"version":"2.0",
		"generator":"Maxon Cinema 4D 2023.2.0 (#200000219)"
	},
	"scenes":[{
		"nodes":[0]
	}],
	"nodes":[{
		"mesh":0,
		"name":"2021"
	}],
	"meshes":[{
		"name":"2021",
		"primitives":[{
			"attributes":{
				"POSITION":1,
				"NORMAL":2,
				"TEXCOORD_0":3
			},
			"indices":0,
			"material":0
		}]
	}],
	"accessors":[{
		"max":[33094],
		"bufferView":0,
		"type":"SCALAR",
		"componentType":5123,
		"count":85188,
		"byteOffset":0,
		"min":[0]
	},
	{
		"max":[1.0240157842636109,
		1.2947312593460084,
		3.0041251182556154],
		"bufferView":1,
		"type":"VEC3",
		"componentType":5126,
		"count":33095,
		"byteOffset":0,
		"min":[-1.0239486694335938,
		0.8913565874099731,
		2.55972957611084]
	},
	{
		"max":[1.0,
		1.0,
		1.0],
		"bufferView":1,
		"type":"VEC3",
		"componentType":5126,
		"count":33095,
		"byteOffset":12,
		"min":[-1.0,
		-1.0,
		-1.0]
	},
	{
		"max":[243.82040405273438,
		243.84539794921876],
		"bufferView":1,
		"type":"VEC2",
		"componentType":5126,
		"count":33095,
		"byteOffset":24,
		"min":[-242.82040405273438,
		-88.70500183105469]
	}],
	"bufferViews":[{
		"buffer":0,
		"byteOffset":0,
		"target":34963,
		"byteLength":170376
	},
	{
		"buffer":0,
		"byteOffset":170376,
		"target":34962,
		"byteLength":1059040,
		"byteStride":32
	}],
	"buffers":[{
		"uri":"data:application/octet-stream;base64,",
		"byteLength":1229416
	}],
	"materials":[{
		"pbrMetallicRoughness":{
			"baseColorFactor":[0.8,
			0.8,
			0.8,
			1.0],
			"metallicFactor":1.0,
			"roughnessFactor":0.1
		},
		"emissiveFactor":[0.0,
		0.0,
		0.0],
		"alphaMode":"OPAQUE",
		"doubleSided":true,
		"name":"chrome"
	}]
}