{
	"asset":{
		"version":"2.0",
		"generator":"Maxon Cinema 4D 2023.2.0 (#200000219)"
	},
	"scenes":[{
		"nodes":[0]
	}],
	"accessors":[{
		"bufferView":0,
		"type":"SCALAR",
		"componentType":5123,
		"count":18252,
		"byteOffset":0,
		"min":[0],
		"max":[3668]
	},
	{
		"bufferView":1,
		"type":"VEC3",
		"componentType":5126,
		"count":3669,
		"byteOffset":0,
		"min":[-0.09508559107780457,
		1.119659185409546,
		3.1774697303771974],
		"max":[0.09328439086675644,
		1.243028998374939,
		3.2353951930999758]
	},
	{
		"bufferView":1,
		"type":"VEC3",
		"componentType":5126,
		"count":3669,
		"byteOffset":12,
		"min":[-0.9998188018798828,
		-0.9999996423721314,
		-0.01693771779537201],
		"max":[0.9998109340667725,
		0.9998899102210999,
		0.9984350204467773]
	},
	{
		"bufferView":2,
		"type":"SCALAR",
		"componentType":5123,
		"count":6114,
		"byteOffset":0,
		"min":[0],
		"max":[2467]
	},
	{
		"bufferView":3,
		"type":"VEC3",
		"componentType":5126,
		"count":2468,
		"byteOffset":0,
		"min":[-2.880498170852661,
		-0.12106911838054657,
		-0.5655863881111145],
		"max":[-2.727107048034668,
		0.12159892916679383,
		0.5655863881111145]
	},
	{
		"bufferView":3,
		"type":"VEC3",
		"componentType":5126,
		"count":2468,
		"byteOffset":12,
		"min":[-0.9999898672103882,
		-0.9999779462814331,
		-0.07828366756439209],
		"max":[0.9993609189987183,
		0.9999773502349854,
		0.999159574508667]
	},
	{
		"bufferView":3,
		"type":"VEC2",
		"componentType":5126,
		"count":2468,
		"byteOffset":24,
		"min":[-137.6446990966797,
		-88.70500183105469],
		"max":[137.69000244140626,
		90.91839599609375]
	},
	{
		"bufferView":4,
		"type":"SCALAR",
		"componentType":5123,
		"count":10242,
		"byteOffset":0,
		"min":[0],
		"max":[3752]
	},
	{
		"bufferView":5,
		"type":"VEC3",
		"componentType":5126,
		"count":3753,
		"byteOffset":0,
		"min":[-2.861994504928589,
		-0.21832627058029176,
		-0.6849501132965088],
		"max":[-2.6000382900238039,
		0.16635936498641969,
		0.684950053691864]
	},
	{
		"bufferView":5,
		"type":"VEC3",
		"componentType":5126,
		"count":3753,
		"byteOffset":12,
		"min":[-0.9999959468841553,
		-0.9999988079071045,
		-0.9951220154762268],
		"max":[0.9999769926071167,
		0.9999878406524658,
		0.9999836683273315]
	},
	{
		"bufferView":5,
		"type":"VEC2",
		"componentType":5126,
		"count":3753,
		"byteOffset":24,
		"min":[-1.5887999534606934,
		-5.029099464416504],
		"max":[11.62909984588623,
		1.6071999073028565]
	},
	{
		"bufferView":6,
		"type":"SCALAR",
		"componentType":5123,
		"count":528,
		"byteOffset":0,
		"min":[0],
		"max":[137]
	},
	{
		"bufferView":7,
		"type":"VEC3",
		"componentType":5126,
		"count":138,
		"byteOffset":0,
		"min":[-2.875518798828125,
		-0.04251239076256752,
		-0.10647768527269364],
		"max":[-2.8166024684906008,
		0.09497285634279251,
		0.1064765527844429]
	},
	{
		"bufferView":7,
		"type":"VEC3",
		"componentType":5126,
		"count":138,
		"byteOffset":12,
		"min":[-0.986747682094574,
		-0.9987878203392029,
		-0.9998033046722412],
		"max":[0.9826861023902893,
		0.9150318503379822,
		0.9998043775558472]
	},
	{
		"bufferView":7,
		"type":"VEC2",
		"componentType":5126,
		"count":138,
		"byteOffset":24,
		"min":[1.0,
		0.958299994468689],
		"max":[1.0,
		0.9598000049591065]
	},
	{
		"bufferView":8,
		"type":"SCALAR",
		"componentType":5123,
		"count":33444,
		"byteOffset":0,
		"min":[0],
		"max":[7641]
	},
	{
		"bufferView":9,
		"type":"VEC3",
		"componentType":5126,
		"count":7642,
		"byteOffset":0,
		"min":[-2.881866455078125,
		-0.2212495058774948,
		-1.027215838432312],
		"max":[-2.4236152172088625,
		0.19056281447410584,
		1.027215838432312]
	},
	{
		"bufferView":9,
		"type":"VEC3",
		"componentType":5126,
		"count":7642,
		"byteOffset":12,
		"min":[-0.9999850988388062,
		-0.9999995231628418,
		-0.9948999285697937],
		"max":[0.998930811882019,
		0.9999983310699463,
		0.9999955892562866]
	},
	{
		"bufferView":9,
		"type":"VEC2",
		"componentType":5126,
		"count":7642,
		"byteOffset":24,
		"min":[-242.82040405273438,
		-23.94289779663086],
		"max":[243.82040405273438,
		243.84539794921876]
	}],
	"nodes":[{
		"name":"2019",
		"translation":[-1.9111445570221169e-16,
		1.1179542541503907,
		1.126965880393982],
		"rotation":[0.0,
		-0.7071067690849304,
		0.0,
		-0.7071067690849304],
		"scale":[1.0,
		1.0,
		1.0],
		"children":[1,
		2,
		3,
		4,
		5]
	},
	{
		"name":"polySurface556.1",
		"translation":[1.3473410606384278,
		-1.1649259328842164,
		9.219772685104064e-19],
		"rotation":[0.0,
		-0.7071067690849304,
		0.0,
		0.7071067690849304],
		"scale":[1.0,
		1.0,
		1.0],
		"children":[6]
	},
	{
		"name":"LC200_SilverPaint_1.1",
		"translation":[0.9924384951591492,
		-0.008027913980185986,
		-9.98402086109079e-33],
		"rotation":[0.0,
		0.0,
		0.0,
		-1.0],
		"scale":[1.0,
		1.0,
		1.0],
		"children":[7]
	},
	{
		"name":"LC200_BlackPlastic_1.1",
		"translation":[0.9924384951591492,
		-0.008027913980185986,
		-9.98402086109079e-33],
		"rotation":[0.0,
		0.0,
		0.0,
		-1.0],
		"scale":[1.0,
		1.0,
		1.0],
		"children":[8]
	},
	{
		"name":"LC200_CarGlass_Clear_1.1",
		"translation":[0.9924384951591492,
		-0.008027913980185986,
		-9.98402086109079e-33],
		"rotation":[0.0,
		0.0,
		0.0,
		-1.0],
		"scale":[1.0,
		1.0,
		1.0],
		"children":[9]
	},
	{
		"name":"LC200_chrome_1_1.1",
		"translation":[0.9924384951591492,
		-0.008027913980185986,
		-9.98402086109079e-33],
		"rotation":[0.0,
		0.0,
		0.0,
		-1.0],
		"scale":[1.0,
		1.0,
		1.0],
		"children":[10]
	},
	{
		"name":"polySurface556.1",
		"mesh":0
	},
	{
		"name":"LC200_SilverPaint_1.1",
		"mesh":1
	},
	{
		"name":"LC200_BlackPlastic_1.1",
		"mesh":2
	},
	{
		"name":"LC200_CarGlass_Clear_1.1",
		"mesh":3
	},
	{
		"name":"LC200_chrome_1_1.1",
		"mesh":4
	}],
	"meshes":[{
		"name":"polySurface556.1",
		"primitives":[{
			"attributes":{
				"POSITION":1,
				"NORMAL":2
			},
			"indices":0,
			"material":0
		}]
	},
	{
		"name":"LC200_SilverPaint_1.1",
		"primitives":[{
			"attributes":{
				"POSITION":4,
				"NORMAL":5,
				"TEXCOORD_0":6
			},
			"indices":3,
			"material":1
		}]
	},
	{
		"name":"LC200_BlackPlastic_1.1",
		"primitives":[{
			"attributes":{
				"POSITION":8,
				"NORMAL":9,
				"TEXCOORD_0":10
			},
			"indices":7,
			"material":1
		}]
	},
	{
		"name":"LC200_CarGlass_Clear_1.1",
		"primitives":[{
			"attributes":{
				"POSITION":12,
				"NORMAL":13,
				"TEXCOORD_0":14
			},
			"indices":11,
			"material":1
		}]
	},
	{
		"name":"LC200_chrome_1_1.1",
		"primitives":[{
			"attributes":{
				"POSITION":16,
				"NORMAL":17,
				"TEXCOORD_0":18
			},
			"indices":15,
			"material":1
		}]
	}],
	"bufferViews":[{
		"buffer":0,
		"byteOffset":0,
		"target":34963,
		"byteLength":36504
	},
	{
		"buffer":0,
		"byteOffset":36504,
		"target":34962,
		"byteLength":88056,
		"byteStride":24
	},
	{
		"buffer":1,
		"byteOffset":0,
		"target":34963,
		"byteLength":12228
	},
	{
		"buffer":1,
		"byteOffset":12228,
		"target":34962,
		"byteLength":78976,
		"byteStride":32
	},
	{
		"buffer":2,
		"byteOffset":0,
		"target":34963,
		"byteLength":20484
	},
	{
		"buffer":2,
		"byteOffset":20484,
		"target":34962,
		"byteLength":120096,
		"byteStride":32
	},
	{
		"buffer":3,
		"byteOffset":0,
		"target":34963,
		"byteLength":1056
	},
	{
		"buffer":3,
		"byteOffset":1056,
		"target":34962,
		"byteLength":4416,
		"byteStride":32
	},
	{
		"buffer":4,
		"byteOffset":0,
		"target":34963,
		"byteLength":66888
	},
	{
		"buffer":4,
		"byteOffset":66888,
		"target":34962,
		"byteLength":244544,
		"byteStride":32
	}],
	"buffers":[{
		"uri":"data:application/octet-stream;base64,",
		"byteLength":124560
	},
	{
		"uri":"data:application/octet-stream;base64,",
		"byteLength":91204
	},
	{
		"uri":"data:application/octet-stream;base64,",
		"byteLength":140580
	},
	{
		"uri":"data:application/octet-stream;base64,",
		"byteLength":5472
	},
	{
		"uri":"data:application/octet-stream;base64,",
		"byteLength":311432
	}],
	"materials":[{
		"pbrMetallicRoughness":{
			"baseColorFactor":[1.0,
			1.0,
			1.0,
			1.0],
			"metallicFactor":0.0,
			"roughnessFactor":0.5
		},
		"emissiveFactor":[0.0,
		0.0,
		0.0],
		"alphaMode":"OPAQUE",
		"name":"Default",
		"doubleSided":false
	},
	{
		"pbrMetallicRoughness":{
			"baseColorFactor":[0.8,
			0.8,
			0.8,
			1.0],
			"metallicFactor":1.0,
			"roughnessFactor":0.1
		},
		"emissiveFactor":[0.0,
		0.0,
		0.0],
		"alphaMode":"OPAQUE",
		"name":"Mat.1",
		"doubleSided":false
	}]
}