{
	"asset":{
		"version":"2.0",
		"generator":"Maxon Cinema 4D 2023.2.0 (#200000219)"
	},
	"scenes":[{
		"nodes":[0,
		1]
	}],
	"accessors":[{
		"bufferView":0,
		"type":"SCALAR",
		"componentType":5123,
		"count":7314,
		"byteOffset":0,
		"min":[0],
		"max":[2129]
	},
	{
		"bufferView":1,
		"type":"VEC3",
		"componentType":5126,
		"count":2130,
		"byteOffset":0,
		"min":[-0.5525068044662476,
		0.9879249334335327,
		2.5662925243377687],
		"max":[0.5503995418548584,
		1.2837023735046387,
		2.7346019744873049]
	},
	{
		"bufferView":1,
		"type":"VEC3",
		"componentType":5126,
		"count":2130,
		"byteOffset":12,
		"min":[-0.9999959468841553,
		-1.0,
		-0.12768994271755219],
		"max":[0.9999938011169434,
		1.0,
		0.9999879598617554]
	},
	{
		"bufferView":2,
		"type":"SCALAR",
		"componentType":5123,
		"count":8436,
		"byteOffset":0,
		"min":[0],
		"max":[2529]
	},
	{
		"bufferView":3,
		"type":"VEC3",
		"componentType":5126,
		"count":2530,
		"byteOffset":0,
		"min":[-1.063564419746399,
		0.9374237656593323,
		2.056654453277588],
		"max":[1.0614491701126099,
		1.344004511833191,
		2.7257094383239748]
	},
	{
		"bufferView":3,
		"type":"VEC3",
		"componentType":5126,
		"count":2530,
		"byteOffset":12,
		"min":[-0.9999996423721314,
		-1.0,
		-0.9988918304443359],
		"max":[0.9999996423721314,
		1.0,
		0.9999997615814209]
	}],
	"nodes":[{
		"name":"chrome",
		"mesh":0,
		"translation":[0.0,
		-0.04381193965673447,
		0.2973228991031647],
		"rotation":[0.0,
		0.0,
		0.0,
		-1.0],
		"scale":[1.0,
		1.0,
		1.0]
	},
	{
		"name":"dark chrome",
		"mesh":1,
		"translation":[0.0,
		-0.04381193965673447,
		0.2973228991031647],
		"rotation":[0.0,
		0.0,
		0.0,
		-1.0],
		"scale":[1.0,
		1.0,
		1.0]
	}],
	"meshes":[{
		"name":"chrome",
		"primitives":[{
			"attributes":{
				"POSITION":1,
				"NORMAL":2
			},
			"indices":0,
			"material":0
		}]
	},
	{
		"name":"dark chrome",
		"primitives":[{
			"attributes":{
				"POSITION":4,
				"NORMAL":5
			},
			"indices":3,
			"material":1
		}]
	}],
	"bufferViews":[{
		"buffer":0,
		"byteOffset":0,
		"byteLength":14628,
		"target":34963
	},
	{
		"buffer":0,
		"byteOffset":14628,
		"byteLength":51120,
		"target":34962,
		"byteStride":24
	},
	{
		"buffer":1,
		"byteOffset":0,
		"byteLength":16872,
		"target":34963
	},
	{
		"buffer":1,
		"byteOffset":16872,
		"byteLength":60720,
		"target":34962,
		"byteStride":24
	}],
	"buffers":[{
		"uri":"data:application/octet-stream;base64,",
		"byteLength":65748
	},
	{
		"uri":"data:application/octet-stream;base64,",
		"byteLength":77592
	}],
	"materials":[{
		"name":"chrome",
		"pbrMetallicRoughness":{
			"baseColorFactor":[0.8,
			0.8,
			0.8,
			1.0],
			"metallicFactor":0.35000000000000006,
			"roughnessFactor":0.05
		},
		"emissiveFactor":[0.0,
		0.0,
		0.0],
		"alphaMode":"OPAQUE",
		"doubleSided":true
	},
	{
		"name":"dark_chrome",
		"pbrMetallicRoughness":{
			"baseColorFactor":[0.8,
			0.8,
			0.8,
			1.0],
			"metallicFactor":0.11,
			"roughnessFactor":0.05
		},
		"emissiveFactor":[0.0,
		0.0,
		0.0],
		"alphaMode":"OPAQUE",
		"doubleSided":true
	}]
}