{
	"asset":{
		"version":"2.0",
		"generator":"Maxon Cinema 4D 2023.2.0 (#200000219)"
	},
	"scenes":[{
		"nodes":[0]
	}],
	"nodes":[{
		"children":[1,
		2],
		"name":"cток",
		"translation":[-0.004286002367734909,
		0.8959137797355652,
		-0.22037523984909059],
		"rotation":[0.0,
		0.0,
		0.0,
		-1.0],
		"scale":[1.0,
		1.0,
		1.0]
	},
	{
		"mesh":0,
		"name":"¶ÔÏó004",
		"translation":[0.004286002367734909,
		-0.9428855180740356,
		0.0],
		"rotation":[0.0,
		0.0,
		0.0,
		-1.0],
		"scale":[1.0,
		1.0,
		1.0]
	},
	{
		"mesh":1,
		"name":"polySurface556",
		"translation":[0.004286002367734909,
		-0.9428855180740356,
		0.0],
		"rotation":[0.0,
		0.0,
		0.0,
		-1.0],
		"scale":[1.0,
		1.0,
		1.0]
	}],
	"meshes":[{
		"name":"¶ÔÏó004",
		"primitives":[{
			"attributes":{
				"POSITION":1,
				"NORMAL":2
			},
			"indices":0,
			"material":0
		}]
	},
	{
		"name":"polySurface556",
		"primitives":[{
			"attributes":{
				"POSITION":4,
				"NORMAL":5
			},
			"indices":3,
			"material":0
		}]
	}],
	"accessors":[{
		"max":[3974],
		"bufferView":0,
		"type":"SCALAR",
		"componentType":5123,
		"count":17664,
		"byteOffset":0,
		"min":[0]
	},
	{
		"max":[1.0184330940246583,
		1.335951566696167,
		3.2222390174865724],
		"bufferView":1,
		"type":"VEC3",
		"componentType":5126,
		"count":3975,
		"byteOffset":0,
		"min":[-1.0270051956176758,
		0.9411266446113586,
		2.7551429271698]
	},
	{
		"max":[0.9999990463256836,
		1.0,
		0.9997398257255554],
		"bufferView":1,
		"type":"VEC3",
		"componentType":5126,
		"count":3975,
		"byteOffset":12,
		"min":[-0.9999990463256836,
		-1.0,
		-0.04059481993317604]
	},
	{
		"max":[8577],
		"bufferView":2,
		"type":"SCALAR",
		"componentType":5123,
		"count":36816,
		"byteOffset":0,
		"min":[0]
	},
	{
		"max":[0.5451087355613709,
		1.285170316696167,
		3.2463510036468508],
		"bufferView":3,
		"type":"VEC3",
		"componentType":5126,
		"count":8578,
		"byteOffset":0,
		"min":[-0.5536556243896484,
		0.9704872369766235,
		2.970693349838257]
	},
	{
		"max":[1.0,
		1.0,
		1.0],
		"bufferView":3,
		"type":"VEC3",
		"componentType":5126,
		"count":8578,
		"byteOffset":12,
		"min":[-1.0,
		-1.0,
		-1.0]
	}],
	"bufferViews":[{
		"buffer":0,
		"byteOffset":0,
		"target":34963,
		"byteLength":35328
	},
	{
		"buffer":0,
		"byteOffset":35328,
		"target":34962,
		"byteLength":95400,
		"byteStride":24
	},
	{
		"buffer":1,
		"byteOffset":0,
		"target":34963,
		"byteLength":73632
	},
	{
		"buffer":1,
		"byteOffset":73632,
		"target":34962,
		"byteLength":205872,
		"byteStride":24
	}],
	"buffers":[{
		"uri":"data:application/octet-stream;base64,",
		"byteLength":130728
	},
	{
		"uri":"data:application/octet-stream;base64,",
		"byteLength":279504
	}],
	"materials":[{
		"pbrMetallicRoughness":{
			"baseColorFactor":[0.8,
			0.8,
			0.8,
			1.0],
			"metallicFactor":1.0,
			"roughnessFactor":0.1
		},
		"emissiveFactor":[0.0,
		0.0,
		0.0],
		"alphaMode":"OPAQUE",
		"doubleSided":true,
		"name":"chrome"
	}]
}