{
	"asset":{
		"version":"2.0",
		"generator":"Maxon Cinema 4D 2023.2.0 (#200000219)"
	},
	"scenes":[{
		"nodes":[0]
	}],
	"nodes":[{
		"children":[1,
		2],
		"name":"Null",
		"translation":[0.0,
		-0.04381193965673447,
		0.2973228991031647],
		"rotation":[0.0,
		0.0,
		0.0,
		-1.0],
		"scale":[1.0,
		1.0,
		1.0]
	},
	{
		"mesh":0,
		"name":"2019",
		"translation":[-1.9111445570221169e-16,
		1.1617661714553834,
		0.8296429514884949],
		"rotation":[0.0,
		0.0,
		0.0,
		-1.0],
		"scale":[1.0,
		1.0,
		1.0]
	},
	{
		"mesh":1,
		"name":"LCVXR.Body_fullsize_body.1"
	}],
	"meshes":[{
		"name":"2019",
		"primitives":[{
			"attributes":{
				"POSITION":1,
				"NORMAL":2
			},
			"indices":0,
			"material":0
		}]
	},
	{
		"name":"LCVXR.Body_fullsize_body.1",
		"primitives":[{
			"attributes":{
				"POSITION":4,
				"NORMAL":5
			},
			"indices":3,
			"material":0
		}]
	}],
	"accessors":[{
		"max":[12695],
		"bufferView":0,
		"type":"SCALAR",
		"componentType":5123,
		"count":50328,
		"byteOffset":0,
		"min":[0]
	},
	{
		"max":[1.027215838432312,
		0.18253490328788758,
		1.889427900314331],
		"bufferView":1,
		"type":"VEC3",
		"componentType":5126,
		"count":12696,
		"byteOffset":0,
		"min":[-1.027215838432312,
		-0.22927741706371308,
		1.431176781654358]
	},
	{
		"max":[0.9999977350234985,
		0.9999970197677612,
		0.9999833106994629],
		"bufferView":1,
		"type":"VEC3",
		"componentType":5126,
		"count":12696,
		"byteOffset":12,
		"min":[-0.9999978542327881,
		-0.9999990463256836,
		-0.9973098039627075]
	},
	{
		"max":[846],
		"bufferView":2,
		"type":"SCALAR",
		"componentType":5123,
		"count":4530,
		"byteOffset":0,
		"min":[0]
	},
	{
		"max":[0.09777470678091049,
		1.2445142269134522,
		2.7149457931518556],
		"bufferView":3,
		"type":"VEC3",
		"componentType":5126,
		"count":847,
		"byteOffset":0,
		"min":[-0.10008009523153305,
		1.1135077476501465,
		2.660827875137329]
	},
	{
		"max":[0.999889075756073,
		0.9999590516090393,
		0.996705174446106],
		"bufferView":3,
		"type":"VEC3",
		"componentType":5126,
		"count":847,
		"byteOffset":12,
		"min":[-0.999889075756073,
		-0.9921330213546753,
		-0.12759773433208466]
	}],
	"bufferViews":[{
		"buffer":0,
		"byteOffset":0,
		"target":34963,
		"byteLength":100656
	},
	{
		"buffer":0,
		"byteOffset":100656,
		"target":34962,
		"byteLength":304704,
		"byteStride":24
	},
	{
		"buffer":1,
		"byteOffset":0,
		"target":34963,
		"byteLength":9060
	},
	{
		"buffer":1,
		"byteOffset":9060,
		"target":34962,
		"byteLength":20328,
		"byteStride":24
	}],
	"buffers":[{
		"uri":"data:application/octet-stream;base64,",
		"byteLength":405360
	},
	{
		"uri":"data:application/octet-stream;base64,",
		"byteLength":29388
	}],
	"materials":[{
		"pbrMetallicRoughness":{
			"baseColorFactor":[0.8,
			0.8,
			0.8,
			1.0],
			"metallicFactor":1.0,
			"roughnessFactor":0.1
		},
		"emissiveFactor":[0.0,
		0.0,
		0.0],
		"alphaMode":"OPAQUE",
		"doubleSided":true,
		"name":"chrome"
	}]
}