{
	"asset":{
		"version":"2.0",
		"generator":"Maxon Cinema 4D 2023.2.0 (#200000219)"
	},
	"scenes":[{
		"nodes":[0,
		1,
		2,
		3,
		4]
	}],
	"nodes":[{
		"name":"black",
		"mesh":0,
		"translation":[-1.3134336402097517e-16,
		1.1037929058074952,
		0.15082988142967225],
		"scale":[1.0,
		1.0,
		1.0],
		"rotation":[0.0,
		0.0,
		0.0,
		-1.0]
	},
	{
		"name":"dark chrome",
		"mesh":1,
		"translation":[0.5889878273010254,
		1.1602845191955567,
		1.4048820734024048],
		"scale":[1.0,
		1.0,
		1.0],
		"rotation":[0.0,
		0.0,
		0.0,
		-1.0]
	},
	{
		"name":"window",
		"mesh":2,
		"translation":[-1.3134336402097517e-16,
		1.1037929058074952,
		0.15082988142967225],
		"scale":[1.0,
		1.0,
		1.0],
		"rotation":[0.0,
		-0.7071067690849304,
		0.0,
		-0.7071067690849304]
	},
	{
		"name":"blinker",
		"mesh":3,
		"translation":[0.7581248879432678,
		1.175313115119934,
		2.734349250793457],
		"scale":[1.0,
		1.0,
		1.0],
		"rotation":[0.0,
		0.0,
		0.0,
		-1.0]
	},
	{
		"name":"light",
		"mesh":4,
		"translation":[0.41985082626342776,
		1.1452560424804688,
		0.07541494071483612],
		"scale":[1.0,
		1.0,
		1.0],
		"rotation":[0.0,
		0.0,
		0.0,
		-1.0]
	}],
	"meshes":[{
		"name":"black",
		"primitives":[{
			"attributes":{
				"POSITION":1,
				"NORMAL":2
			},
			"indices":0,
			"material":0
		}]
	},
	{
		"name":"dark chrome",
		"primitives":[{
			"attributes":{
				"POSITION":4,
				"NORMAL":5
			},
			"indices":3,
			"material":0
		}]
	},
	{
		"name":"window",
		"primitives":[{
			"attributes":{
				"POSITION":7,
				"NORMAL":8
			},
			"indices":6,
			"material":1
		}]
	},
	{
		"name":"blinker",
		"primitives":[{
			"attributes":{
				"POSITION":10,
				"NORMAL":11
			},
			"indices":9,
			"material":2
		}]
	},
	{
		"name":"light",
		"primitives":[{
			"attributes":{
				"POSITION":13,
				"NORMAL":14
			},
			"indices":12,
			"material":2
		}]
	}],
	"accessors":[{
		"bufferView":0,
		"type":"SCALAR",
		"componentType":5123,
		"count":9768,
		"byteOffset":0,
		"min":[0],
		"max":[2549]
	},
	{
		"bufferView":1,
		"type":"VEC3",
		"componentType":5126,
		"count":2550,
		"byteOffset":0,
		"min":[-1.0942410230636597,
		-0.09890813380479813,
		2.2023816108703615],
		"max":[1.0942410230636597,
		0.17266061902046204,
		2.718872308731079]
	},
	{
		"bufferView":1,
		"type":"VEC3",
		"componentType":5126,
		"count":2550,
		"byteOffset":12,
		"min":[-0.9999447464942932,
		-0.9999806880950928,
		-0.1687845140695572],
		"max":[0.9999447464942932,
		0.9998927712440491,
		0.9872248768806458]
	},
	{
		"bufferView":2,
		"type":"SCALAR",
		"componentType":5123,
		"count":228774,
		"byteOffset":0,
		"min":[0],
		"max":[59621]
	},
	{
		"bufferView":3,
		"type":"VEC3",
		"componentType":5126,
		"count":59622,
		"byteOffset":0,
		"min":[-1.6754438877105713,
		-0.13808183372020722,
		0.974942684173584],
		"max":[0.4974682033061981,
		0.0919606164097786,
		1.4502586126327515]
	},
	{
		"bufferView":3,
		"type":"VEC3",
		"componentType":5126,
		"count":59622,
		"byteOffset":12,
		"min":[-1.0,
		-0.9999966621398926,
		-0.9984890818595886],
		"max":[1.0,
		0.9999970197677612,
		0.9991604089736939]
	},
	{
		"bufferView":4,
		"type":"SCALAR",
		"componentType":5123,
		"count":22008,
		"byteOffset":0,
		"min":[0],
		"max":[4467]
	},
	{
		"bufferView":5,
		"type":"VEC3",
		"componentType":5126,
		"count":4468,
		"byteOffset":0,
		"min":[-2.7177577018737795,
		-0.08790186792612076,
		-1.1045200824737549],
		"max":[-2.21113657951355,
		0.17279262840747834,
		1.1045200824737549]
	},
	{
		"bufferView":5,
		"type":"VEC3",
		"componentType":5126,
		"count":4468,
		"byteOffset":12,
		"min":[-0.9948192238807678,
		-0.9992669224739075,
		-0.9997335076332092],
		"max":[0.999770998954773,
		0.9991921782493591,
		0.9997335076332092]
	},
	{
		"bufferView":6,
		"type":"SCALAR",
		"componentType":5123,
		"count":1584,
		"byteOffset":0,
		"min":[0],
		"max":[419]
	},
	{
		"bufferView":7,
		"type":"VEC3",
		"componentType":5126,
		"count":420,
		"byteOffset":0,
		"min":[-1.7313445806503297,
		-0.03986794501543045,
		-0.13999982178211213],
		"max":[0.21509473025798798,
		0.06020323187112808,
		0.03915438801050186]
	},
	{
		"bufferView":7,
		"type":"VEC3",
		"componentType":5126,
		"count":420,
		"byteOffset":12,
		"min":[-0.7480414509773254,
		-0.3811986446380615,
		0.5778272747993469],
		"max":[0.7480414509773254,
		0.7378212213516235,
		0.983266294002533]
	},
	{
		"bufferView":8,
		"type":"SCALAR",
		"componentType":5123,
		"count":174,
		"byteOffset":0,
		"min":[0],
		"max":[77]
	},
	{
		"bufferView":9,
		"type":"VEC3",
		"componentType":5126,
		"count":78,
		"byteOffset":0,
		"min":[-1.4030214548110963,
		-0.12305327504873276,
		2.5766947269439699],
		"max":[0.5633198618888855,
		-0.05943429470062256,
		2.7844085693359377]
	},
	{
		"bufferView":9,
		"type":"VEC3",
		"componentType":5126,
		"count":78,
		"byteOffset":12,
		"min":[-0.9809548854827881,
		-0.9419592618942261,
		-0.06384561955928803],
		"max":[0.9809548854827881,
		0.9404873251914978,
		0.8654216527938843]
	}],
	"bufferViews":[{
		"buffer":0,
		"byteOffset":0,
		"byteLength":19536,
		"target":34963
	},
	{
		"buffer":0,
		"byteOffset":19536,
		"byteLength":61200,
		"target":34962,
		"byteStride":24
	},
	{
		"buffer":1,
		"byteOffset":0,
		"byteLength":457548,
		"target":34963
	},
	{
		"buffer":1,
		"byteOffset":457548,
		"byteLength":1430928,
		"target":34962,
		"byteStride":24
	},
	{
		"buffer":2,
		"byteOffset":0,
		"byteLength":44016,
		"target":34963
	},
	{
		"buffer":2,
		"byteOffset":44016,
		"byteLength":107232,
		"target":34962,
		"byteStride":24
	},
	{
		"buffer":3,
		"byteOffset":0,
		"byteLength":3168,
		"target":34963
	},
	{
		"buffer":3,
		"byteOffset":3168,
		"byteLength":10080,
		"target":34962,
		"byteStride":24
	},
	{
		"buffer":4,
		"byteOffset":0,
		"byteLength":348,
		"target":34963
	},
	{
		"buffer":4,
		"byteOffset":348,
		"byteLength":1872,
		"target":34962,
		"byteStride":24
	}],
	"buffers":[{
		"uri":"data:application/octet-stream;base64,",
		"byteLength":80736
	},
	{
		"uri":"data:application/octet-stream;base64,",
		"byteLength":1888476
	},
	{
		"uri":"data:application/octet-stream;base64,",
		"byteLength":151248
	},
	{
		"uri":"data:application/octet-stream;base64,",
		"byteLength":13248
	},
	{
		"uri":"data:application/octet-stream;base64,",
		"byteLength":2220
	}],
	"materials":[{
		"pbrMetallicRoughness":{
			"baseColorFactor":[0.15,
			0.15,
			0.15,
			1.0],
			"metallicFactor":0.0,
			"roughnessFactor":0.55
		},
		"name":"black",
		"emissiveFactor":[0.0,
		0.0,
		0.0],
		"alphaMode":"OPAQUE",
		"doubleSided":true
	},
	{
		"pbrMetallicRoughness":{
			"baseColorFactor":[0.8,
			0.8,
			0.8,
			0.29000000000000006],
			"metallicFactor":0.0,
			"roughnessFactor":0.5
		},
		"name":"Mat",
		"emissiveFactor":[0.0,
		0.0,
		0.0],
		"alphaMode":"BLEND",
		"doubleSided":true
	},
	{
		"pbrMetallicRoughness":{
			"baseColorFactor":[1.0,
			1.0,
			1.0,
			1.0],
			"metallicFactor":0.0,
			"roughnessFactor":0.5
		},
		"name":"blinker",
		"emissiveFactor":[1.0,
		1.0,
		1.0],
		"alphaMode":"OPAQUE",
		"doubleSided":true
	}]
}