{
	"asset":{
		"version":"2.0",
		"generator":"Maxon Cinema 4D 2023.2.0 (#200000219)"
	},
	"scenes":[{
		"nodes":[0,
		1,
		2,
		3]
	}],
	"accessors":[{
		"bufferView":0,
		"type":"SCALAR",
		"componentType":5123,
		"count":22008,
		"byteOffset":0,
		"min":[0],
		"max":[4475]
	},
	{
		"bufferView":1,
		"type":"VEC3",
		"componentType":5126,
		"count":4476,
		"byteOffset":0,
		"min":[-1.1114919185638428,
		-0.08679871261119843,
		2.189457893371582],
		"max":[1.1114919185638428,
		0.17389579117298127,
		2.6832571029663088]
	},
	{
		"bufferView":1,
		"type":"VEC3",
		"componentType":5126,
		"count":4476,
		"byteOffset":12,
		"min":[-0.9997029900550842,
		-0.9992403388023377,
		-0.9997872114181519],
		"max":[0.9997029900550842,
		0.9992007613182068,
		0.9952710866928101]
	},
	{
		"bufferView":2,
		"type":"SCALAR",
		"componentType":5123,
		"count":267378,
		"byteOffset":0,
		"min":[0],
		"max":[47089]
	},
	{
		"bufferView":3,
		"type":"VEC3",
		"componentType":5126,
		"count":47090,
		"byteOffset":0,
		"min":[-1.100847601890564,
		-0.0978049784898758,
		2.180924654006958],
		"max":[1.100847601890564,
		0.17376378178596497,
		2.6843438148498537]
	},
	{
		"bufferView":3,
		"type":"VEC3",
		"componentType":5126,
		"count":47090,
		"byteOffset":12,
		"min":[-1.0,
		-0.9999988079071045,
		-0.9986928701400757],
		"max":[1.0,
		0.9999963045120239,
		1.0]
	},
	{
		"bufferView":4,
		"type":"SCALAR",
		"componentType":5123,
		"count":5364,
		"byteOffset":0,
		"min":[0],
		"max":[2455]
	},
	{
		"bufferView":5,
		"type":"VEC3",
		"componentType":5126,
		"count":2456,
		"byteOffset":0,
		"min":[-1.0779271125793458,
		-0.08063288033008576,
		2.3681533336639406],
		"max":[1.0779271125793458,
		0.03661923483014107,
		2.6485159397125246]
	},
	{
		"bufferView":5,
		"type":"VEC3",
		"componentType":5126,
		"count":2456,
		"byteOffset":12,
		"min":[-0.9937924146652222,
		-0.9990343451499939,
		-0.901680588722229],
		"max":[0.9937924146652222,
		0.9999998807907105,
		0.9523539543151856]
	},
	{
		"bufferView":6,
		"type":"SCALAR",
		"componentType":5123,
		"count":73728,
		"byteOffset":0,
		"min":[0],
		"max":[12305]
	},
	{
		"bufferView":7,
		"type":"VEC3",
		"componentType":5126,
		"count":12306,
		"byteOffset":0,
		"min":[-0.9792314171791077,
		0.05817496404051781,
		2.353498935699463],
		"max":[0.9792314171791077,
		0.11952489614486695,
		2.589165210723877]
	},
	{
		"bufferView":7,
		"type":"VEC3",
		"componentType":5126,
		"count":12306,
		"byteOffset":12,
		"min":[-0.9999964237213135,
		-0.9999821186065674,
		-0.9993714094161987],
		"max":[0.9999964237213135,
		0.9999626278877258,
		1.0]
	}],
	"nodes":[{
		"name":"window",
		"mesh":0,
		"translation":[-1.3134336402097517e-16,
		1.1037929058074952,
		0.15082988142967225],
		"rotation":[0.0,
		0.0,
		0.0,
		-1.0],
		"scale":[1.0,
		1.0,
		1.0]
	},
	{
		"name":"dark chrome",
		"mesh":1,
		"translation":[-1.3134336402097517e-16,
		1.1037929058074952,
		0.15082988142967225],
		"rotation":[0.0,
		0.0,
		0.0,
		-1.0],
		"scale":[1.0,
		1.0,
		1.0]
	},
	{
		"name":"light",
		"mesh":2,
		"translation":[-1.3134336402097517e-16,
		1.1037929058074952,
		0.15082988142967225],
		"rotation":[0.0,
		0.0,
		0.0,
		-1.0],
		"scale":[1.0,
		1.0,
		1.0]
	},
	{
		"name":"chrome",
		"mesh":3,
		"translation":[-1.3134336402097517e-16,
		1.1037929058074952,
		0.15082988142967225],
		"rotation":[0.0,
		0.0,
		0.0,
		-1.0],
		"scale":[1.0,
		1.0,
		1.0]
	}],
	"meshes":[{
		"name":"window",
		"primitives":[{
			"attributes":{
				"POSITION":1,
				"NORMAL":2
			},
			"indices":0,
			"material":0
		}]
	},
	{
		"name":"dark chrome",
		"primitives":[{
			"attributes":{
				"POSITION":4,
				"NORMAL":5
			},
			"indices":3,
			"material":1
		}]
	},
	{
		"name":"light",
		"primitives":[{
			"attributes":{
				"POSITION":7,
				"NORMAL":8
			},
			"indices":6,
			"material":2
		}]
	},
	{
		"name":"chrome",
		"primitives":[{
			"attributes":{
				"POSITION":10,
				"NORMAL":11
			},
			"indices":9,
			"material":3
		}]
	}],
	"bufferViews":[{
		"buffer":0,
		"byteOffset":0,
		"byteLength":44016,
		"target":34963
	},
	{
		"buffer":0,
		"byteOffset":44016,
		"byteLength":107424,
		"target":34962,
		"byteStride":24
	},
	{
		"buffer":1,
		"byteOffset":0,
		"byteLength":534756,
		"target":34963
	},
	{
		"buffer":1,
		"byteOffset":534756,
		"byteLength":1130160,
		"target":34962,
		"byteStride":24
	},
	{
		"buffer":2,
		"byteOffset":0,
		"byteLength":10728,
		"target":34963
	},
	{
		"buffer":2,
		"byteOffset":10728,
		"byteLength":58944,
		"target":34962,
		"byteStride":24
	},
	{
		"buffer":3,
		"byteOffset":0,
		"byteLength":147456,
		"target":34963
	},
	{
		"buffer":3,
		"byteOffset":147456,
		"byteLength":295344,
		"target":34962,
		"byteStride":24
	}],
	"buffers":[{
		"uri":"data:application/octet-stream;base64,",
		"byteLength":151440
	},
	{
		"uri":"data:application/octet-stream;base64,",
		"byteLength":1664916
	},
	{
		"uri":"data:application/octet-stream;base64,",
		"byteLength":69672
	},
	{
		"uri":"data:application/octet-stream;base64,",
		"byteLength":442800
	}],
	"materials":[{
		"name":"Mat",
		"pbrMetallicRoughness":{
			"baseColorFactor":[0.8,
			0.8,
			0.8,
			0.14],
			"metallicFactor":1.0,
			"roughnessFactor":0.1
		},
		"emissiveFactor":[0.0,
		0.0,
		0.0],
		"alphaMode":"BLEND",
		"doubleSided":true
	},
	{
		"name":"chrome",
		"pbrMetallicRoughness":{
			"baseColorFactor":[0.8,
			0.8,
			0.8,
			1.0],
			"metallicFactor":0.11,
			"roughnessFactor":0.05
		},
		"emissiveFactor":[0.0,
		0.0,
		0.0],
		"alphaMode":"OPAQUE",
		"doubleSided":true
	},
	{
		"name":"light",
		"pbrMetallicRoughness":{
			"baseColorFactor":[1.0,
			1.0,
			1.0,
			1.0],
			"metallicFactor":0.0,
			"roughnessFactor":0.5
		},
		"emissiveFactor":[1.0,
		1.0,
		1.0],
		"alphaMode":"OPAQUE",
		"doubleSided":true
	},
	{
		"name":"chrome",
		"pbrMetallicRoughness":{
			"baseColorFactor":[0.8,
			0.8,
			0.8,
			1.0],
			"metallicFactor":0.35000000000000006,
			"roughnessFactor":0.05
		},
		"emissiveFactor":[0.0,
		0.0,
		0.0],
		"alphaMode":"OPAQUE",
		"doubleSided":true
	}]
}