{
	"asset":{
		"version":"2.0",
		"generator":"Maxon Cinema 4D 2023.2.0 (#200000219)"
	},
	"scenes":[{
		"nodes":[0]
	}],
	"nodes":[{
		"children":[1,
		2,
		3,
		4],
		"name":"чорні 2019",
		"translation":[-1.3134336402097517e-16,
		1.1037929058074952,
		0.15082988142967225],
		"rotation":[0.0,
		-0.7071067690849304,
		0.0,
		-0.7071067690849304],
		"scale":[1.0,
		1.0,
		1.0]
	},
	{
		"mesh":0,
		"name":"window"
	},
	{
		"mesh":1,
		"name":"chrome",
		"translation":[0.0,
		-1.4210854397564649e-16,
		-3.9443045848797768e-32],
		"rotation":[0.0,
		-0.7071067690849304,
		0.0,
		0.7071067690849304],
		"scale":[1.0,
		1.0,
		1.0]
	},
	{
		"mesh":2,
		"name":"light",
		"translation":[0.0,
		-1.4210854397564649e-16,
		-7.888608875885966e-33],
		"rotation":[0.0,
		-0.7071067690849304,
		0.0,
		0.7071067690849304],
		"scale":[1.0,
		1.0,
		1.0]
	},
	{
		"mesh":3,
		"name":"blinker"
	}],
	"meshes":[{
		"name":"window",
		"primitives":[{
			"attributes":{
				"POSITION":1,
				"NORMAL":2,
				"TEXCOORD_0":3
			},
			"indices":0,
			"material":0
		}]
	},
	{
		"name":"chrome",
		"primitives":[{
			"attributes":{
				"POSITION":5,
				"NORMAL":6
			},
			"indices":4,
			"material":1
		}]
	},
	{
		"name":"light",
		"primitives":[{
			"attributes":{
				"POSITION":8,
				"NORMAL":9,
				"TEXCOORD_0":10
			},
			"indices":7,
			"material":2
		}]
	},
	{
		"name":"blinker",
		"primitives":[{
			"attributes":{
				"POSITION":12,
				"NORMAL":13,
				"TEXCOORD_0":14
			},
			"indices":11,
			"material":3
		}]
	}],
	"accessors":[{
		"max":[5167],
		"bufferView":0,
		"type":"SCALAR",
		"componentType":5123,
		"count":22008,
		"byteOffset":0,
		"min":[0]
	},
	{
		"max":[-2.1956946849823,
		0.17616747319698335,
		1.1079555749893189],
		"bufferView":1,
		"type":"VEC3",
		"componentType":5126,
		"count":5168,
		"byteOffset":0,
		"min":[-2.689453363418579,
		-0.08452703058719635,
		-1.1079555749893189]
	},
	{
		"max":[0.9997854232788086,
		0.9991955161094666,
		0.999707043170929],
		"bufferView":1,
		"type":"VEC3",
		"componentType":5126,
		"count":5168,
		"byteOffset":12,
		"min":[-0.9952394962310791,
		-0.9992379546165466,
		-0.999707043170929]
	},
	{
		"max":[1.2115999460220338,
		1.0],
		"bufferView":1,
		"type":"VEC2",
		"componentType":5126,
		"count":5168,
		"byteOffset":24,
		"min":[-0.05990000069141388,
		-0.05990000069141388]
	},
	{
		"max":[12181],
		"bufferView":2,
		"type":"SCALAR",
		"componentType":5123,
		"count":44124,
		"byteOffset":0,
		"min":[0]
	},
	{
		"max":[1.0973780155181885,
		0.17603546380996705,
		2.690539836883545],
		"bufferView":3,
		"type":"VEC3",
		"componentType":5126,
		"count":12182,
		"byteOffset":0,
		"min":[-1.0973780155181885,
		-0.09553329646587372,
		2.187162160873413]
	},
	{
		"max":[0.9999904632568359,
		0.9999914169311523,
		0.9999517798423767],
		"bufferView":3,
		"type":"VEC3",
		"componentType":5126,
		"count":12182,
		"byteOffset":12,
		"min":[-0.9999904632568359,
		-0.9999914169311523,
		-0.38742080330848696]
	},
	{
		"max":[4307],
		"bufferView":4,
		"type":"SCALAR",
		"componentType":5123,
		"count":8922,
		"byteOffset":0,
		"min":[0]
	},
	{
		"max":[1.0893669128417969,
		0.12048907577991486,
		2.6763479709625246],
		"bufferView":5,
		"type":"VEC3",
		"componentType":5126,
		"count":4308,
		"byteOffset":0,
		"min":[-1.0893669128417969,
		-0.0782153457403183,
		2.3630552291870119]
	},
	{
		"max":[0.9950727820396423,
		0.999407947063446,
		0.9994387030601502],
		"bufferView":5,
		"type":"VEC3",
		"componentType":5126,
		"count":4308,
		"byteOffset":12,
		"min":[-0.9950727820396423,
		-0.9982867240905762,
		-1.0]
	},
	{
		"max":[84.85369873046875,
		228.840087890625],
		"bufferView":5,
		"type":"VEC2",
		"componentType":5126,
		"count":4308,
		"byteOffset":24,
		"min":[0.0,
		0.0]
	},
	{
		"max":[22939],
		"bufferView":6,
		"type":"SCALAR",
		"componentType":5123,
		"count":23028,
		"byteOffset":0,
		"min":[0]
	},
	{
		"max":[-2.213099718093872,
		0.15182709693908692,
		1.0798990726470948],
		"bufferView":7,
		"type":"VEC3",
		"componentType":5126,
		"count":22940,
		"byteOffset":0,
		"min":[-2.391453742980957,
		0.06720098853111267,
		-1.0798990726470948]
	},
	{
		"max":[0.9121753573417664,
		0.9597031474113464,
		0.6874219179153442],
		"bufferView":7,
		"type":"VEC3",
		"componentType":5126,
		"count":22940,
		"byteOffset":12,
		"min":[-0.8708534240722656,
		-0.8968595266342163,
		-0.6874219179153442]
	},
	{
		"max":[0.9308000206947327,
		1.0],
		"bufferView":7,
		"type":"VEC2",
		"componentType":5126,
		"count":22940,
		"byteOffset":24,
		"min":[0.0,
		0.0]
	}],
	"bufferViews":[{
		"buffer":0,
		"byteOffset":0,
		"target":34963,
		"byteLength":44016
	},
	{
		"buffer":0,
		"byteOffset":44016,
		"target":34962,
		"byteLength":165376,
		"byteStride":32
	},
	{
		"buffer":1,
		"byteOffset":0,
		"target":34963,
		"byteLength":88248
	},
	{
		"buffer":1,
		"byteOffset":88248,
		"target":34962,
		"byteLength":292368,
		"byteStride":24
	},
	{
		"buffer":2,
		"byteOffset":0,
		"target":34963,
		"byteLength":17844
	},
	{
		"buffer":2,
		"byteOffset":17844,
		"target":34962,
		"byteLength":137856,
		"byteStride":32
	},
	{
		"buffer":3,
		"byteOffset":0,
		"target":34963,
		"byteLength":46056
	},
	{
		"buffer":3,
		"byteOffset":46056,
		"target":34962,
		"byteLength":734080,
		"byteStride":32
	}],
	"buffers":[{
		"uri":"data:application/octet-stream;base64,",
		"byteLength":209392
	},
	{
		"uri":"data:application/octet-stream;base64,",
		"byteLength":380616
	},
	{
		"uri":"data:application/octet-stream;base64,",
		"byteLength":155700
	},
	{
		"uri":"data:application/octet-stream;base64,",
		"byteLength":780136
	}],
	"materials":[{
		"pbrMetallicRoughness":{
			"baseColorFactor":[0.0,
			0.0,
			0.0,
			0.31999999999999997],
			"metallicFactor":1.0,
			"roughnessFactor":0.1
		},
		"emissiveFactor":[0.0,
		0.0,
		0.0],
		"alphaMode":"BLEND",
		"doubleSided":true,
		"name":"Mat"
	},
	{
		"pbrMetallicRoughness":{
			"baseColorFactor":[0.15,
			0.15,
			0.15,
			1.0],
			"metallicFactor":0.0,
			"roughnessFactor":0.55
		},
		"emissiveFactor":[0.0,
		0.0,
		0.0],
		"alphaMode":"OPAQUE",
		"doubleSided":true,
		"name":"black"
	},
	{
		"pbrMetallicRoughness":{
			"baseColorFactor":[1.0,
			1.0,
			1.0,
			1.0],
			"metallicFactor":0.0,
			"roughnessFactor":0.5
		},
		"emissiveFactor":[1.0,
		1.0,
		1.0],
		"alphaMode":"OPAQUE",
		"doubleSided":true,
		"name":"light"
	},
	{
		"pbrMetallicRoughness":{
			"baseColorFactor":[1.0,
			1.0,
			1.0,
			1.0],
			"metallicFactor":0.0,
			"roughnessFactor":0.5
		},
		"emissiveFactor":[1.0,
		0.9166666666666663,
		0.0],
		"alphaMode":"OPAQUE",
		"doubleSided":true,
		"name":"blinker"
	}]
}