{
	"asset":{
		"version":"2.0",
		"generator":"Maxon Cinema 4D 2023.2.0 (#200000219)"
	},
	"scenes":[{
		"nodes":[0]
	}],
	"nodes":[{
		"name":"Бугаті дизайн",
		"translation":[0.0,
		0.0,
		0.0],
		"rotation":[0.0,
		-0.7071067690849304,
		0.0,
		-0.7071067690849304],
		"scale":[1.0,
		1.0,
		1.0],
		"children":[1]
	},
	{
		"name":"Symmetry",
		"translation":[0.0,
		0.5158806443214417,
		0.0],
		"rotation":[0.0,
		-0.7071067690849304,
		0.0,
		0.7071067690849304],
		"scale":[1.0,
		1.0,
		1.0],
		"children":[2]
	},
	{
		"name":"Null",
		"translation":[-1.3134336402097517e-16,
		0.5879122614860535,
		0.15082988142967225],
		"rotation":[0.0,
		-0.7071067690849304,
		0.0,
		-0.7071067690849304],
		"scale":[1.0,
		1.0,
		1.0],
		"children":[3,
		4,
		5,
		6,
		7,
		8]
	},
	{
		"name":"LC200_BlackPlastic_1",
		"mesh":0,
		"translation":[0.0,
		-0.49972885847091677,
		2.3665826627657897e-32],
		"rotation":[0.0,
		0.0,
		0.0,
		-1.0],
		"scale":[1.0,
		1.0,
		1.0]
	},
	{
		"name":"LC200_BlackPlastic_1.3",
		"mesh":1
	},
	{
		"name":"Subdivision Surface",
		"translation":[0.15082988142967225,
		0.0829261913895607,
		0.8397016525268555],
		"rotation":[0.015250409953296185,
		0.7069423198699951,
		-0.015250409953296185,
		-0.7069423198699951],
		"scale":[1.0,
		1.0,
		1.0],
		"children":[9]
	},
	{
		"name":"LC200_CarGlass_Clear_1.1",
		"mesh":2
	},
	{
		"name":"LC200_BlackPlastic_1.1",
		"mesh":3
	},
	{
		"name":"LC200_BlackPlastic_1.2",
		"mesh":4
	},
	{
		"name":"Null",
		"children":[10,
		11]
	},
	{
		"name":"Cube.2",
		"mesh":5
	},
	{
		"name":"Cube",
		"mesh":6
	}],
	"meshes":[{
		"name":"LC200_BlackPlastic_1",
		"primitives":[{
			"attributes":{
				"POSITION":1,
				"NORMAL":2,
				"TEXCOORD_0":3
			},
			"indices":0,
			"material":0
		}]
	},
	{
		"name":"LC200_BlackPlastic_1.3",
		"primitives":[{
			"attributes":{
				"POSITION":5,
				"NORMAL":6,
				"TEXCOORD_0":7
			},
			"indices":4,
			"material":1
		}]
	},
	{
		"name":"LC200_CarGlass_Clear_1.1",
		"primitives":[{
			"attributes":{
				"POSITION":9,
				"NORMAL":10,
				"TEXCOORD_0":11
			},
			"indices":8,
			"material":2
		}]
	},
	{
		"name":"LC200_BlackPlastic_1.1",
		"primitives":[{
			"attributes":{
				"POSITION":13,
				"NORMAL":14,
				"TEXCOORD_0":15
			},
			"indices":12,
			"material":0
		}]
	},
	{
		"name":"LC200_BlackPlastic_1.2",
		"primitives":[{
			"attributes":{
				"POSITION":17,
				"NORMAL":18,
				"TEXCOORD_0":19
			},
			"indices":16,
			"material":0
		}]
	},
	{
		"name":"Cube.2",
		"primitives":[{
			"attributes":{
				"POSITION":21,
				"NORMAL":22,
				"TEXCOORD_0":23
			},
			"indices":20,
			"material":1
		}]
	},
	{
		"name":"Cube",
		"primitives":[{
			"attributes":{
				"POSITION":25,
				"NORMAL":26,
				"TEXCOORD_0":27
			},
			"indices":24,
			"material":0
		}]
	}],
	"accessors":[{
		"bufferView":0,
		"type":"SCALAR",
		"count":714,
		"componentType":5123,
		"byteOffset":0,
		"min":[0],
		"max":[245]
	},
	{
		"bufferView":1,
		"type":"VEC3",
		"count":246,
		"componentType":5126,
		"byteOffset":0,
		"min":[-2.6423187255859377,
		0.418999046087265,
		-1.0909734964370728],
		"max":[-2.3645501136779787,
		0.5363481044769287,
		1.0909734964370728]
	},
	{
		"bufferView":1,
		"type":"VEC3",
		"count":246,
		"componentType":5126,
		"byteOffset":12,
		"min":[-0.9177436828613281,
		0.01565674878656864,
		-0.7276481986045837],
		"max":[-0.6857718229293823,
		0.3873542547225952,
		0.7276481986045837]
	},
	{
		"bufferView":1,
		"type":"VEC2",
		"count":246,
		"componentType":5126,
		"byteOffset":24,
		"min":[0.0,
		0.0],
		"max":[1.0,
		1.0]
	},
	{
		"bufferView":2,
		"type":"SCALAR",
		"count":5364,
		"componentType":5123,
		"byteOffset":0,
		"min":[0],
		"max":[2934]
	},
	{
		"bufferView":3,
		"type":"VEC3",
		"count":2935,
		"componentType":5126,
		"byteOffset":0,
		"min":[-2.6485159397125246,
		-0.08063288033008576,
		-1.0779271125793458],
		"max":[-2.3681533336639406,
		0.03661923483014107,
		1.0779271125793458]
	},
	{
		"bufferView":3,
		"type":"VEC3",
		"count":2935,
		"componentType":5126,
		"byteOffset":12,
		"min":[-0.9523539543151856,
		-0.9990343451499939,
		-0.9937924146652222],
		"max":[0.9016806483268738,
		0.9999998807907105,
		0.9937924146652222]
	},
	{
		"bufferView":3,
		"type":"VEC2",
		"count":2935,
		"componentType":5126,
		"byteOffset":24,
		"min":[-0.007435531355440617,
		-0.0030365274287760259],
		"max":[1.0054354667663575,
		1.0041680335998536]
	},
	{
		"bufferView":4,
		"type":"SCALAR",
		"count":23184,
		"componentType":5123,
		"byteOffset":0,
		"min":[0],
		"max":[5535]
	},
	{
		"bufferView":5,
		"type":"VEC3",
		"count":5536,
		"componentType":5126,
		"byteOffset":0,
		"min":[-2.6832571029663088,
		-0.3516325056552887,
		-1.1114919185638428],
		"max":[-2.189457893371582,
		0.17389579117298127,
		1.1114919185638428]
	},
	{
		"bufferView":5,
		"type":"VEC3",
		"count":5536,
		"componentType":5126,
		"byteOffset":12,
		"min":[-0.9997532367706299,
		-0.9992403388023377,
		-0.9997029900550842],
		"max":[0.9998377561569214,
		0.9992007613182068,
		0.9997029900550842]
	},
	{
		"bufferView":5,
		"type":"VEC2",
		"count":5536,
		"componentType":5126,
		"byteOffset":24,
		"min":[-0.05990000069141388,
		-0.05990000069141388],
		"max":[1.2115999460220338,
		1.0]
	},
	{
		"bufferView":6,
		"type":"SCALAR",
		"count":8928,
		"componentType":5123,
		"byteOffset":0,
		"min":[0],
		"max":[2937]
	},
	{
		"bufferView":7,
		"type":"VEC3",
		"count":2938,
		"componentType":5126,
		"byteOffset":0,
		"min":[-2.6843438148498537,
		-0.0978049784898758,
		-1.100847601890564],
		"max":[-2.180924654006958,
		0.17376378178596497,
		1.100847601890564]
	},
	{
		"bufferView":7,
		"type":"VEC3",
		"count":2938,
		"componentType":5126,
		"byteOffset":12,
		"min":[-0.9884548187255859,
		-0.9999804496765137,
		-0.9999392628669739],
		"max":[0.17562831938266755,
		0.9998944401741028,
		0.9999392628669739]
	},
	{
		"bufferView":7,
		"type":"VEC2",
		"count":2938,
		"componentType":5126,
		"byteOffset":24,
		"min":[-0.8334000110626221,
		-0.9127999544143677],
		"max":[1.957900047302246,
		1.351099967956543]
	},
	{
		"bufferView":8,
		"type":"SCALAR",
		"count":840,
		"componentType":5123,
		"byteOffset":0,
		"min":[0],
		"max":[503]
	},
	{
		"bufferView":9,
		"type":"VEC3",
		"count":504,
		"componentType":5126,
		"byteOffset":0,
		"min":[-2.6479148864746095,
		0.024983571842312814,
		-0.9942386746406555],
		"max":[-2.312761068344116,
		0.14903327822685243,
		0.9942386746406555]
	},
	{
		"bufferView":9,
		"type":"VEC3",
		"count":504,
		"componentType":5126,
		"byteOffset":12,
		"min":[-0.9697266221046448,
		-0.9999503493309021,
		-0.9996684193611145],
		"max":[0.0,
		0.9989827871322632,
		0.9996684193611145]
	},
	{
		"bufferView":9,
		"type":"VEC2",
		"count":504,
		"componentType":5126,
		"byteOffset":24,
		"min":[0.0,
		0.0],
		"max":[1.0,
		1.0]
	},
	{
		"bufferView":10,
		"type":"SCALAR",
		"count":256896,
		"componentType":5123,
		"byteOffset":0,
		"min":[0],
		"max":[48247]
	},
	{
		"bufferView":11,
		"type":"VEC3",
		"count":48248,
		"componentType":5126,
		"byteOffset":0,
		"min":[-1.8309277296066285,
		-0.03166026994585991,
		2.4945905208587648],
		"max":[0.15256862342357636,
		0.12790650129318238,
		2.7218151092529299]
	},
	{
		"bufferView":11,
		"type":"VEC3",
		"count":48248,
		"componentType":5126,
		"byteOffset":12,
		"min":[-1.0,
		-1.0,
		-0.9986928701400757],
		"max":[1.0,
		0.9999985694885254,
		1.0]
	},
	{
		"bufferView":11,
		"type":"VEC2",
		"count":48248,
		"componentType":5126,
		"byteOffset":24,
		"min":[0.0,
		0.0],
		"max":[1.0,
		1.0]
	},
	{
		"bufferView":12,
		"type":"SCALAR",
		"count":73728,
		"componentType":5123,
		"byteOffset":0,
		"min":[0],
		"max":[13507]
	},
	{
		"bufferView":13,
		"type":"VEC3",
		"count":13508,
		"componentType":5126,
		"byteOffset":0,
		"min":[-1.8170207738876343,
		-0.018652943894267083,
		2.504328966140747],
		"max":[0.13980640470981599,
		0.11415092647075653,
		2.739995002746582]
	},
	{
		"bufferView":13,
		"type":"VEC3",
		"count":13508,
		"componentType":5126,
		"byteOffset":12,
		"min":[-0.9999886751174927,
		-0.9999960660934448,
		-0.9993717670440674],
		"max":[0.9999971389770508,
		0.9999959468841553,
		1.0]
	},
	{
		"bufferView":13,
		"type":"VEC2",
		"count":13508,
		"componentType":5126,
		"byteOffset":24,
		"min":[0.0,
		0.0],
		"max":[1.0,
		1.0]
	}],
	"bufferViews":[{
		"buffer":0,
		"byteOffset":0,
		"byteLength":1428,
		"target":34963
	},
	{
		"buffer":0,
		"byteOffset":1428,
		"byteLength":7872,
		"target":34962,
		"byteStride":32
	},
	{
		"buffer":1,
		"byteOffset":0,
		"byteLength":10728,
		"target":34963
	},
	{
		"buffer":1,
		"byteOffset":10728,
		"byteLength":93920,
		"target":34962,
		"byteStride":32
	},
	{
		"buffer":2,
		"byteOffset":0,
		"byteLength":46368,
		"target":34963
	},
	{
		"buffer":2,
		"byteOffset":46368,
		"byteLength":177152,
		"target":34962,
		"byteStride":32
	},
	{
		"buffer":3,
		"byteOffset":0,
		"byteLength":17856,
		"target":34963
	},
	{
		"buffer":3,
		"byteOffset":17856,
		"byteLength":94016,
		"target":34962,
		"byteStride":32
	},
	{
		"buffer":4,
		"byteOffset":0,
		"byteLength":1680,
		"target":34963
	},
	{
		"buffer":4,
		"byteOffset":1680,
		"byteLength":16128,
		"target":34962,
		"byteStride":32
	},
	{
		"buffer":5,
		"byteOffset":0,
		"byteLength":513792,
		"target":34963
	},
	{
		"buffer":5,
		"byteOffset":513792,
		"byteLength":1543936,
		"target":34962,
		"byteStride":32
	},
	{
		"buffer":6,
		"byteOffset":0,
		"byteLength":147456,
		"target":34963
	},
	{
		"buffer":6,
		"byteOffset":147456,
		"byteLength":432256,
		"target":34962,
		"byteStride":32
	}],
	"buffers":[{
		"uri":"data:application/octet-stream;base64,",
		"byteLength":9300
	},
	{
		"uri":"data:application/octet-stream;base64,",
		"byteLength":104648
	},
	{
		"uri":"data:application/octet-stream;base64,",
		"byteLength":223520
	},
	{
		"uri":"data:application/octet-stream;base64,",
		"byteLength":111872
	},
	{
		"uri":"data:application/octet-stream;base64,",
		"byteLength":17808
	},
	{
		"uri":"data:application/octet-stream;base64,",
		"byteLength":2057728
	},
	{
		"uri":"data:application/octet-stream;base64,",
		"byteLength":579712
	}],
	"materials":[{
		"pbrMetallicRoughness":{
			"baseColorFactor":[0.34,
			0.34,
			0.34,
			1.0],
			"metallicFactor":0.0,
			"roughnessFactor":0.47000000000000005
		},
		"emissiveFactor":[0.0,
		0.0,
		0.0],
		"alphaMode":"OPAQUE",
		"doubleSided":false,
		"name":"Mat"
	},
	{
		"pbrMetallicRoughness":{
			"baseColorFactor":[1.0,
			1.0,
			1.0,
			1.0],
			"metallicFactor":0.0,
			"roughnessFactor":0.5
		},
		"emissiveFactor":[0.0,
		0.0,
		0.0],
		"alphaMode":"OPAQUE",
		"doubleSided":false,
		"name":"Default"
	},
	{
		"pbrMetallicRoughness":{
			"baseColorFactor":[0.8,
			0.8,
			0.8,
			0.47],
			"metallicFactor":1.0,
			"roughnessFactor":0.1
		},
		"emissiveFactor":[0.0,
		0.0,
		0.0],
		"alphaMode":"BLEND",
		"doubleSided":false,
		"name":"Mat"
	}]
}