{
	"asset":{
		"version":"2.0",
		"generator":"Maxon Cinema 4D 2023.2.0 (#200000219)"
	},
	"scenes":[{
		"nodes":[0]
	}],
	"nodes":[{
		"name":"ЛХ дизайн",
		"translation":[-1.3134336402097517e-16,
		0.0,
		0.0],
		"rotation":[0.0,
		-0.7071067690849304,
		0.0,
		-0.7071067690849304],
		"scale":[1.0,
		1.0,
		1.0],
		"children":[1]
	},
	{
		"name":"Symmetry",
		"translation":[0.0,
		0.5158806443214417,
		1.3134336402097517e-16],
		"rotation":[0.0,
		-0.7071067690849304,
		0.0,
		0.7071067690849304],
		"scale":[1.0,
		1.0,
		1.0],
		"children":[2]
	},
	{
		"name":"Null",
		"translation":[-1.3134336402097517e-16,
		0.5879122614860535,
		0.15082988142967225],
		"rotation":[0.0,
		-0.7071067690849304,
		0.0,
		-0.7071067690849304],
		"scale":[1.0,
		1.0,
		1.0],
		"children":[3,
		4,
		5,
		6,
		7,
		8,
		9,
		10]
	},
	{
		"name":"Subdivision Surface",
		"mesh":0,
		"translation":[0.15082988142967225,
		0.0829261913895607,
		0.8397016525268555],
		"rotation":[0.015250409953296185,
		0.7069423198699951,
		-0.015250409953296185,
		-0.7069423198699951],
		"scale":[1.0,
		1.0,
		1.0]
	},
	{
		"name":"Cube.2",
		"mesh":1,
		"translation":[-2.583519220352173,
		0.07152019441127777,
		0.7581248879432678],
		"rotation":[0.0,
		-0.7071067690849304,
		0.0,
		0.7071067690849304],
		"scale":[1.0,
		1.0,
		1.0]
	},
	{
		"name":"Cube.1",
		"mesh":2,
		"translation":[-2.583519220352173,
		0.07152019441127777,
		0.7581248879432678],
		"rotation":[0.0,
		-0.7071067690849304,
		0.0,
		0.7071067690849304],
		"scale":[1.0,
		1.0,
		1.0]
	},
	{
		"name":"Cube",
		"mesh":3,
		"translation":[-2.583519220352173,
		0.07152019441127777,
		0.7581248879432678],
		"rotation":[0.0,
		-0.7071067690849304,
		0.0,
		0.7071067690849304],
		"scale":[1.0,
		1.0,
		1.0]
	},
	{
		"name":"LC200_CarGlass_Clear_1.1",
		"mesh":4
	},
	{
		"name":"LC200_BlackPlastic_1.1",
		"mesh":5
	},
	{
		"name":"LC200_BlackPlastic_1.2",
		"mesh":6
	},
	{
		"name":"LC200_chrome_2_1.1",
		"mesh":7
	}],
	"meshes":[{
		"name":"Subdivision Surface",
		"primitives":[{
			"attributes":{
				"POSITION":1,
				"NORMAL":2,
				"TEXCOORD_0":3
			},
			"indices":0,
			"material":0
		}]
	},
	{
		"name":"Cube.2",
		"primitives":[{
			"attributes":{
				"POSITION":5,
				"NORMAL":6,
				"TEXCOORD_0":7
			},
			"indices":4,
			"material":0
		}]
	},
	{
		"name":"Cube.1",
		"primitives":[{
			"attributes":{
				"POSITION":9,
				"NORMAL":10,
				"TEXCOORD_0":11
			},
			"indices":8,
			"material":0
		}]
	},
	{
		"name":"Cube",
		"primitives":[{
			"attributes":{
				"POSITION":13,
				"NORMAL":14,
				"TEXCOORD_0":15
			},
			"indices":12,
			"material":0
		}]
	},
	{
		"name":"LC200_CarGlass_Clear_1.1",
		"primitives":[{
			"attributes":{
				"POSITION":17,
				"NORMAL":18,
				"TEXCOORD_0":19
			},
			"indices":16,
			"material":1
		}]
	},
	{
		"name":"LC200_BlackPlastic_1.1",
		"primitives":[{
			"attributes":{
				"POSITION":21,
				"NORMAL":22,
				"TEXCOORD_0":23
			},
			"indices":20,
			"material":2
		}]
	},
	{
		"name":"LC200_BlackPlastic_1.2",
		"primitives":[{
			"attributes":{
				"POSITION":25,
				"NORMAL":26,
				"TEXCOORD_0":27
			},
			"indices":24,
			"material":2
		}]
	},
	{
		"name":"LC200_chrome_2_1.1",
		"primitives":[{
			"attributes":{
				"POSITION":29,
				"NORMAL":30,
				"TEXCOORD_0":31
			},
			"indices":28,
			"material":0
		}]
	}],
	"accessors":[{
		"bufferView":0,
		"type":"SCALAR",
		"count":193536,
		"componentType":5123,
		"byteOffset":0,
		"min":[0],
		"max":[37074]
	},
	{
		"bufferView":1,
		"type":"VEC3",
		"count":37075,
		"componentType":5126,
		"byteOffset":0,
		"min":[-1.7940647602081299,
		-0.024790696799755098,
		2.4892971515655519],
		"max":[0.11608250439167023,
		0.13035528361797334,
		2.7299063205718996]
	},
	{
		"bufferView":1,
		"type":"VEC3",
		"count":37075,
		"componentType":5126,
		"byteOffset":12,
		"min":[-0.9999995231628418,
		-0.9999995231628418,
		-0.9984888434410095],
		"max":[0.9999995231628418,
		0.9999995231628418,
		0.994240939617157]
	},
	{
		"bufferView":1,
		"type":"VEC2",
		"count":37075,
		"componentType":5126,
		"byteOffset":24,
		"min":[0.0,
		0.0],
		"max":[1.0,
		1.0]
	},
	{
		"bufferView":2,
		"type":"SCALAR",
		"count":2856,
		"componentType":5123,
		"byteOffset":0,
		"min":[0],
		"max":[1455]
	},
	{
		"bufferView":3,
		"type":"VEC3",
		"count":1456,
		"componentType":5126,
		"byteOffset":0,
		"min":[-1.7328987121582032,
		-0.030941979959607126,
		-0.215177521109581],
		"max":[0.2166488617658615,
		0.06201273575425148,
		-0.05942977964878082]
	},
	{
		"bufferView":3,
		"type":"VEC3",
		"count":1456,
		"componentType":5126,
		"byteOffset":12,
		"min":[-1.0,
		-0.9989168643951416,
		-0.9881219863891602],
		"max":[1.0,
		0.9999184012413025,
		0.983266294002533]
	},
	{
		"bufferView":3,
		"type":"VEC2",
		"count":1456,
		"componentType":5126,
		"byteOffset":24,
		"min":[-0.07307618111371994,
		0.0],
		"max":[1.0587185621261597,
		1.0132224559783936]
	},
	{
		"bufferView":4,
		"type":"SCALAR",
		"count":2856,
		"componentType":5123,
		"byteOffset":0,
		"min":[0],
		"max":[1455]
	},
	{
		"bufferView":5,
		"type":"VEC3",
		"count":1456,
		"componentType":5126,
		"byteOffset":0,
		"min":[-1.6375422477722169,
		-0.03526313230395317,
		-0.1568833887577057],
		"max":[0.12129241973161698,
		0.057691581547260287,
		-0.010641888715326786]
	},
	{
		"bufferView":5,
		"type":"VEC3",
		"count":1456,
		"componentType":5126,
		"byteOffset":12,
		"min":[-1.0,
		-0.9989168643951416,
		-0.988121509552002],
		"max":[1.0,
		0.9999184012413025,
		0.983266294002533]
	},
	{
		"bufferView":5,
		"type":"VEC2",
		"count":1456,
		"componentType":5126,
		"byteOffset":24,
		"min":[-0.07307618111371994,
		0.0],
		"max":[1.0587185621261597,
		1.0132224559783936]
	},
	{
		"bufferView":6,
		"type":"SCALAR",
		"count":2856,
		"componentType":5123,
		"byteOffset":0,
		"min":[0],
		"max":[1455]
	},
	{
		"bufferView":7,
		"type":"VEC3",
		"count":1456,
		"componentType":5126,
		"byteOffset":0,
		"min":[-1.5416865348815919,
		-0.041984930634498599,
		-0.09714007377624512],
		"max":[0.025436723604798318,
		0.05096978321671486,
		0.03915438801050186]
	},
	{
		"bufferView":7,
		"type":"VEC3",
		"count":1456,
		"componentType":5126,
		"byteOffset":12,
		"min":[-1.0,
		-0.9989168643951416,
		-0.9881219863891602],
		"max":[1.0,
		0.9999184012413025,
		0.9832609295845032]
	},
	{
		"bufferView":7,
		"type":"VEC2",
		"count":1456,
		"componentType":5126,
		"byteOffset":24,
		"min":[0.0,
		-0.09452797472476959],
		"max":[1.0,
		1.0742695331573487]
	},
	{
		"bufferView":8,
		"type":"SCALAR",
		"count":23184,
		"componentType":5123,
		"byteOffset":0,
		"min":[0],
		"max":[5531]
	},
	{
		"bufferView":9,
		"type":"VEC3",
		"count":5532,
		"componentType":5126,
		"byteOffset":0,
		"min":[-2.7177577018737795,
		-0.35153356194496157,
		-1.1045200824737549],
		"max":[-2.21113657951355,
		0.17279262840747834,
		1.1045200824737549]
	},
	{
		"bufferView":9,
		"type":"VEC3",
		"count":5532,
		"componentType":5126,
		"byteOffset":12,
		"min":[-0.9997348189353943,
		-0.9992669224739075,
		-0.9997335076332092],
		"max":[0.9998269081115723,
		0.9991921782493591,
		0.9997335076332092]
	},
	{
		"bufferView":9,
		"type":"VEC2",
		"count":5532,
		"componentType":5126,
		"byteOffset":24,
		"min":[-0.05990000069141388,
		-0.05990000069141388],
		"max":[1.2115999460220338,
		1.0]
	},
	{
		"bufferView":10,
		"type":"SCALAR",
		"count":8928,
		"componentType":5123,
		"byteOffset":0,
		"min":[0],
		"max":[2935]
	},
	{
		"bufferView":11,
		"type":"VEC3",
		"count":2936,
		"componentType":5126,
		"byteOffset":0,
		"min":[-2.718872308731079,
		-0.09890813380479813,
		-1.0942410230636597],
		"max":[-2.2023816108703615,
		0.17266061902046204,
		1.0942410230636597]
	},
	{
		"bufferView":11,
		"type":"VEC3",
		"count":2936,
		"componentType":5126,
		"byteOffset":12,
		"min":[-0.9872248768806458,
		-0.9999806880950928,
		-0.9999447464942932],
		"max":[0.1687845140695572,
		0.9998927712440491,
		0.9999447464942932]
	},
	{
		"bufferView":11,
		"type":"VEC2",
		"count":2936,
		"componentType":5126,
		"byteOffset":24,
		"min":[-0.8334000110626221,
		-0.9127999544143677],
		"max":[1.957900047302246,
		1.351099967956543]
	},
	{
		"bufferView":12,
		"type":"SCALAR",
		"count":840,
		"componentType":5123,
		"byteOffset":0,
		"min":[0],
		"max":[503]
	},
	{
		"bufferView":13,
		"type":"VEC3",
		"count":504,
		"componentType":5126,
		"byteOffset":0,
		"min":[-2.681497573852539,
		0.02388041466474533,
		-0.9912914037704468],
		"max":[-2.3376412391662599,
		0.1479301154613495,
		0.9912914037704468]
	},
	{
		"bufferView":13,
		"type":"VEC3",
		"count":504,
		"componentType":5126,
		"byteOffset":12,
		"min":[-0.9681968688964844,
		-0.9999465346336365,
		-0.999690592288971],
		"max":[0.0,
		0.9989081621170044,
		0.999690592288971]
	},
	{
		"bufferView":13,
		"type":"VEC2",
		"count":504,
		"componentType":5126,
		"byteOffset":24,
		"min":[0.0,
		0.0],
		"max":[1.0,
		1.0]
	},
	{
		"bufferView":14,
		"type":"SCALAR",
		"count":29070,
		"componentType":5123,
		"byteOffset":0,
		"min":[0],
		"max":[26799]
	},
	{
		"bufferView":15,
		"type":"VEC3",
		"count":26800,
		"componentType":5126,
		"byteOffset":0,
		"min":[-2.704310894012451,
		-0.0815901830792427,
		-1.086456060409546],
		"max":[-2.228994846343994,
		0.1484522670507431,
		1.086456060409546]
	},
	{
		"bufferView":15,
		"type":"VEC3",
		"count":26800,
		"componentType":5126,
		"byteOffset":12,
		"min":[-0.9991586208343506,
		-0.9983118176460266,
		-0.9955761432647705],
		"max":[0.9058337807655335,
		0.9994202256202698,
		0.9955761432647705]
	},
	{
		"bufferView":15,
		"type":"VEC2",
		"count":26800,
		"componentType":5126,
		"byteOffset":24,
		"min":[-0.5543000102043152,
		0.0],
		"max":[1.7798999547958375,
		1.0]
	}],
	"bufferViews":[{
		"buffer":0,
		"byteOffset":0,
		"byteLength":387072,
		"target":34963
	},
	{
		"buffer":0,
		"byteOffset":387072,
		"byteLength":1186400,
		"target":34962,
		"byteStride":32
	},
	{
		"buffer":1,
		"byteOffset":0,
		"byteLength":5712,
		"target":34963
	},
	{
		"buffer":1,
		"byteOffset":5712,
		"byteLength":46592,
		"target":34962,
		"byteStride":32
	},
	{
		"buffer":2,
		"byteOffset":0,
		"byteLength":5712,
		"target":34963
	},
	{
		"buffer":2,
		"byteOffset":5712,
		"byteLength":46592,
		"target":34962,
		"byteStride":32
	},
	{
		"buffer":3,
		"byteOffset":0,
		"byteLength":5712,
		"target":34963
	},
	{
		"buffer":3,
		"byteOffset":5712,
		"byteLength":46592,
		"target":34962,
		"byteStride":32
	},
	{
		"buffer":4,
		"byteOffset":0,
		"byteLength":46368,
		"target":34963
	},
	{
		"buffer":4,
		"byteOffset":46368,
		"byteLength":177024,
		"target":34962,
		"byteStride":32
	},
	{
		"buffer":5,
		"byteOffset":0,
		"byteLength":17856,
		"target":34963
	},
	{
		"buffer":5,
		"byteOffset":17856,
		"byteLength":93952,
		"target":34962,
		"byteStride":32
	},
	{
		"buffer":6,
		"byteOffset":0,
		"byteLength":1680,
		"target":34963
	},
	{
		"buffer":6,
		"byteOffset":1680,
		"byteLength":16128,
		"target":34962,
		"byteStride":32
	},
	{
		"buffer":7,
		"byteOffset":0,
		"byteLength":58140,
		"target":34963
	},
	{
		"buffer":7,
		"byteOffset":58140,
		"byteLength":857600,
		"target":34962,
		"byteStride":32
	}],
	"buffers":[{
		"uri":"data:application/octet-stream;base64,",
		"byteLength":1573472
	},
	{
		"uri":"data:application/octet-stream;base64,",
		"byteLength":52304
	},
	{
		"uri":"data:application/octet-stream;base64,",
		"byteLength":52304
	},
	{
		"uri":"data:application/octet-stream;base64,",
		"byteLength":52304
	},
	{
		"uri":"data:application/octet-stream;base64,",
		"byteLength":223392
	},
	{
		"uri":"data:application/octet-stream;base64,",
		"byteLength":111808
	},
	{
		"uri":"data:application/octet-stream;base64,",
		"byteLength":17808
	},
	{
		"uri":"data:application/octet-stream;base64,",
		"byteLength":915740
	}],
	"materials":[{
		"pbrMetallicRoughness":{
			"baseColorFactor":[1.0,
			1.0,
			1.0,
			1.0],
			"metallicFactor":0.0,
			"roughnessFactor":0.5
		},
		"emissiveFactor":[0.0,
		0.0,
		0.0],
		"alphaMode":"OPAQUE",
		"doubleSided":false,
		"name":"Default"
	},
	{
		"pbrMetallicRoughness":{
			"baseColorFactor":[0.8,
			0.8,
			0.8,
			0.47],
			"metallicFactor":1.0,
			"roughnessFactor":0.1
		},
		"emissiveFactor":[0.0,
		0.0,
		0.0],
		"alphaMode":"BLEND",
		"doubleSided":false,
		"name":"Mat"
	},
	{
		"pbrMetallicRoughness":{
			"baseColorFactor":[0.34,
			0.34,
			0.34,
			1.0],
			"metallicFactor":0.0,
			"roughnessFactor":0.47000000000000005
		},
		"emissiveFactor":[0.0,
		0.0,
		0.0],
		"alphaMode":"OPAQUE",
		"doubleSided":false,
		"name":"Mat"
	}]
}