{
	"asset":{
		"version":"2.0",
		"generator":"Maxon Cinema 4D 2023.2.0 (#200000219)"
	},
	"scenes":[{
		"nodes":[0]
	}],
	"nodes":[{
		"name":"чорні 2019",
		"translation":[0.0,
		0.0,
		0.0],
		"rotation":[0.0,
		-0.7071067690849304,
		0.0,
		-0.7071067690849304],
		"scale":[1.0,
		1.0,
		1.0],
		"children":[1]
	},
	{
		"name":"Symmetry",
		"translation":[0.0,
		0.0,
		0.0],
		"rotation":[0.0,
		-0.7071067690849304,
		0.0,
		0.7071067690849304],
		"scale":[1.0,
		1.0,
		1.0],
		"children":[2]
	},
	{
		"name":"Null",
		"translation":[-1.3134336402097517e-16,
		1.1037929058074952,
		0.15082988142967225],
		"rotation":[0.0,
		-0.7071067690849304,
		0.0,
		-0.7071067690849304],
		"scale":[1.0,
		1.0,
		1.0],
		"children":[3,
		4,
		5,
		6,
		7]
	},
	{
		"name":"LC200_CarGlass_Clear_1.1",
		"mesh":0
	},
	{
		"name":"LC200_BlackPlastic_1.1",
		"mesh":1
	},
	{
		"name":"LC200_chrome_1_1.1",
		"mesh":2
	},
	{
		"name":"LC200_chrome_2_1.1",
		"mesh":3
	},
	{
		"name":"LC200_CarGlass_WindowTinted_1.1",
		"mesh":4
	}],
	"meshes":[{
		"name":"LC200_CarGlass_Clear_1.1",
		"primitives":[{
			"attributes":{
				"POSITION":1,
				"NORMAL":2,
				"TEXCOORD_0":3
			},
			"indices":0,
			"material":0
		}]
	},
	{
		"name":"LC200_BlackPlastic_1.1",
		"primitives":[{
			"attributes":{
				"POSITION":5,
				"NORMAL":6,
				"TEXCOORD_0":7
			},
			"indices":4,
			"material":1
		}]
	},
	{
		"name":"LC200_chrome_1_1.1",
		"primitives":[{
			"attributes":{
				"POSITION":9,
				"NORMAL":10,
				"TEXCOORD_0":11
			},
			"indices":8,
			"material":2
		}]
	},
	{
		"name":"LC200_chrome_2_1.1",
		"primitives":[{
			"attributes":{
				"POSITION":13,
				"NORMAL":14,
				"TEXCOORD_0":15
			},
			"indices":12,
			"material":2
		}]
	},
	{
		"name":"LC200_CarGlass_WindowTinted_1.1",
		"primitives":[{
			"attributes":{
				"POSITION":17,
				"NORMAL":18,
				"TEXCOORD_0":19
			},
			"indices":16,
			"material":2
		}]
	}],
	"accessors":[{
		"bufferView":0,
		"type":"SCALAR",
		"count":23184,
		"componentType":5123,
		"byteOffset":0,
		"min":[0],
		"max":[5539]
	},
	{
		"bufferView":1,
		"type":"VEC3",
		"count":5540,
		"componentType":5126,
		"byteOffset":0,
		"min":[-2.689453363418579,
		-0.35280612111091616,
		-1.1079555749893189],
		"max":[-2.1956946849823,
		0.17616747319698335,
		1.1079555749893189]
	},
	{
		"bufferView":1,
		"type":"VEC3",
		"count":5540,
		"componentType":5126,
		"byteOffset":12,
		"min":[-0.9997348189353943,
		-0.9992379546165466,
		-0.999707043170929],
		"max":[0.9998264312744141,
		0.9991955161094666,
		0.999707043170929]
	},
	{
		"bufferView":1,
		"type":"VEC2",
		"count":5540,
		"componentType":5126,
		"byteOffset":24,
		"min":[-0.05990000069141388,
		-0.05990000069141388],
		"max":[1.2115999460220338,
		1.0]
	},
	{
		"bufferView":2,
		"type":"SCALAR",
		"count":11940,
		"componentType":5123,
		"byteOffset":0,
		"min":[0],
		"max":[4437]
	},
	{
		"bufferView":3,
		"type":"VEC3",
		"count":4438,
		"componentType":5126,
		"byteOffset":0,
		"min":[-2.690539836883545,
		-0.09553329646587372,
		-1.0973780155181885],
		"max":[-2.187162160873413,
		0.17603546380996705,
		1.0973780155181885]
	},
	{
		"bufferView":3,
		"type":"VEC3",
		"count":4438,
		"componentType":5126,
		"byteOffset":12,
		"min":[-0.9993501901626587,
		-0.9999803304672241,
		-0.9999399781227112],
		"max":[0.38742080330848696,
		0.999893844127655,
		0.9999399781227112]
	},
	{
		"bufferView":3,
		"type":"VEC2",
		"count":4438,
		"componentType":5126,
		"byteOffset":24,
		"min":[-0.8334000110626221,
		-0.9127999544143677],
		"max":[1.957900047302246,
		1.351099967956543]
	},
	{
		"bufferView":4,
		"type":"SCALAR",
		"count":23820,
		"componentType":5123,
		"byteOffset":0,
		"min":[0],
		"max":[6715]
	},
	{
		"bufferView":5,
		"type":"VEC3",
		"count":6716,
		"componentType":5126,
		"byteOffset":0,
		"min":[-2.6101458072662355,
		0.019225090742111207,
		-0.9948329925537109],
		"max":[-2.428964853286743,
		0.14917513728141786,
		0.9948329925537109]
	},
	{
		"bufferView":5,
		"type":"VEC3",
		"count":6716,
		"componentType":5126,
		"byteOffset":12,
		"min":[-0.9999517798423767,
		-0.9999914169311523,
		-0.9999904632568359],
		"max":[0.0,
		0.9999914169311523,
		0.9999904632568359]
	},
	{
		"bufferView":5,
		"type":"VEC2",
		"count":6716,
		"componentType":5126,
		"byteOffset":24,
		"min":[-216.7895965576172,
		-21.309097290039064],
		"max":[217.8105926513672,
		222.8870849609375]
	},
	{
		"bufferView":6,
		"type":"SCALAR",
		"count":36570,
		"componentType":5123,
		"byteOffset":0,
		"min":[0],
		"max":[29457]
	},
	{
		"bufferView":7,
		"type":"VEC3",
		"count":29458,
		"componentType":5126,
		"byteOffset":0,
		"min":[-2.6763479709625246,
		-0.0782153457403183,
		-1.0893669128417969],
		"max":[-2.213099718093872,
		0.15182709693908692,
		1.0893669128417969]
	},
	{
		"bufferView":7,
		"type":"VEC3",
		"count":29458,
		"componentType":5126,
		"byteOffset":12,
		"min":[-0.9992175698280335,
		-0.9982867240905762,
		-0.9950727820396423],
		"max":[0.9121753573417664,
		0.9997448325157166,
		0.9950727820396423]
	},
	{
		"bufferView":7,
		"type":"VEC2",
		"count":29458,
		"componentType":5126,
		"byteOffset":24,
		"min":[-1.3423999547958375,
		-0.03989999741315842],
		"max":[1.7798999547958375,
		1.477099895477295]
	},
	{
		"bufferView":8,
		"type":"SCALAR",
		"count":3744,
		"componentType":5123,
		"byteOffset":0,
		"min":[0],
		"max":[783]
	},
	{
		"bufferView":9,
		"type":"VEC3",
		"count":784,
		"componentType":5126,
		"byteOffset":0,
		"min":[-2.5616421699523927,
		0.04824235290288925,
		-0.9703217148780823],
		"max":[-2.4569878578186037,
		0.12048907577991486,
		0.9703217148780823]
	},
	{
		"bufferView":9,
		"type":"VEC3",
		"count":784,
		"componentType":5126,
		"byteOffset":12,
		"min":[-0.9994387030601502,
		-0.9357829093933106,
		-0.9366959929466248],
		"max":[1.0,
		0.9428824186325073,
		0.9366959929466248]
	},
	{
		"bufferView":9,
		"type":"VEC2",
		"count":784,
		"componentType":5126,
		"byteOffset":24,
		"min":[65.31919860839844,
		218.93869018554688],
		"max":[84.85369873046875,
		228.840087890625]
	}],
	"bufferViews":[{
		"buffer":0,
		"byteOffset":0,
		"byteLength":46368,
		"target":34963
	},
	{
		"buffer":0,
		"byteOffset":46368,
		"byteLength":177280,
		"target":34962,
		"byteStride":32
	},
	{
		"buffer":1,
		"byteOffset":0,
		"byteLength":23880,
		"target":34963
	},
	{
		"buffer":1,
		"byteOffset":23880,
		"byteLength":142016,
		"target":34962,
		"byteStride":32
	},
	{
		"buffer":2,
		"byteOffset":0,
		"byteLength":47640,
		"target":34963
	},
	{
		"buffer":2,
		"byteOffset":47640,
		"byteLength":214912,
		"target":34962,
		"byteStride":32
	},
	{
		"buffer":3,
		"byteOffset":0,
		"byteLength":73140,
		"target":34963
	},
	{
		"buffer":3,
		"byteOffset":73140,
		"byteLength":942656,
		"target":34962,
		"byteStride":32
	},
	{
		"buffer":4,
		"byteOffset":0,
		"byteLength":7488,
		"target":34963
	},
	{
		"buffer":4,
		"byteOffset":7488,
		"byteLength":25088,
		"target":34962,
		"byteStride":32
	}],
	"buffers":[{
		"uri":"data:application/octet-stream;base64,",
		"byteLength":223648
	},
	{
		"uri":"data:application/octet-stream;base64,",
		"byteLength":165896
	},
	{
		"uri":"data:application/octet-stream;base64,",
		"byteLength":262552
	},
	{
		"uri":"data:application/octet-stream;base64,",
		"byteLength":1015796
	},
	{
		"uri":"data:application/octet-stream;base64,",
		"byteLength":32576
	}],
	"materials":[{
		"pbrMetallicRoughness":{
			"baseColorFactor":[0.8,
			0.8,
			0.8,
			0.47],
			"metallicFactor":1.0,
			"roughnessFactor":0.1
		},
		"emissiveFactor":[0.0,
		0.0,
		0.0],
		"alphaMode":"BLEND",
		"doubleSided":false,
		"name":"Mat"
	},
	{
		"pbrMetallicRoughness":{
			"baseColorFactor":[0.34,
			0.34,
			0.34,
			1.0],
			"metallicFactor":0.0,
			"roughnessFactor":0.47000000000000005
		},
		"emissiveFactor":[0.0,
		0.0,
		0.0],
		"alphaMode":"OPAQUE",
		"doubleSided":false,
		"name":"Mat"
	},
	{
		"pbrMetallicRoughness":{
			"baseColorFactor":[1.0,
			1.0,
			1.0,
			1.0],
			"metallicFactor":0.0,
			"roughnessFactor":0.5
		},
		"emissiveFactor":[0.0,
		0.0,
		0.0],
		"alphaMode":"OPAQUE",
		"doubleSided":false,
		"name":"Default"
	}]
}