{
	"asset":{
		"version":"2.0",
		"generator":"Maxon Cinema 4D 2023.2.0 (#200000219)"
	},
	"scenes":[{
		"nodes":[0]
	}],
	"nodes":[{
		"name":"сток",
		"children":[1,
		2,
		3,
		4]
	},
	{
		"name":"polySurface627",
		"mesh":0,
		"translation":[-0.004290000069886446,
		-0.04697175323963165,
		-0.22037523984909059],
		"rotation":[0.0,
		0.0,
		0.0,
		-1.0],
		"scale":[1.0,
		1.0,
		1.0]
	},
	{
		"name":"¶ÔÏó007",
		"mesh":1,
		"translation":[-0.004290000069886446,
		-0.04697175323963165,
		-0.22037523984909059],
		"rotation":[0.0,
		0.0,
		0.0,
		-1.0],
		"scale":[1.0,
		1.0,
		1.0]
	},
	{
		"name":"¶ÔÏó006",
		"mesh":2,
		"translation":[-0.004290000069886446,
		-0.04697175323963165,
		-0.22037523984909059],
		"rotation":[0.0,
		0.0,
		0.0,
		-1.0],
		"scale":[1.0,
		1.0,
		1.0]
	},
	{
		"name":"¶ÔÏó005",
		"mesh":3,
		"translation":[-0.004290000069886446,
		-0.04697175323963165,
		-0.22037523984909059],
		"rotation":[0.0,
		0.0,
		0.0,
		-1.0],
		"scale":[1.0,
		1.0,
		1.0]
	}],
	"meshes":[{
		"name":"polySurface627",
		"primitives":[{
			"attributes":{
				"POSITION":1,
				"NORMAL":2
			},
			"indices":0,
			"material":0
		}]
	},
	{
		"name":"¶ÔÏó007",
		"primitives":[{
			"attributes":{
				"POSITION":4,
				"NORMAL":5
			},
			"indices":3,
			"material":1
		}]
	},
	{
		"name":"¶ÔÏó006",
		"primitives":[{
			"attributes":{
				"POSITION":7,
				"NORMAL":8
			},
			"indices":6,
			"material":1
		}]
	},
	{
		"name":"¶ÔÏó005",
		"primitives":[{
			"attributes":{
				"POSITION":10,
				"NORMAL":11
			},
			"indices":9,
			"material":2
		}]
	}],
	"accessors":[{
		"bufferView":0,
		"type":"SCALAR",
		"count":10848,
		"componentType":5123,
		"byteOffset":0,
		"min":[0],
		"max":[2045]
	},
	{
		"bufferView":1,
		"type":"VEC3",
		"count":2046,
		"componentType":5126,
		"byteOffset":0,
		"min":[-1.1082146167755128,
		1.068071722984314,
		2.5839831829071047],
		"max":[1.0996425151824952,
		1.3165764808654786,
		3.078584909439087]
	},
	{
		"bufferView":1,
		"type":"VEC3",
		"count":2046,
		"componentType":5126,
		"byteOffset":12,
		"min":[-0.9998593926429749,
		-0.9557010531425476,
		-0.08347129821777344],
		"max":[0.9998593926429749,
		0.9994701743125916,
		0.9988583922386169]
	},
	{
		"bufferView":2,
		"type":"SCALAR",
		"count":5820,
		"componentType":5123,
		"byteOffset":0,
		"min":[0],
		"max":[1467]
	},
	{
		"bufferView":3,
		"type":"VEC3",
		"count":1468,
		"componentType":5126,
		"byteOffset":0,
		"min":[-1.0713990926742554,
		1.2043242454528809,
		2.605257272720337],
		"max":[1.0628271102905274,
		1.2968121767044068,
		2.7746405601501467]
	},
	{
		"bufferView":3,
		"type":"VEC3",
		"count":1468,
		"componentType":5126,
		"byteOffset":12,
		"min":[-0.9981451034545898,
		-0.9984195828437805,
		-0.9531201124191284],
		"max":[0.9981361031532288,
		0.9957617521286011,
		0.9678807854652405]
	},
	{
		"bufferView":4,
		"type":"SCALAR",
		"count":22392,
		"componentType":5123,
		"byteOffset":0,
		"min":[0],
		"max":[4823]
	},
	{
		"bufferView":5,
		"type":"VEC3",
		"count":4824,
		"componentType":5126,
		"byteOffset":0,
		"min":[-1.000827431678772,
		1.1675128936767579,
		2.742004632949829],
		"max":[0.9922553896903992,
		1.2887212038040162,
		2.9469845294952394]
	},
	{
		"bufferView":5,
		"type":"VEC3",
		"count":4824,
		"componentType":5126,
		"byteOffset":12,
		"min":[-0.9999422430992127,
		-1.0,
		-0.04675101116299629],
		"max":[0.9999422430992127,
		1.0,
		0.9999452233314514]
	},
	{
		"bufferView":6,
		"type":"SCALAR",
		"count":38892,
		"componentType":5123,
		"byteOffset":0,
		"min":[0],
		"max":[8552]
	},
	{
		"bufferView":7,
		"type":"VEC3",
		"count":8553,
		"componentType":5126,
		"byteOffset":0,
		"min":[-1.1034924983978272,
		1.0653759241104127,
		2.5740156173706056],
		"max":[1.0949205160140992,
		1.3194371461868287,
		3.076716899871826]
	},
	{
		"bufferView":7,
		"type":"VEC3",
		"count":8553,
		"componentType":5126,
		"byteOffset":12,
		"min":[-0.9999687075614929,
		-0.9998171329498291,
		-0.9485489130020142],
		"max":[0.9999687075614929,
		0.9987987875938416,
		0.9996586441993713]
	}],
	"bufferViews":[{
		"buffer":0,
		"byteOffset":0,
		"byteLength":21696,
		"target":34963
	},
	{
		"buffer":0,
		"byteOffset":21696,
		"byteLength":49104,
		"target":34962,
		"byteStride":24
	},
	{
		"buffer":1,
		"byteOffset":0,
		"byteLength":11640,
		"target":34963
	},
	{
		"buffer":1,
		"byteOffset":11640,
		"byteLength":35232,
		"target":34962,
		"byteStride":24
	},
	{
		"buffer":2,
		"byteOffset":0,
		"byteLength":44784,
		"target":34963
	},
	{
		"buffer":2,
		"byteOffset":44784,
		"byteLength":115776,
		"target":34962,
		"byteStride":24
	},
	{
		"buffer":3,
		"byteOffset":0,
		"byteLength":77784,
		"target":34963
	},
	{
		"buffer":3,
		"byteOffset":77784,
		"byteLength":205272,
		"target":34962,
		"byteStride":24
	}],
	"buffers":[{
		"uri":"data:application/octet-stream;base64,",
		"byteLength":70800
	},
	{
		"uri":"data:application/octet-stream;base64,",
		"byteLength":46872
	},
	{
		"uri":"data:application/octet-stream;base64,",
		"byteLength":160560
	},
	{
		"uri":"data:application/octet-stream;base64,",
		"byteLength":283056
	}],
	"materials":[{
		"pbrMetallicRoughness":{
			"baseColorFactor":[0.8,
			0.8,
			0.8,
			0.47],
			"metallicFactor":1.0,
			"roughnessFactor":0.1
		},
		"emissiveFactor":[0.0,
		0.0,
		0.0],
		"alphaMode":"BLEND",
		"doubleSided":false,
		"name":"Mat"
	},
	{
		"pbrMetallicRoughness":{
			"baseColorFactor":[1.0,
			1.0,
			1.0,
			1.0],
			"metallicFactor":0.0,
			"roughnessFactor":0.5
		},
		"emissiveFactor":[0.0,
		0.0,
		0.0],
		"alphaMode":"OPAQUE",
		"doubleSided":false,
		"name":"Default"
	},
	{
		"pbrMetallicRoughness":{
			"baseColorFactor":[0.8,
			0.8,
			0.8,
			1.0],
			"metallicFactor":1.0,
			"roughnessFactor":0.1
		},
		"emissiveFactor":[0.0,
		0.0,
		0.0],
		"alphaMode":"OPAQUE",
		"doubleSided":false,
		"name":"Mat.1"
	}]
}