{
	"asset":{
		"version":"2.0",
		"generator":"Maxon Cinema 4D 2023.2.0 (#200000219)"
	},
	"scenes":[{
		"nodes":[0]
	}],
	"nodes":[{
		"children":[1,
		2,
		3,
		4],
		"name":"ЛХ дизайн",
		"translation":[-1.3134336402097517e-16,
		1.1037929058074952,
		0.15082988142967225],
		"rotation":[0.0,
		-0.7071067690849304,
		0.0,
		-0.7071067690849304],
		"scale":[1.0,
		1.0,
		1.0]
	},
	{
		"mesh":0,
		"name":"light",
		"translation":[0.07541494071483612,
		0.04146309569478035,
		0.41985082626342776],
		"rotation":[0.0,
		-0.7071067690849304,
		0.0,
		0.7071067690849304],
		"scale":[1.0,
		1.0,
		1.0]
	},
	{
		"mesh":1,
		"name":"blinker",
		"translation":[-2.583519220352173,
		0.07152019441127777,
		0.7581248879432678],
		"rotation":[0.0,
		-0.7071067690849304,
		0.0,
		0.7071067690849304],
		"scale":[1.0,
		1.0,
		1.0]
	},
	{
		"mesh":2,
		"name":"window"
	},
	{
		"mesh":3,
		"name":"black",
		"translation":[0.0,
		-1.4210854397564649e-16,
		-7.888608875885966e-33],
		"rotation":[0.0,
		-0.7071067690849304,
		0.0,
		0.7071067690849304],
		"scale":[1.0,
		1.0,
		1.0]
	}],
	"meshes":[{
		"name":"light",
		"primitives":[{
			"attributes":{
				"POSITION":1,
				"NORMAL":2
			},
			"indices":0,
			"material":0
		}]
	},
	{
		"name":"blinker",
		"primitives":[{
			"attributes":{
				"POSITION":4,
				"NORMAL":5,
				"TEXCOORD_0":6
			},
			"indices":3,
			"material":1
		}]
	},
	{
		"name":"window",
		"primitives":[{
			"attributes":{
				"POSITION":8,
				"NORMAL":9
			},
			"indices":7,
			"material":2
		}]
	},
	{
		"name":"black",
		"primitives":[{
			"attributes":{
				"POSITION":11,
				"NORMAL":12
			},
			"indices":10,
			"material":3
		}]
	}],
	"accessors":[{
		"max":[58157],
		"bufferView":0,
		"type":"SCALAR",
		"componentType":5123,
		"count":221790,
		"byteOffset":0,
		"min":[0]
	},
	{
		"max":[0.6666052341461182,
		0.10698916763067246,
		2.7797257900238039],
		"bufferView":1,
		"type":"VEC3",
		"componentType":5126,
		"count":58158,
		"byteOffset":0,
		"min":[-1.5063068866729737,
		-0.12305327504873276,
		2.3044097423553469]
	},
	{
		"max":[0.9999998807907105,
		0.9999970197677612,
		0.9991604089736939],
		"bufferView":1,
		"type":"VEC3",
		"componentType":5126,
		"count":58158,
		"byteOffset":12,
		"min":[-0.9999998807907105,
		-0.9999966621398926,
		-0.9984890818595886]
	},
	{
		"max":[4367],
		"bufferView":2,
		"type":"SCALAR",
		"componentType":5123,
		"count":8568,
		"byteOffset":0,
		"min":[0]
	},
	{
		"max":[0.2166488617658615,
		0.06201273575425148,
		0.03915438801050186],
		"bufferView":3,
		"type":"VEC3",
		"componentType":5126,
		"count":4368,
		"byteOffset":0,
		"min":[-1.7328987121582032,
		-0.041984930634498599,
		-0.215177521109581]
	},
	{
		"max":[1.0,
		0.9999184012413025,
		0.983266294002533],
		"bufferView":3,
		"type":"VEC3",
		"componentType":5126,
		"count":4368,
		"byteOffset":12,
		"min":[-1.0,
		-0.9989168643951416,
		-0.9881219863891602]
	},
	{
		"max":[1.0587185621261597,
		1.0742695331573487],
		"bufferView":3,
		"type":"VEC2",
		"componentType":5126,
		"count":4368,
		"byteOffset":24,
		"min":[-0.07307618111371994,
		-0.09452797472476959]
	},
	{
		"max":[4467],
		"bufferView":4,
		"type":"SCALAR",
		"componentType":5123,
		"count":22008,
		"byteOffset":0,
		"min":[0]
	},
	{
		"max":[-2.21113657951355,
		0.17279262840747834,
		1.1045200824737549],
		"bufferView":5,
		"type":"VEC3",
		"componentType":5126,
		"count":4468,
		"byteOffset":0,
		"min":[-2.7177577018737795,
		-0.08790186792612076,
		-1.1045200824737549]
	},
	{
		"max":[0.999770998954773,
		0.9991921782493591,
		0.9997335076332092],
		"bufferView":5,
		"type":"VEC3",
		"componentType":5126,
		"count":4468,
		"byteOffset":12,
		"min":[-0.9948192238807678,
		-0.9992669224739075,
		-0.9997335076332092]
	},
	{
		"max":[2549],
		"bufferView":6,
		"type":"SCALAR",
		"componentType":5123,
		"count":9768,
		"byteOffset":0,
		"min":[0]
	},
	{
		"max":[1.0942410230636597,
		0.17266061902046204,
		2.718872308731079],
		"bufferView":7,
		"type":"VEC3",
		"componentType":5126,
		"count":2550,
		"byteOffset":0,
		"min":[-1.0942410230636597,
		-0.09890813380479813,
		2.2023816108703615]
	},
	{
		"max":[0.9999447464942932,
		0.9998927712440491,
		0.9872248768806458],
		"bufferView":7,
		"type":"VEC3",
		"componentType":5126,
		"count":2550,
		"byteOffset":12,
		"min":[-0.9999447464942932,
		-0.9999806880950928,
		-0.1687845140695572]
	}],
	"bufferViews":[{
		"buffer":0,
		"byteOffset":0,
		"target":34963,
		"byteLength":443580
	},
	{
		"buffer":0,
		"byteOffset":443580,
		"target":34962,
		"byteLength":1395792,
		"byteStride":24
	},
	{
		"buffer":1,
		"byteOffset":0,
		"target":34963,
		"byteLength":17136
	},
	{
		"buffer":1,
		"byteOffset":17136,
		"target":34962,
		"byteLength":139776,
		"byteStride":32
	},
	{
		"buffer":2,
		"byteOffset":0,
		"target":34963,
		"byteLength":44016
	},
	{
		"buffer":2,
		"byteOffset":44016,
		"target":34962,
		"byteLength":107232,
		"byteStride":24
	},
	{
		"buffer":3,
		"byteOffset":0,
		"target":34963,
		"byteLength":19536
	},
	{
		"buffer":3,
		"byteOffset":19536,
		"target":34962,
		"byteLength":61200,
		"byteStride":24
	}],
	"buffers":[{
		"uri":"data:application/octet-stream;base64,",
		"byteLength":1839372
	},
	{
		"uri":"data:application/octet-stream;base64,",
		"byteLength":156912
	},
	{
		"uri":"data:application/octet-stream;base64,",
		"byteLength":151248
	},
	{
		"uri":"data:application/octet-stream;base64,",
		"byteLength":80736
	}],
	"materials":[{
		"pbrMetallicRoughness":{
			"baseColorFactor":[1.0,
			1.0,
			1.0,
			1.0],
			"metallicFactor":0.0,
			"roughnessFactor":0.5
		},
		"emissiveFactor":[1.0,
		1.0,
		1.0],
		"alphaMode":"OPAQUE",
		"doubleSided":true,
		"name":"light"
	},
	{
		"pbrMetallicRoughness":{
			"baseColorFactor":[1.0,
			1.0,
			1.0,
			1.0],
			"metallicFactor":0.0,
			"roughnessFactor":0.5
		},
		"emissiveFactor":[1.0,
		0.9166666666666663,
		0.0],
		"alphaMode":"OPAQUE",
		"doubleSided":true,
		"name":"blinker"
	},
	{
		"pbrMetallicRoughness":{
			"baseColorFactor":[1.0,
			1.0,
			1.0,
			0.21999999999999998],
			"metallicFactor":1.0,
			"roughnessFactor":0.1
		},
		"emissiveFactor":[0.0,
		0.0,
		0.0],
		"alphaMode":"BLEND",
		"doubleSided":true,
		"name":"Mat"
	},
	{
		"pbrMetallicRoughness":{
			"baseColorFactor":[0.15,
			0.15,
			0.15,
			1.0],
			"metallicFactor":0.0,
			"roughnessFactor":0.55
		},
		"emissiveFactor":[0.0,
		0.0,
		0.0],
		"alphaMode":"OPAQUE",
		"doubleSided":true,
		"name":"black"
	}]
}