{
	"asset":{
		"version":"2.0",
		"generator":"Maxon Cinema 4D 2023.2.0 (#200000219)"
	},
	"scenes":[{
		"nodes":[0]
	}],
	"nodes":[{
		"children":[1,
		2,
		3,
		4],
		"name":"сток",
		"translation":[0.004290000069886446,
		-0.04697175323963165,
		-0.22037523984909059],
		"rotation":[0.0,
		0.0,
		0.0,
		-1.0],
		"scale":[1.0,
		1.0,
		1.0]
	},
	{
		"mesh":0,
		"name":"polySurface977.1"
	},
	{
		"mesh":1,
		"name":"Symmetry",
		"translation":[-0.002145000034943223,
		0.28142619132995608,
		0.11018761992454529],
		"rotation":[0.0,
		0.0,
		0.0,
		-1.0],
		"scale":[1.0,
		1.0,
		1.0]
	},
	{
		"mesh":2,
		"name":"polySurface978"
	},
	{
		"mesh":3,
		"name":"¶ÔÏó031",
		"translation":[-0.05270810425281525,
		-0.03435192257165909,
		-0.005011056084185839],
		"rotation":[0.0,
		0.0,
		0.0,
		-1.0],
		"scale":[1.0,
		1.0,
		1.0]
	}],
	"meshes":[{
		"name":"polySurface977.1",
		"primitives":[{
			"attributes":{
				"POSITION":1,
				"NORMAL":2
			},
			"indices":0,
			"material":0
		}]
	},
	{
		"name":"Symmetry",
		"primitives":[{
			"attributes":{
				"POSITION":4,
				"NORMAL":5
			},
			"indices":3,
			"material":1
		}]
	},
	{
		"name":"polySurface978",
		"primitives":[{
			"attributes":{
				"POSITION":7,
				"NORMAL":8
			},
			"indices":6,
			"material":2
		}]
	},
	{
		"name":"¶ÔÏó031",
		"primitives":[{
			"attributes":{
				"POSITION":10,
				"NORMAL":11
			},
			"indices":9,
			"material":3
		}]
	}],
	"accessors":[{
		"max":[2425],
		"bufferView":0,
		"type":"SCALAR",
		"componentType":5123,
		"count":12690,
		"byteOffset":0,
		"min":[0]
	},
	{
		"max":[1.0911685228347779,
		1.507566213607788,
		-2.1623289585113527],
		"bufferView":1,
		"type":"VEC3",
		"componentType":5126,
		"count":2426,
		"byteOffset":0,
		"min":[-1.0997405052185059,
		1.2080563306808472,
		-2.4547805786132814]
	},
	{
		"max":[0.9990038275718689,
		0.8753668069839478,
		0.25756579637527468],
		"bufferView":1,
		"type":"VEC3",
		"componentType":5126,
		"count":2426,
		"byteOffset":12,
		"min":[-0.9990038275718689,
		-0.8660048842430115,
		-0.9990299940109253]
	},
	{
		"max":[3154],
		"bufferView":2,
		"type":"SCALAR",
		"componentType":5123,
		"count":17160,
		"byteOffset":0,
		"min":[0]
	},
	{
		"max":[1.050010085105896,
		1.1923515796661378,
		-2.3908843994140627],
		"bufferView":3,
		"type":"VEC3",
		"componentType":5126,
		"count":3155,
		"byteOffset":0,
		"min":[-1.0542360544204713,
		0.9996519684791565,
		-2.536680221557617]
	},
	{
		"max":[0.9969264268875122,
		0.7857739329338074,
		0.014156524091959],
		"bufferView":3,
		"type":"VEC3",
		"componentType":5126,
		"count":3155,
		"byteOffset":12,
		"min":[-0.9972512125968933,
		-0.4286404252052307,
		-0.9999953508377075]
	},
	{
		"max":[17373],
		"bufferView":4,
		"type":"SCALAR",
		"componentType":5123,
		"count":69984,
		"byteOffset":0,
		"min":[0]
	},
	{
		"max":[1.0859885215759278,
		1.5068676471710206,
		-2.1570382118225099],
		"bufferView":5,
		"type":"VEC3",
		"componentType":5126,
		"count":17374,
		"byteOffset":0,
		"min":[-1.0945605039596558,
		1.2073839902877808,
		-2.4451074600219728]
	},
	{
		"max":[0.9999977350234985,
		1.0,
		0.9349275231361389],
		"bufferView":5,
		"type":"VEC3",
		"componentType":5126,
		"count":17374,
		"byteOffset":12,
		"min":[-0.9999977350234985,
		-1.0,
		-0.9998885989189148]
	},
	{
		"max":[3857],
		"bufferView":6,
		"type":"SCALAR",
		"componentType":5123,
		"count":20196,
		"byteOffset":0,
		"min":[0]
	},
	{
		"max":[1.1099255084991456,
		1.3910707235336304,
		-2.1605935096740724],
		"bufferView":7,
		"type":"VEC3",
		"componentType":5126,
		"count":3858,
		"byteOffset":0,
		"min":[-1.013081431388855,
		1.246077537536621,
		-2.4062492847442629]
	},
	{
		"max":[1.0,
		1.0,
		1.0],
		"bufferView":7,
		"type":"VEC3",
		"componentType":5126,
		"count":3858,
		"byteOffset":12,
		"min":[-1.0,
		-1.0,
		-1.0]
	}],
	"bufferViews":[{
		"buffer":0,
		"byteOffset":0,
		"target":34963,
		"byteLength":25380
	},
	{
		"buffer":0,
		"byteOffset":25380,
		"target":34962,
		"byteLength":58224,
		"byteStride":24
	},
	{
		"buffer":1,
		"byteOffset":0,
		"target":34963,
		"byteLength":34320
	},
	{
		"buffer":1,
		"byteOffset":34320,
		"target":34962,
		"byteLength":75720,
		"byteStride":24
	},
	{
		"buffer":2,
		"byteOffset":0,
		"target":34963,
		"byteLength":139968
	},
	{
		"buffer":2,
		"byteOffset":139968,
		"target":34962,
		"byteLength":416976,
		"byteStride":24
	},
	{
		"buffer":3,
		"byteOffset":0,
		"target":34963,
		"byteLength":40392
	},
	{
		"buffer":3,
		"byteOffset":40392,
		"target":34962,
		"byteLength":92592,
		"byteStride":24
	}],
	"buffers":[{
		"uri":"data:application/octet-stream;base64,",
		"byteLength":83604
	},
	{
		"uri":"data:application/octet-stream;base64,",
		"byteLength":110040
	},
	{
		"uri":"data:application/octet-stream;base64,",
		"byteLength":556944
	},
	{
		"uri":"data:application/octet-stream;base64,",
		"byteLength":132984
	}],
	"materials":[{
		"pbrMetallicRoughness":{
			"baseColorFactor":[1.0,
			1.0,
			1.0,
			0.21999999999999998],
			"metallicFactor":1.0,
			"roughnessFactor":0.1
		},
		"emissiveFactor":[0.0,
		0.0,
		0.0],
		"alphaMode":"BLEND",
		"doubleSided":true,
		"name":"Mat"
	},
	{
		"pbrMetallicRoughness":{
			"baseColorFactor":[1.0,
			1.0,
			1.0,
			1.0],
			"metallicFactor":0.0,
			"roughnessFactor":0.5
		},
		"emissiveFactor":[0.8,
		0.8,
		0.8],
		"alphaMode":"OPAQUE",
		"doubleSided":true,
		"name":"blinker"
	},
	{
		"pbrMetallicRoughness":{
			"baseColorFactor":[0.0,
			0.0,
			0.0,
			1.0],
			"metallicFactor":1.0,
			"roughnessFactor":0.1
		},
		"emissiveFactor":[0.0,
		0.0,
		0.0],
		"alphaMode":"OPAQUE",
		"doubleSided":true,
		"name":"car"
	},
	{
		"pbrMetallicRoughness":{
			"baseColorFactor":[0.59,
			0.59,
			0.59,
			1.0],
			"metallicFactor":0.0,
			"roughnessFactor":0.5
		},
		"emissiveFactor":[0.0,
		0.0,
		0.0],
		"alphaMode":"OPAQUE",
		"doubleSided":true,
		"name":"Default"
	}]
}