{
	"asset":{
		"version":"2.0",
		"generator":"Maxon Cinema 4D 2023.2.0 (#200000219)"
	},
	"scenes":[{
		"nodes":[0,
		1,
		2,
		3]
	}],
	"nodes":[{
		"name":"black",
		"mesh":0,
		"translation":[-6.310887100708772e-32,
		0.33351168036460879,
		-0.4073816239833832],
		"scale":[1.0,
		1.0,
		1.0],
		"rotation":[0.0,
		0.0,
		0.0,
		-1.0]
	},
	{
		"name":"red light",
		"mesh":1,
		"translation":[-1.104405272011394e-31,
		0.6623615026473999,
		-1.0972788333892823],
		"scale":[1.0,
		1.0,
		1.0],
		"rotation":[0.0,
		0.0,
		0.0,
		-1.0]
	},
	{
		"name":"grey",
		"mesh":2,
		"translation":[-4.733165325531579e-32,
		0.6623615026473999,
		-1.0972788333892823],
		"scale":[1.0,
		1.0,
		1.0],
		"rotation":[0.0,
		0.0,
		0.0,
		-1.0]
	},
	{
		"name":"dark window",
		"mesh":3,
		"translation":[-1.3134336402097517e-16,
		1.1037929058074952,
		0.15082988142967225],
		"scale":[1.0,
		1.0,
		1.0],
		"rotation":[0.0,
		0.0,
		0.0,
		-1.0]
	}],
	"meshes":[{
		"name":"black",
		"primitives":[{
			"attributes":{
				"POSITION":1,
				"NORMAL":2
			},
			"indices":0,
			"material":0
		}]
	},
	{
		"name":"red light",
		"primitives":[{
			"attributes":{
				"POSITION":4,
				"NORMAL":5
			},
			"indices":3,
			"material":1
		}]
	},
	{
		"name":"grey",
		"primitives":[{
			"attributes":{
				"POSITION":7,
				"NORMAL":8
			},
			"indices":6,
			"material":2
		}]
	},
	{
		"name":"dark window",
		"primitives":[{
			"attributes":{
				"POSITION":10,
				"NORMAL":11
			},
			"indices":9,
			"material":3
		}]
	}],
	"accessors":[{
		"bufferView":0,
		"type":"SCALAR",
		"componentType":5123,
		"count":17070,
		"byteOffset":0,
		"min":[0],
		"max":[4713]
	},
	{
		"bufferView":1,
		"type":"VEC3",
		"componentType":5126,
		"count":4714,
		"byteOffset":0,
		"min":[-1.0862175226211548,
		0.7856367826461792,
		-2.248708963394165],
		"max":[1.0862175226211548,
		1.127227544784546,
		-1.9019958972930909]
	},
	{
		"bufferView":1,
		"type":"VEC3",
		"componentType":5126,
		"count":4714,
		"byteOffset":12,
		"min":[-0.9999922513961792,
		-0.9999461770057678,
		-0.9819210767745972],
		"max":[0.9999922513961792,
		0.9998899102210999,
		0.03703168407082558]
	},
	{
		"bufferView":2,
		"type":"SCALAR",
		"componentType":5123,
		"count":4566,
		"byteOffset":0,
		"min":[0],
		"max":[1628]
	},
	{
		"bufferView":3,
		"type":"VEC3",
		"componentType":5126,
		"count":1629,
		"byteOffset":0,
		"min":[-1.0404067039489747,
		0.5834077000617981,
		-1.5305310487747193],
		"max":[1.0404067039489747,
		0.7696511149406433,
		-1.4058902263641358]
	},
	{
		"bufferView":3,
		"type":"VEC3",
		"componentType":5126,
		"count":1629,
		"byteOffset":12,
		"min":[-0.8421449661254883,
		-0.8231076002120972,
		-0.9990013241767883],
		"max":[0.8421449661254883,
		0.6133988499641419,
		0.98887699842453]
	},
	{
		"bufferView":4,
		"type":"SCALAR",
		"componentType":5123,
		"count":8892,
		"byteOffset":0,
		"min":[0],
		"max":[3309]
	},
	{
		"bufferView":5,
		"type":"VEC3",
		"componentType":5126,
		"count":3310,
		"byteOffset":0,
		"min":[-1.047057032585144,
		0.525293231010437,
		-1.531660795211792],
		"max":[1.047057032585144,
		0.7221879959106445,
		-1.404690146446228]
	},
	{
		"bufferView":5,
		"type":"VEC3",
		"componentType":5126,
		"count":3310,
		"byteOffset":12,
		"min":[-0.8495739698410034,
		-0.5481643080711365,
		-0.9984403848648071],
		"max":[0.8495739698410034,
		0.7117029428482056,
		0.9968328475952148]
	},
	{
		"bufferView":6,
		"type":"SCALAR",
		"componentType":5123,
		"count":88020,
		"byteOffset":0,
		"min":[0],
		"max":[27147]
	},
	{
		"bufferView":7,
		"type":"VEC3",
		"componentType":5126,
		"count":27148,
		"byteOffset":0,
		"min":[-1.0879058837890626,
		0.012674037367105484,
		-2.810316324234009],
		"max":[1.0879058837890626,
		0.3570535182952881,
		-2.509716272354126]
	},
	{
		"bufferView":7,
		"type":"VEC3",
		"componentType":5126,
		"count":27148,
		"byteOffset":12,
		"min":[-0.9999804496765137,
		-0.9999967813491821,
		-1.0],
		"max":[0.9999804496765137,
		0.9999991655349731,
		1.0]
	}],
	"bufferViews":[{
		"buffer":0,
		"byteOffset":0,
		"byteLength":34140,
		"target":34963
	},
	{
		"buffer":0,
		"byteOffset":34140,
		"byteLength":113136,
		"target":34962,
		"byteStride":24
	},
	{
		"buffer":1,
		"byteOffset":0,
		"byteLength":9132,
		"target":34963
	},
	{
		"buffer":1,
		"byteOffset":9132,
		"byteLength":39096,
		"target":34962,
		"byteStride":24
	},
	{
		"buffer":2,
		"byteOffset":0,
		"byteLength":17784,
		"target":34963
	},
	{
		"buffer":2,
		"byteOffset":17784,
		"byteLength":79440,
		"target":34962,
		"byteStride":24
	},
	{
		"buffer":3,
		"byteOffset":0,
		"byteLength":176040,
		"target":34963
	},
	{
		"buffer":3,
		"byteOffset":176040,
		"byteLength":651552,
		"target":34962,
		"byteStride":24
	}],
	"buffers":[{
		"uri":"data:application/octet-stream;base64,",
		"byteLength":147276
	},
	{
		"uri":"data:application/octet-stream;base64,",
		"byteLength":48228
	},
	{
		"uri":"data:application/octet-stream;base64,",
		"byteLength":97224
	},
	{
		"uri":"data:application/octet-stream;base64,",
		"byteLength":827592
	}],
	"materials":[{
		"pbrMetallicRoughness":{
			"baseColorFactor":[0.0,
			0.0,
			0.0,
			1.0],
			"metallicFactor":0.0,
			"roughnessFactor":0.41000000000000005
		},
		"name":"black",
		"emissiveFactor":[0.0,
		0.0,
		0.0],
		"alphaMode":"OPAQUE",
		"doubleSided":true
	},
	{
		"pbrMetallicRoughness":{
			"baseColorFactor":[0.32,
			0.0,
			0.0,
			1.0],
			"metallicFactor":1.0,
			"roughnessFactor":0.42
		},
		"name":"car",
		"emissiveFactor":[0.0,
		0.0,
		0.0],
		"alphaMode":"OPAQUE",
		"doubleSided":true
	},
	{
		"pbrMetallicRoughness":{
			"baseColorFactor":[0.11,
			0.11,
			0.11,
			1.0],
			"metallicFactor":0.0,
			"roughnessFactor":0.5
		},
		"name":"Default",
		"emissiveFactor":[0.0,
		0.0,
		0.0],
		"alphaMode":"OPAQUE",
		"doubleSided":true
	},
	{
		"pbrMetallicRoughness":{
			"baseColorFactor":[1.0,
			1.0,
			1.0,
			0.21999999999999998],
			"metallicFactor":1.0,
			"roughnessFactor":0.1
		},
		"name":"Mat",
		"emissiveFactor":[0.0,
		0.0,
		0.0],
		"alphaMode":"BLEND",
		"doubleSided":true
	}]
}