{
	"asset":{
		"version":"2.0",
		"generator":"Maxon Cinema 4D 2023.2.0 (#200000219)"
	},
	"scenes":[{
		"nodes":[0]
	}],
	"nodes":[{
		"children":[1,
		2,
		3,
		4,
		5],
		"name":"Секвентал світлий",
		"translation":[-1.3134336402097517e-16,
		1.1037929058074952,
		0.15082988142967225],
		"rotation":[0.0,
		-0.7071067690849304,
		0.0,
		-0.7071067690849304],
		"scale":[1.0,
		1.0,
		1.0]
	},
	{
		"mesh":0,
		"name":"LC200_CarGlass_Clear_1.1"
	},
	{
		"mesh":1,
		"name":"LC200_CarGlass_RedBrake_1.1"
	},
	{
		"mesh":2,
		"name":"LCVXR.Body_fullsize_body",
		"translation":[-0.1316857784986496,
		-1.0991309881210328,
		1.3940680004148089e-16],
		"rotation":[0.0,
		-0.7071067690849304,
		0.0,
		0.7071067690849304],
		"scale":[1.0,
		1.0,
		1.0]
	},
	{
		"mesh":3,
		"name":"LCVXR.Body_fullsize_body",
		"translation":[-0.1316857784986496,
		-1.0991309881210328,
		1.3940680004148089e-16],
		"rotation":[0.0,
		-0.7071067690849304,
		0.0,
		0.7071067690849304],
		"scale":[1.0,
		1.0,
		1.0]
	},
	{
		"mesh":4,
		"name":"LCVXR.Body_fullsize_body.4",
		"translation":[-0.1316857784986496,
		-1.0991309881210328,
		1.3940680004148089e-16],
		"rotation":[0.0,
		-0.7071067690849304,
		0.0,
		0.7071067690849304],
		"scale":[1.0,
		1.0,
		1.0]
	}],
	"meshes":[{
		"name":"LC200_CarGlass_Clear_1.1",
		"primitives":[{
			"attributes":{
				"POSITION":1,
				"NORMAL":2
			},
			"indices":0,
			"material":0
		}]
	},
	{
		"name":"LC200_CarGlass_RedBrake_1.1",
		"primitives":[{
			"attributes":{
				"POSITION":4,
				"NORMAL":5
			},
			"indices":3,
			"material":0
		}]
	},
	{
		"name":"LCVXR.Body_fullsize_body",
		"primitives":[{
			"attributes":{
				"POSITION":7,
				"NORMAL":8
			},
			"indices":6,
			"material":1
		}]
	},
	{
		"name":"LCVXR.Body_fullsize_body",
		"primitives":[{
			"attributes":{
				"POSITION":10,
				"NORMAL":11
			},
			"indices":9,
			"material":2
		}]
	},
	{
		"name":"LCVXR.Body_fullsize_body.4",
		"primitives":[{
			"attributes":{
				"POSITION":13,
				"NORMAL":14
			},
			"indices":12,
			"material":3
		}]
	}],
	"accessors":[{
		"max":[14569],
		"bufferView":0,
		"type":"SCALAR",
		"componentType":5123,
		"count":41244,
		"byteOffset":0,
		"min":[0]
	},
	{
		"max":[2.810316324234009,
		0.11920871585607529,
		1.0879058837890626],
		"bufferView":1,
		"type":"VEC3",
		"componentType":5126,
		"count":14570,
		"byteOffset":0,
		"min":[2.509716272354126,
		0.012674037367105484,
		-1.0879058837890626]
	},
	{
		"max":[0.9996529221534729,
		0.9999991655349731,
		0.999947726726532],
		"bufferView":1,
		"type":"VEC3",
		"componentType":5126,
		"count":14570,
		"byteOffset":12,
		"min":[-0.9997127652168274,
		-0.9999967813491821,
		-0.999947726726532]
	},
	{
		"max":[12577],
		"bufferView":2,
		"type":"SCALAR",
		"componentType":5123,
		"count":46776,
		"byteOffset":0,
		"min":[0]
	},
	{
		"max":[2.809617519378662,
		0.3570535182952881,
		1.0840452909469605],
		"bufferView":3,
		"type":"VEC3",
		"componentType":5126,
		"count":12578,
		"byteOffset":0,
		"min":[2.5286407470703127,
		0.10732550173997879,
		-1.0840452909469605]
	},
	{
		"max":[1.0,
		0.9961891770362854,
		0.9999804496765137],
		"bufferView":3,
		"type":"VEC3",
		"componentType":5126,
		"count":12578,
		"byteOffset":12,
		"min":[-1.0,
		-0.9991344213485718,
		-0.9999804496765137]
	},
	{
		"max":[2829],
		"bufferView":4,
		"type":"SCALAR",
		"componentType":5123,
		"count":8184,
		"byteOffset":0,
		"min":[0]
	},
	{
		"max":[1.0412263870239258,
		1.4284013509750367,
		-2.6044209003448488],
		"bufferView":5,
		"type":"VEC3",
		"componentType":5126,
		"count":2830,
		"byteOffset":0,
		"min":[-1.0412263870239258,
		1.2394592761993409,
		-2.872246265411377]
	},
	{
		"max":[0.9999701976776123,
		0.9999903440475464,
		0.9993852376937866],
		"bufferView":5,
		"type":"VEC3",
		"componentType":5126,
		"count":2830,
		"byteOffset":12,
		"min":[-0.999940812587738,
		-0.9999995231628418,
		-0.9995859861373901]
	},
	{
		"max":[201],
		"bufferView":6,
		"type":"SCALAR",
		"componentType":5123,
		"count":546,
		"byteOffset":0,
		"min":[0]
	},
	{
		"max":[1.0862175226211548,
		1.4560773372650147,
		-2.61202335357666],
		"bufferView":7,
		"type":"VEC3",
		"componentType":5126,
		"count":202,
		"byteOffset":0,
		"min":[-1.0862175226211548,
		1.114486575126648,
		-2.9386062622070314]
	},
	{
		"max":[0.9998500943183899,
		0.9996910691261292,
		0.012469064444303513],
		"bufferView":7,
		"type":"VEC3",
		"componentType":5126,
		"count":202,
		"byteOffset":12,
		"min":[-0.9998500943183899,
		-0.9995107054710388,
		-0.919117271900177]
	},
	{
		"max":[7690],
		"bufferView":8,
		"type":"SCALAR",
		"componentType":5123,
		"count":21798,
		"byteOffset":0,
		"min":[0]
	},
	{
		"max":[1.047850489616394,
		1.3809841871261597,
		-2.5908026695251467],
		"bufferView":9,
		"type":"VEC3",
		"componentType":5126,
		"count":7691,
		"byteOffset":0,
		"min":[-1.047850489616394,
		1.1814587116241456,
		-2.870434522628784]
	},
	{
		"max":[0.9999898672103882,
		0.9999985694885254,
		0.9963026642799377],
		"bufferView":9,
		"type":"VEC3",
		"componentType":5126,
		"count":7691,
		"byteOffset":12,
		"min":[-0.9999898672103882,
		-0.9999997615814209,
		-0.9995911121368408]
	}],
	"bufferViews":[{
		"buffer":0,
		"byteOffset":0,
		"target":34963,
		"byteLength":82488
	},
	{
		"buffer":0,
		"byteOffset":82488,
		"target":34962,
		"byteLength":349680,
		"byteStride":24
	},
	{
		"buffer":1,
		"byteOffset":0,
		"target":34963,
		"byteLength":93552
	},
	{
		"buffer":1,
		"byteOffset":93552,
		"target":34962,
		"byteLength":301872,
		"byteStride":24
	},
	{
		"buffer":2,
		"byteOffset":0,
		"target":34963,
		"byteLength":16368
	},
	{
		"buffer":2,
		"byteOffset":16368,
		"target":34962,
		"byteLength":67920,
		"byteStride":24
	},
	{
		"buffer":3,
		"byteOffset":0,
		"target":34963,
		"byteLength":1092
	},
	{
		"buffer":3,
		"byteOffset":1092,
		"target":34962,
		"byteLength":4848,
		"byteStride":24
	},
	{
		"buffer":4,
		"byteOffset":0,
		"target":34963,
		"byteLength":43596
	},
	{
		"buffer":4,
		"byteOffset":43596,
		"target":34962,
		"byteLength":184584,
		"byteStride":24
	}],
	"buffers":[{
		"uri":"data:application/octet-stream;base64,",
		"byteLength":432168
	},
	{
		"uri":"data:application/octet-stream;base64,",
		"byteLength":395424
	},
	{
		"uri":"data:application/octet-stream;base64,",
		"byteLength":84288
	},
	{
		"uri":"data:application/octet-stream;base64,",
		"byteLength":5940
	},
	{
		"uri":"data:application/octet-stream;base64,",
		"byteLength":228180
	}],
	"materials":[{
		"pbrMetallicRoughness":{
			"baseColorFactor":[0.73,
			0.73,
			0.73,
			0.21999999999999998],
			"metallicFactor":0.73,
			"roughnessFactor":0.073
		},
		"emissiveFactor":[0.0,
		0.0,
		0.0],
		"alphaMode":"BLEND",
		"doubleSided":true,
		"name":"Mat"
	},
	{
		"pbrMetallicRoughness":{
			"baseColorFactor":[1.0,
			0.0117647061124444,
			0.054901961237192268,
			1.0],
			"metallicFactor":0.0,
			"roughnessFactor":0.5
		},
		"emissiveFactor":[0.0,
		0.0,
		0.0],
		"alphaMode":"OPAQUE",
		"doubleSided":true,
		"name":"Default"
	},
	{
		"pbrMetallicRoughness":{
			"baseColorFactor":[0.0,
			0.0,
			0.0,
			1.0],
			"metallicFactor":0.0,
			"roughnessFactor":0.41000000000000005
		},
		"emissiveFactor":[0.0,
		0.0,
		0.0],
		"alphaMode":"OPAQUE",
		"doubleSided":true,
		"name":"black"
	},
	{
		"pbrMetallicRoughness":{
			"baseColorFactor":[0.59,
			0.59,
			0.59,
			1.0],
			"metallicFactor":0.0,
			"roughnessFactor":0.5
		},
		"emissiveFactor":[0.0,
		0.0,
		0.0],
		"alphaMode":"OPAQUE",
		"doubleSided":true,
		"name":"Default"
	}]
}