{
	"asset":{
		"version":"2.0",
		"generator":"Maxon Cinema 4D 2023.2.0 (#200000219)"
	},
	"scenes":[{
		"nodes":[0]
	}],
	"nodes":[{
		"children":[1,
		2,
		3],
		"name":"білий",
		"translation":[-1.3134336402097517e-16,
		1.1037929058074952,
		0.15082988142967225],
		"rotation":[0.0,
		-0.7071067690849304,
		0.0,
		-0.7071067690849304],
		"scale":[1.0,
		1.0,
		1.0]
	},
	{
		"mesh":0,
		"name":"LC200_CarGlass_RedBrake_1",
		"translation":[0.011719361878931523,
		0.0,
		-7.105427198782324e-17],
		"rotation":[0.0,
		0.0,
		0.0,
		-1.0],
		"scale":[1.0,
		1.0,
		1.0]
	},
	{
		"mesh":1,
		"name":"Cube.1",
		"translation":[1.4279929399490357,
		-0.1695810854434967,
		0.47589173913002016],
		"rotation":[0.0,
		-0.7071067690849304,
		0.0,
		0.7071067690849304],
		"scale":[1.0,
		1.0,
		1.0]
	},
	{
		"mesh":2,
		"name":"Cube.3",
		"translation":[1.4096182584762574,
		-0.17679224908351899,
		0.47603657841682436],
		"rotation":[0.0,
		-0.7071067690849304,
		0.0,
		0.7071067690849304],
		"scale":[1.0,
		1.0,
		1.0]
	}],
	"meshes":[{
		"name":"LC200_CarGlass_RedBrake_1",
		"primitives":[{
			"attributes":{
				"POSITION":1,
				"NORMAL":2
			},
			"indices":0,
			"material":0
		}]
	},
	{
		"name":"Cube.1",
		"primitives":[{
			"attributes":{
				"POSITION":4,
				"NORMAL":5
			},
			"indices":3,
			"material":1
		}]
	},
	{
		"name":"Cube.3",
		"primitives":[{
			"attributes":{
				"POSITION":7,
				"NORMAL":8
			},
			"indices":6,
			"material":2
		}]
	}],
	"accessors":[{
		"max":[1830],
		"bufferView":0,
		"type":"SCALAR",
		"componentType":5123,
		"count":7800,
		"byteOffset":0,
		"min":[0]
	},
	{
		"max":[2.854093313217163,
		-0.2489456832408905,
		1.0887603759765626],
		"bufferView":1,
		"type":"VEC3",
		"componentType":5126,
		"count":1831,
		"byteOffset":0,
		"min":[2.7282474040985109,
		-0.370272696018219,
		-1.0792999267578126]
	},
	{
		"max":[0.9999890327453613,
		0.9999805688858032,
		0.999341607093811],
		"bufferView":1,
		"type":"VEC3",
		"componentType":5126,
		"count":1831,
		"byteOffset":12,
		"min":[-0.9997034668922424,
		-0.9999970197677612,
		-0.9993607997894287]
	},
	{
		"max":[19723],
		"bufferView":2,
		"type":"SCALAR",
		"componentType":5123,
		"count":27996,
		"byteOffset":0,
		"min":[0]
	},
	{
		"max":[0.6029430031776428,
		-0.08287462592124939,
		-1.2889854907989503],
		"bufferView":3,
		"type":"VEC3",
		"componentType":5126,
		"count":19724,
		"byteOffset":0,
		"min":[-1.5460245609283448,
		-0.1999172419309616,
		-1.427755355834961]
	},
	{
		"max":[0.9999910593032837,
		1.0,
		0.9999996423721314],
		"bufferView":3,
		"type":"VEC3",
		"componentType":5126,
		"count":19724,
		"byteOffset":12,
		"min":[-0.9999914169311523,
		-1.0,
		-0.9949901103973389]
	},
	{
		"max":[4917],
		"bufferView":4,
		"type":"SCALAR",
		"componentType":5123,
		"count":15504,
		"byteOffset":0,
		"min":[0]
	},
	{
		"max":[0.6152125000953674,
		-0.07007192820310593,
		-1.2719674110412598],
		"bufferView":5,
		"type":"VEC3",
		"componentType":5126,
		"count":4918,
		"byteOffset":0,
		"min":[-1.5576350688934327,
		-0.19538043439388276,
		-1.4537606239318848]
	},
	{
		"max":[0.9999885559082031,
		1.0,
		0.9799348711967468],
		"bufferView":5,
		"type":"VEC3",
		"componentType":5126,
		"count":4918,
		"byteOffset":12,
		"min":[-0.9999890327453613,
		-1.0,
		-0.9965572357177734]
	}],
	"bufferViews":[{
		"buffer":0,
		"byteOffset":0,
		"target":34963,
		"byteLength":15600
	},
	{
		"buffer":0,
		"byteOffset":15600,
		"target":34962,
		"byteLength":43944,
		"byteStride":24
	},
	{
		"buffer":1,
		"byteOffset":0,
		"target":34963,
		"byteLength":55992
	},
	{
		"buffer":1,
		"byteOffset":55992,
		"target":34962,
		"byteLength":473376,
		"byteStride":24
	},
	{
		"buffer":2,
		"byteOffset":0,
		"target":34963,
		"byteLength":31008
	},
	{
		"buffer":2,
		"byteOffset":31008,
		"target":34962,
		"byteLength":118032,
		"byteStride":24
	}],
	"buffers":[{
		"uri":"data:application/octet-stream;base64,",
		"byteLength":59544
	},
	{
		"uri":"data:application/octet-stream;base64,",
		"byteLength":529368
	},
	{
		"uri":"data:application/octet-stream;base64,",
		"byteLength":149040
	}],
	"materials":[{
		"pbrMetallicRoughness":{
			"baseColorFactor":[0.73,
			0.73,
			0.73,
			0.21999999999999998],
			"metallicFactor":0.73,
			"roughnessFactor":0.073
		},
		"emissiveFactor":[0.0,
		0.0,
		0.0],
		"alphaMode":"BLEND",
		"doubleSided":true,
		"name":"Mat"
	},
	{
		"pbrMetallicRoughness":{
			"baseColorFactor":[1.0,
			1.0,
			1.0,
			1.0],
			"metallicFactor":0.0,
			"roughnessFactor":0.5
		},
		"emissiveFactor":[0.0,
		0.0,
		0.0],
		"alphaMode":"OPAQUE",
		"doubleSided":true,
		"name":"Default"
	},
	{
		"pbrMetallicRoughness":{
			"baseColorFactor":[0.0,
			0.0,
			0.0,
			1.0],
			"metallicFactor":0.0,
			"roughnessFactor":0.41000000000000005
		},
		"emissiveFactor":[0.0,
		0.0,
		0.0],
		"alphaMode":"OPAQUE",
		"doubleSided":true,
		"name":"black"
	}]
}