{
	"asset":{
		"version":"2.0",
		"generator":"Maxon Cinema 4D 2023.2.0 (#200000219)"
	},
	"scenes":[{
		"nodes":[0]
	}],
	"nodes":[{
		"children":[1,
		2,
		3],
		"name":"сток",
		"translation":[0.004290000069886446,
		-0.04697175323963165,
		-0.22037523984909059],
		"rotation":[0.0,
		0.0,
		0.0,
		-1.0],
		"scale":[1.0,
		1.0,
		1.0]
	},
	{
		"mesh":0,
		"name":"polySurface977"
	},
	{
		"mesh":1,
		"name":"¶ÔÏó015"
	},
	{
		"mesh":2,
		"name":"¶ÔÏó038"
	}],
	"meshes":[{
		"name":"polySurface977",
		"primitives":[{
			"attributes":{
				"POSITION":1,
				"NORMAL":2
			},
			"indices":0,
			"material":0
		}]
	},
	{
		"name":"¶ÔÏó015",
		"primitives":[{
			"attributes":{
				"POSITION":4,
				"NORMAL":5
			},
			"indices":3,
			"material":1
		}]
	},
	{
		"name":"¶ÔÏó038",
		"primitives":[{
			"attributes":{
				"POSITION":7,
				"NORMAL":8
			},
			"indices":6,
			"material":2
		}]
	}],
	"accessors":[{
		"max":[856],
		"bufferView":0,
		"type":"SCALAR",
		"componentType":5123,
		"count":3552,
		"byteOffset":0,
		"min":[0]
	},
	{
		"max":[1.0819206237792969,
		2.0904831886291506,
		-2.0993142127990724],
		"bufferView":1,
		"type":"VEC3",
		"componentType":5126,
		"count":857,
		"byteOffset":0,
		"min":[-1.0904936790466309,
		0.7782306671142578,
		-2.4916739463806154]
	},
	{
		"max":[0.9999923706054688,
		0.9962633848190308,
		0.6507059931755066],
		"bufferView":1,
		"type":"VEC3",
		"componentType":5126,
		"count":857,
		"byteOffset":12,
		"min":[-0.9999923706054688,
		-0.9998174905776978,
		-0.9988241791725159]
	},
	{
		"max":[80],
		"bufferView":2,
		"type":"SCALAR",
		"componentType":5123,
		"count":246,
		"byteOffset":0,
		"min":[0]
	},
	{
		"max":[1.0602141618728638,
		0.866011381149292,
		-2.3485751152038576],
		"bufferView":3,
		"type":"VEC3",
		"componentType":5126,
		"count":81,
		"byteOffset":0,
		"min":[-1.0742058753967286,
		0.8101102113723755,
		-2.366154432296753]
	},
	{
		"max":[0.19922105967998506,
		0.014687830582261086,
		-0.9183598160743713],
		"bufferView":3,
		"type":"VEC3",
		"componentType":5126,
		"count":81,
		"byteOffset":12,
		"min":[-0.39472565054893496,
		-0.15550199151039124,
		-0.990898609161377]
	},
	{
		"max":[3161],
		"bufferView":4,
		"type":"SCALAR",
		"componentType":5123,
		"count":16560,
		"byteOffset":0,
		"min":[0]
	},
	{
		"max":[1.0791692733764649,
		0.8963367938995361,
		-2.3451099395751955],
		"bufferView":5,
		"type":"VEC3",
		"componentType":5126,
		"count":3162,
		"byteOffset":0,
		"min":[-1.0877413749694825,
		0.7788851857185364,
		-2.4836084842681886]
	},
	{
		"max":[0.9887364506721497,
		0.9995259642601013,
		-0.0299697108566761],
		"bufferView":5,
		"type":"VEC3",
		"componentType":5126,
		"count":3162,
		"byteOffset":12,
		"min":[-0.9887313842773438,
		-0.9993696212768555,
		-0.9985694289207459]
	}],
	"bufferViews":[{
		"buffer":0,
		"byteOffset":0,
		"target":34963,
		"byteLength":7104
	},
	{
		"buffer":0,
		"byteOffset":7104,
		"target":34962,
		"byteLength":20568,
		"byteStride":24
	},
	{
		"buffer":1,
		"byteOffset":0,
		"target":34963,
		"byteLength":492
	},
	{
		"buffer":1,
		"byteOffset":492,
		"target":34962,
		"byteLength":1944,
		"byteStride":24
	},
	{
		"buffer":2,
		"byteOffset":0,
		"target":34963,
		"byteLength":33120
	},
	{
		"buffer":2,
		"byteOffset":33120,
		"target":34962,
		"byteLength":75888,
		"byteStride":24
	}],
	"buffers":[{
		"uri":"data:application/octet-stream;base64,",
		"byteLength":27672
	},
	{
		"uri":"data:application/octet-stream;base64,",
		"byteLength":2436
	},
	{
		"uri":"data:application/octet-stream;base64,",
		"byteLength":109008
	}],
	"materials":[{
		"pbrMetallicRoughness":{
			"baseColorFactor":[0.73,
			0.73,
			0.73,
			0.21999999999999998],
			"metallicFactor":0.73,
			"roughnessFactor":0.073
		},
		"emissiveFactor":[0.0,
		0.0,
		0.0],
		"alphaMode":"BLEND",
		"doubleSided":true,
		"name":"Mat"
	},
	{
		"pbrMetallicRoughness":{
			"baseColorFactor":[1.0,
			0.0117647061124444,
			0.054901961237192268,
			1.0],
			"metallicFactor":0.0,
			"roughnessFactor":0.5
		},
		"emissiveFactor":[0.0,
		0.0,
		0.0],
		"alphaMode":"OPAQUE",
		"doubleSided":true,
		"name":"Default"
	},
	{
		"pbrMetallicRoughness":{
			"baseColorFactor":[0.32,
			0.0,
			0.0,
			1.0],
			"metallicFactor":1.0,
			"roughnessFactor":0.1
		},
		"emissiveFactor":[0.0,
		0.0,
		0.0],
		"alphaMode":"OPAQUE",
		"doubleSided":true,
		"name":"car"
	}]
}