{
	"asset":{
		"version":"2.0",
		"generator":""
	},
	"scenes":[{
		"nodes":[0,
		1,
		2,
		3,
		4,
		5]
	}],
	"buffers":[{
		"uri":"data:application/octet-stream;base64,",
		"byteLength":102576
	},
	{
		"uri":"data:application/octet-stream;base64,",
		"byteLength":1092
	},
	{
		"uri":"data:application/octet-stream;base64,",
		"byteLength":108
	},
	{
		"uri":"data:application/octet-stream;base64,",
		"byteLength":20736
	},
	{
		"uri":"data:application/octet-stream;base64,",
		"byteLength":82944
	}],
	"nodes":[{
		"name":"",
		"mesh":0
	},
	{
		"name":"Cube",
		"mesh":1
	},
	{
		"name":"Cube.5",
		"mesh":2
	},
	{
		"name":"Cube.6",
		"children":[6,
		7]
	},
	{
		"name":"Camera",
		"camera":0,
		"translation":[3.7445998191833498,
		2.157982587814331,
		-11.617231369018555],
		"rotation":[0.007990613579750061,
		-0.9862018823623657,
		-0.049997664988040927,
		-0.1576143056154251],
		"scale":[1.0,
		1.0,
		1.0]
	},
	{
		"name":"Camera.1",
		"camera":1,
		"translation":[7.9878458976745609,
		1.819542407989502,
		13.88015079498291],
		"rotation":[0.02423493191599846,
		-0.26882675290107729,
		-0.006766299717128277,
		-0.9628598093986511],
		"scale":[1.0,
		1.0,
		1.0]
	},
	{
		"name":"Cube.6-Mat.1",
		"mesh":3
	},
	{
		"name":"Cube.6-Mat",
		"mesh":4
	}],
	"meshes":[{
		"name":"",
		"primitives":[{
			"attributes":{
				"POSITION":1,
				"NORMAL":2
			},
			"indices":0,
			"material":0
		}]
	},
	{
		"name":"Cube",
		"primitives":[{
			"attributes":{
				"POSITION":4,
				"NORMAL":5
			},
			"indices":3,
			"material":0
		}]
	},
	{
		"name":"Cube.5",
		"primitives":[{
			"attributes":{
				"POSITION":7,
				"NORMAL":8
			},
			"indices":6,
			"material":0
		}]
	},
	{
		"name":"Cube.6-Mat.1",
		"primitives":[{
			"attributes":{
				"POSITION":10,
				"NORMAL":11
			},
			"indices":9,
			"material":1
		}]
	},
	{
		"name":"Cube.6-Mat",
		"primitives":[{
			"attributes":{
				"POSITION":13,
				"NORMAL":14
			},
			"indices":12,
			"material":0
		}]
	}],
	"cameras":[{
		"type":"perspective",
		"perspective":{
			"znear":0.009999999776482582,
			"zfar":10000000000.0,
			"aspectRatio":1.7777777910232545,
			"yfov":0.5631968379020691
		}
	},
	{
		"type":"perspective",
		"perspective":{
			"znear":0.009999999776482582,
			"zfar":10000000000.0,
			"aspectRatio":1.7777777910232545,
			"yfov":0.5631968379020691
		}
	}],
	"accessors":[{
		"bufferView":0,
		"type":"SCALAR",
		"componentType":5123,
		"count":7776,
		"byteOffset":0,
		"min":[0],
		"max":[3625]
	},
	{
		"bufferView":1,
		"type":"VEC3",
		"componentType":5126,
		"count":3626,
		"byteOffset":0,
		"min":[-12.444583892822266,
		-0.015719158574938775,
		-13.889806747436524],
		"max":[12.444583892822266,
		0.00042123396997340024,
		13.889806747436524]
	},
	{
		"bufferView":1,
		"type":"VEC3",
		"componentType":5126,
		"count":3626,
		"byteOffset":12,
		"min":[-1.0,
		0.0,
		-1.0],
		"max":[1.0,
		1.0,
		1.0]
	},
	{
		"bufferView":2,
		"type":"SCALAR",
		"componentType":5123,
		"count":66,
		"byteOffset":0,
		"min":[0],
		"max":[39]
	},
	{
		"bufferView":3,
		"type":"VEC3",
		"componentType":5126,
		"count":40,
		"byteOffset":0,
		"min":[-12.444583892822266,
		0.0,
		-13.889806747436524],
		"max":[12.444583892822266,
		6.0,
		14.505334854125977]
	},
	{
		"bufferView":3,
		"type":"VEC3",
		"componentType":5126,
		"count":40,
		"byteOffset":12,
		"min":[-1.0,
		-1.0,
		-1.0],
		"max":[1.0,
		1.0,
		1.0]
	},
	{
		"bufferView":4,
		"type":"SCALAR",
		"componentType":5123,
		"count":6,
		"byteOffset":0,
		"min":[0],
		"max":[3]
	},
	{
		"bufferView":5,
		"type":"VEC3",
		"componentType":5126,
		"count":4,
		"byteOffset":0,
		"min":[-12.444583892822266,
		6.0,
		-13.889806747436524],
		"max":[12.444583892822266,
		6.0,
		13.889806747436524]
	},
	{
		"bufferView":5,
		"type":"VEC3",
		"componentType":5126,
		"count":4,
		"byteOffset":12,
		"min":[0.0,
		-1.0,
		0.0],
		"max":[0.0,
		-1.0,
		0.0]
	},
	{
		"bufferView":6,
		"type":"SCALAR",
		"componentType":5123,
		"count":1152,
		"byteOffset":0,
		"min":[0],
		"max":[767]
	},
	{
		"bufferView":7,
		"type":"VEC3",
		"componentType":5126,
		"count":768,
		"byteOffset":0,
		"min":[-12.304583549499512,
		5.767609119415283,
		-13.74980640411377],
		"max":[12.304583549499512,
		5.767609119415283,
		13.74980640411377]
	},
	{
		"bufferView":7,
		"type":"VEC3",
		"componentType":5126,
		"count":768,
		"byteOffset":12,
		"min":[0.0,
		-1.0,
		0.0],
		"max":[0.0,
		-1.0,
		0.0]
	},
	{
		"bufferView":8,
		"type":"SCALAR",
		"componentType":5123,
		"count":4608,
		"byteOffset":0,
		"min":[0],
		"max":[3071]
	},
	{
		"bufferView":9,
		"type":"VEC3",
		"componentType":5126,
		"count":3072,
		"byteOffset":0,
		"min":[-12.304583549499512,
		5.767609119415283,
		-13.74980640411377],
		"max":[12.304583549499512,
		6.0,
		13.74980640411377]
	},
	{
		"bufferView":9,
		"type":"VEC3",
		"componentType":5126,
		"count":3072,
		"byteOffset":12,
		"min":[-1.0,
		0.0,
		-1.0],
		"max":[1.0,
		0.0,
		1.0]
	}],
	"bufferViews":[{
		"buffer":0,
		"byteOffset":0,
		"byteLength":15552,
		"target":34963
	},
	{
		"buffer":0,
		"byteOffset":15552,
		"byteLength":87024,
		"target":34962,
		"byteStride":24
	},
	{
		"buffer":1,
		"byteOffset":0,
		"byteLength":132,
		"target":34963
	},
	{
		"buffer":1,
		"byteOffset":132,
		"byteLength":960,
		"target":34962,
		"byteStride":24
	},
	{
		"buffer":2,
		"byteOffset":0,
		"byteLength":12,
		"target":34963
	},
	{
		"buffer":2,
		"byteOffset":12,
		"byteLength":96,
		"target":34962,
		"byteStride":24
	},
	{
		"buffer":3,
		"byteOffset":0,
		"byteLength":2304,
		"target":34963
	},
	{
		"buffer":3,
		"byteOffset":2304,
		"byteLength":18432,
		"target":34962,
		"byteStride":24
	},
	{
		"buffer":4,
		"byteOffset":0,
		"byteLength":9216,
		"target":34963
	},
	{
		"buffer":4,
		"byteOffset":9216,
		"byteLength":73728,
		"target":34962,
		"byteStride":24
	}],
	"materials":[{
		"pbrMetallicRoughness":{
			"baseColorFactor":[0.0,
			0.0,
			0.0,
			1.0],
			"metallicFactor":0.3,
			"roughnessFactor":0.64
		},
		"emissiveFactor":[0.0,
		0.0,
		0.0],
		"alphaMode":"OPAQUE",
		"doubleSided":true,
		"name":"Mat"
	},
	{
		"pbrMetallicRoughness":{
			"baseColorFactor":[0.8,
			0.8,
			0.8,
			1.0],
			"metallicFactor":0.0,
			"roughnessFactor":0.5
		},
		"emissiveFactor":[1.0,
		1.0,
		1.0],
		"alphaMode":"OPAQUE",
		"doubleSided":true,
		"name":"Mat.1"
	}]
}